FontStyleTest-Backslant.ufo
<glyph name="exclam" format="2">
	<unicode hex="0021"/>
	<advance width="600"/>
	<outline>
		<contour>
			<point x="368" y="290" type="line"/>
			<point x="362" y="361"/>
			<point x="356" y="431"/>
			<point x="351" y="502" type="curve"/>
			<point x="304" y="689" type="line" smooth="yes"/>
			<point x="302" y="696"/>
			<point x="296" y="700"/>
			<point x="290" y="700" type="curve" smooth="yes"/>
			<point x="218" y="700"/>
			<point x="162" y="700"/>
			<point x="121" y="700" type="curve"/>
			<point x="131" y="662"/>
			<point x="139" y="627"/>
			<point x="149" y="590" type="curve" smooth="yes"/>
			<point x="171" y="502" type="line"/>
			<point x="255" y="299"/>
			<point x="256" y="297"/>
			<point x="261" y="293" type="curve" smooth="yes"/>
			<point x="264" y="291"/>
			<point x="266" y="290"/>
			<point x="270" y="290" type="curve"/>
		</contour>
		<component base="period" yxScale="-0.2500696627" xOffset="86.2740336439"/>
	</outline>
</glyph>
<glyph name="quotedbl" format="2">
	<unicode hex="0022"/>
	<advance width="600"/>
	<outline>
		<contour>
			<point x="279" y="437" type="curve"/>
			<point x="222" y="737" type="line" smooth="yes"/>
			<point x="221" y="746"/>
			<point x="215" y="750"/>
			<point x="209" y="750" type="curve" smooth="yes"/>
			<point x="161" y="750"/>
			<point x="108" y="750"/>
			<point x="50" y="750" type="curve"/>
			<point x="62" y="714"/>
			<point x="72" y="683"/>
			<point x="83" y="648" type="curve" smooth="yes"/>
			<point x="150" y="448" type="line" smooth="yes"/>
			<point x="152" y="441"/>
			<point x="158" y="437"/>
			<point x="164" y="437" type="curve" smooth="yes"/>
			<point x="202" y="437"/>
			<point x="241" y="437"/>
		</contour>
		<contour>
			<point x="528" y="437" type="curve"/>
			<point x="474" y="737" type="line" smooth="yes"/>
			<point x="473" y="746"/>
			<point x="467" y="750"/>
			<point x="461" y="750" type="curve" smooth="yes"/>
			<point x="413" y="750"/>
			<point x="360" y="750"/>
			<point x="302" y="750" type="curve"/>
			<point x="397" y="448" type="line" smooth="yes"/>
			<point x="398" y="441"/>
			<point x="405" y="437"/>
			<point x="411" y="437" type="curve" smooth="yes"/>
			<point x="449" y="437"/>
			<point x="490" y="437"/>
		</contour>
	</outline>
</glyph>
<glyph name="numbersign" format="2">
	<unicode hex="0023"/>
	<advance width="600"/>
	<outline>
		<contour>
			<point x="112" y="720" type="curve"/>
			<point x="125" y="474"/>
			<point x="137" y="226"/>
			<point x="150" y="-20" type="curve"/>
			<point x="185" y="-20"/>
			<point x="220" y="-20"/>
			<point x="255" y="-20" type="curve"/>
			<point x="262" y="-20"/>
			<point x="266" y="-19"/>
			<point x="266" y="-9" type="curve" smooth="yes"/>
			<point x="254" y="230"/>
			<point x="243" y="470"/>
			<point x="230" y="709" type="curve" smooth="yes"/>
			<point x="230" y="718"/>
			<point x="225" y="720"/>
			<point x="218" y="720" type="curve" smooth="yes"/>
			<point x="184" y="720"/>
			<point x="146" y="720"/>
		</contour>
		<contour>
			<point x="338" y="720" type="curve"/>
			<point x="351" y="474"/>
			<point x="363" y="226"/>
			<point x="376" y="-20" type="curve"/>
			<point x="409" y="-20"/>
			<point x="448" y="-20"/>
			<point x="481" y="-20" type="curve"/>
			<point x="488" y="-20"/>
			<point x="492" y="-19"/>
			<point x="492" y="-9" type="curve" smooth="yes"/>
			<point x="480" y="230"/>
			<point x="469" y="470"/>
			<point x="456" y="709" type="curve" smooth="yes"/>
			<point x="456" y="718"/>
			<point x="451" y="720"/>
			<point x="444" y="720" type="curve" smooth="yes"/>
			<point x="411" y="720"/>
			<point x="370" y="720"/>
		</contour>
		<contour>
			<point x="561" y="435" type="line"/>
			<point x="557" y="448"/>
			<point x="538" y="526"/>
			<point x="535" y="539" type="curve" smooth="yes"/>
			<point x="534" y="542"/>
			<point x="532" y="545"/>
			<point x="530" y="547" type="curve" smooth="yes"/>
			<point x="527" y="549"/>
			<point x="524" y="550"/>
			<point x="521" y="550" type="curve"/>
			<point x="12" y="550" type="line"/>
			<point x="15" y="537"/>
			<point x="35" y="459"/>
			<point x="38" y="446" type="curve" smooth="yes"/>
			<point x="40" y="439"/>
			<point x="45" y="435"/>
			<point x="52" y="435" type="curve"/>
		</contour>
		<contour>
			<point x="46" y="255" type="line"/>
			<point x="49" y="242"/>
			<point x="66" y="174"/>
			<point x="69" y="161" type="curve" smooth="yes"/>
			<point x="70" y="158"/>
			<point x="72" y="155"/>
			<point x="74" y="153" type="curve" smooth="yes"/>
			<point x="77" y="151"/>
			<point x="80" y="150"/>
			<point x="83" y="150" type="curve"/>
			<point x="592" y="150" type="line"/>
			<point x="589" y="163"/>
			<point x="572" y="231"/>
			<point x="569" y="244" type="curve" smooth="yes"/>
			<point x="567" y="251"/>
			<point x="562" y="255"/>
			<point x="555" y="255" type="curve"/>
		</contour>
	</outline>
</glyph>
<glyph name="dollar" format="2">
	<unicode hex="0024"/>
	<advance width="600"/>
	<outline>
		<contour>
			<point x="372" y="-20" type="curve" smooth="yes"/>
			<point x="539" y="-20"/>
			<point x="618" y="62"/>
			<point x="589" y="177" type="curve" smooth="yes"/>
			<point x="578" y="223" type="line" smooth="yes"/>
			<point x="558" y="302"/>
			<point x="507" y="364"/>
			<point x="373" y="402" type="curve" smooth="yes"/>
			<point x="271" y="431" type="line" smooth="yes"/>
			<point x="195" y="452"/>
			<point x="174" y="465"/>
			<point x="165" y="501" type="curve" smooth="yes"/>
			<point x="161" y="519" type="line" smooth="yes"/>
			<point x="154" y="547"/>
			<point x="181" y="575"/>
			<point x="257" y="575" type="curve" smooth="yes"/>
			<point x="337" y="575"/>
			<point x="396" y="563"/>
			<point x="455" y="530" type="curve"/>
			<point x="475" y="530" type="line"/>
			<point x="466" y="565"/>
			<point x="451" y="624"/>
			<point x="440" y="671" type="curve" smooth="yes"/>
			<point x="439" y="673"/>
			<point x="437" y="677"/>
			<point x="435" y="679" type="curve" smooth="yes"/>
			<point x="400" y="707"/>
			<point x="318" y="720"/>
			<point x="231" y="720" type="curve" smooth="yes"/>
			<point x="70" y="720"/>
			<point x="-10" y="638"/>
			<point x="19" y="523" type="curve" smooth="yes"/>
			<point x="29" y="480" type="line" smooth="yes"/>
			<point x="44" y="422"/>
			<point x="97" y="345"/>
			<point x="242" y="304" type="curve" smooth="yes"/>
			<point x="343" y="275" type="line" smooth="yes"/>
			<point x="427" y="251"/>
			<point x="438" y="234"/>
			<point x="446" y="204" type="curve" smooth="yes"/>
			<point x="451" y="181" type="line" smooth="yes"/>
			<point x="458" y="153"/>
			<point x="432" y="125"/>
			<point x="346" y="125" type="curve" smooth="yes"/>
			<point x="256" y="125"/>
			<point x="192" y="144"/>
			<point x="122" y="183" type="curve"/>
			<point x="102" y="183" type="line"/>
			<point x="114" y="136"/>
			<point x="128" y="80"/>
			<point x="137" y="42" type="curve" smooth="yes"/>
			<point x="138" y="40"/>
			<point x="140" y="36"/>
			<point x="142" y="34" type="curve" smooth="yes"/>
			<point x="185" y="0"/>
			<point x="275" y="-20"/>
		</contour>
		<contour>
			<point x="336" y="473" type="curve"/>
			<point x="320" y="594"/>
			<point x="302" y="716"/>
			<point x="286" y="837" type="curve" smooth="yes"/>
			<point x="285" y="846"/>
			<point x="279" y="850"/>
			<point x="273" y="850" type="curve" smooth="yes"/>
			<point x="228" y="850"/>
			<point x="209" y="850"/>
			<point x="163" y="850" type="curve"/>
			<point x="171" y="817"/>
			<point x="179" y="784"/>
			<point x="188" y="751" type="curve" smooth="yes"/>
			<point x="208" y="669"/>
			<point x="229" y="587"/>
			<point x="249" y="505" type="curve" smooth="yes"/>
			<point x="251" y="497"/>
			<point x="255" y="492"/>
			<point x="264" y="490" type="curve" smooth="yes"/>
			<point x="272" y="488"/>
			<point x="310" y="479"/>
		</contour>
		<contour>
			<point x="283" y="231" type="curve"/>
			<point x="298" y="109"/>
			<point x="314" y="-13"/>
			<point x="329" y="-135" type="curve" smooth="yes"/>
			<point x="331" y="-146"/>
			<point x="337" y="-150"/>
			<point x="343" y="-150" type="curve" smooth="yes"/>
			<point x="389" y="-150"/>
			<point x="410" y="-150"/>
			<point x="457" y="-150" type="curve"/>
			<point x="450" y="-120"/>
			<point x="432" y="-50"/>
			<point x="425" y="-20" type="curve" smooth="yes"/>
			<point x="406" y="53"/>
			<point x="388" y="126"/>
			<point x="370" y="199" type="curve" smooth="yes"/>
			<point x="367" y="209"/>
			<point x="364" y="212"/>
			<point x="355" y="214" type="curve" smooth="yes"/>
			<point x="346" y="216"/>
			<point x="307" y="225"/>
		</contour>
	</outline>
</glyph>
<glyph name="percent" format="2">
	<unicode hex="0025"/>
	<advance width="600"/>
	<outline>
		<contour>
			<point x="79" y="710" type="curve" smooth="yes"/>
			<point x="-21" y="710"/>
			<point x="-63" y="648"/>
			<point x="-43" y="569" type="curve" smooth="yes"/>
			<point x="-26" y="501" type="line" smooth="yes"/>
			<point x="-6" y="422"/>
			<point x="66" y="360"/>
			<point x="166" y="360" type="curve" smooth="yes"/>
			<point x="266" y="360"/>
			<point x="308" y="422"/>
			<point x="288" y="501" type="curve" smooth="yes"/>
			<point x="271" y="569" type="line" smooth="yes"/>
			<point x="251" y="648"/>
			<point x="179" y="710"/>
		</contour>
		<contour>
			<point x="70" y="519" type="curve" smooth="yes"/>
			<point x="62" y="551" type="line" smooth="yes"/>
			<point x="50" y="598"/>
			<point x="64" y="618"/>
			<point x="102" y="618" type="curve" smooth="yes"/>
			<point x="121" y="618"/>
			<point x="134" y="614"/>
			<point x="146" y="604" type="curve" smooth="yes"/>
			<point x="160" y="593"/>
			<point x="169" y="576"/>
			<point x="176" y="551" type="curve" smooth="yes"/>
			<point x="184" y="519" type="line" smooth="yes"/>
			<point x="195" y="472"/>
			<point x="181" y="452"/>
			<point x="143" y="452" type="curve" smooth="yes"/>
			<point x="124" y="452"/>
			<point x="111" y="456"/>
			<point x="99" y="466" type="curve" smooth="yes"/>
			<point x="85" y="477"/>
			<point x="76" y="494"/>
		</contour>
		<contour>
			<point x="434" y="340" type="curve" smooth="yes"/>
			<point x="334" y="340"/>
			<point x="292" y="278"/>
			<point x="312" y="199" type="curve" smooth="yes"/>
			<point x="329" y="131" type="line" smooth="yes"/>
			<point x="349" y="52"/>
			<point x="421" y="-10"/>
			<point x="521" y="-10" type="curve" smooth="yes"/>
			<point x="621" y="-10"/>
			<point x="663" y="52"/>
			<point x="643" y="131" type="curve" smooth="yes"/>
			<point x="626" y="199" type="line" smooth="yes"/>
			<point x="606" y="278"/>
			<point x="534" y="340"/>
		</contour>
		<contour>
			<point x="424" y="149" type="curve" smooth="yes"/>
			<point x="416" y="181" type="line" smooth="yes"/>
			<point x="405" y="228"/>
			<point x="419" y="248"/>
			<point x="457" y="248" type="curve" smooth="yes"/>
			<point x="476" y="248"/>
			<point x="489" y="244"/>
			<point x="501" y="234" type="curve" smooth="yes"/>
			<point x="515" y="223"/>
			<point x="524" y="206"/>
			<point x="530" y="181" type="curve" smooth="yes"/>
			<point x="538" y="149" type="line" smooth="yes"/>
			<point x="550" y="102"/>
			<point x="536" y="82"/>
			<point x="498" y="82" type="curve" smooth="yes"/>
			<point x="479" y="82"/>
			<point x="466" y="86"/>
			<point x="454" y="96" type="curve" smooth="yes"/>
			<point x="440" y="107"/>
			<point x="431" y="124"/>
		</contour>
		<component base="fraction" xOffset="-6"/>
	</outline>
</glyph>
<glyph name="ampersand" format="2">
	<unicode hex="0026"/>
	<advance width="600"/>
	<outline>
		<contour>
			<point x="226" y="461" type="curve" smooth="yes"/>
			<point x="194" y="493"/>
			<point x="190" y="504"/>
			<point x="185" y="525" type="curve" smooth="yes"/>
			<point x="181" y="542"/>
			<point x="182" y="551"/>
			<point x="187" y="558" type="curve"/>
			<point x="195" y="569"/>
			<point x="217" y="578"/>
			<point x="252" y="578" type="curve" smooth="yes"/>
			<point x="307" y="578"/>
			<point x="345" y="571"/>
			<point x="398" y="558" type="curve"/>
			<point x="418" y="558" type="line"/>
			<point x="408" y="596"/>
			<point x="399" y="635"/>
			<point x="389" y="673" type="curve" smooth="yes"/>
			<point x="388" y="678"/>
			<point x="386" y="681"/>
			<point x="384" y="683" type="curve" smooth="yes"/>
			<point x="372" y="692"/>
			<point x="314" y="709"/>
			<point x="221" y="709" type="curve" smooth="yes"/>
			<point x="69" y="709"/>
			<point x="11" y="641"/>
			<point x="34" y="550" type="curve" smooth="yes"/>
			<point x="39" y="530" type="line" smooth="yes"/>
			<point x="55" y="466"/>
			<point x="81" y="434"/>
			<point x="174" y="342" type="curve" smooth="yes"/>
			<point x="281" y="235"/>
			<point x="405" y="112"/>
			<point x="449" y="67" type="curve" smooth="yes"/>
			<point x="501" y="14"/>
			<point x="543" y="0"/>
			<point x="597" y="0" type="curve" smooth="yes"/>
			<point x="614" y="0"/>
			<point x="638" y="0"/>
			<point x="647" y="0" type="curve" smooth="yes"/>
			<point x="655" y="0"/>
			<point x="657" y="4"/>
			<point x="655" y="11" type="curve" smooth="yes"/>
			<point x="644" y="54"/>
			<point x="633" y="97"/>
			<point x="623" y="140" type="curve"/>
			<point x="603" y="140" type="line"/>
			<point x="596" y="140"/>
			<point x="588" y="140"/>
			<point x="581" y="140" type="curve" smooth="yes"/>
			<point x="557" y="140"/>
			<point x="548" y="143"/>
			<point x="520" y="169" type="curve" smooth="yes"/>
			<point x="474" y="214"/>
			<point x="376" y="312"/>
		</contour>
		<contour>
			<point x="270" y="-9" type="curve"/>
			<point x="359" y="-9"/>
			<point x="395" y="30"/>
			<point x="409" y="87" type="curve"/>
			<point x="459" y="87" type="line"/>
			<point x="378" y="168" type="line"/>
			<point x="351" y="131"/>
			<point x="333" y="119"/>
			<point x="287" y="119" type="curve" smooth="yes"/>
			<point x="251" y="119"/>
			<point x="227" y="139"/>
			<point x="216" y="184" type="curve" smooth="yes"/>
			<point x="203" y="235" type="line" smooth="yes"/>
			<point x="194" y="272"/>
			<point x="202" y="297"/>
			<point x="243" y="303" type="curve"/>
			<point x="136" y="409" type="line"/>
			<point x="151" y="350" type="line"/>
			<point x="87" y="338"/>
			<point x="39" y="289"/>
			<point x="63" y="194" type="curve" smooth="yes"/>
			<point x="76" y="143" type="line" smooth="yes"/>
			<point x="100" y="47"/>
			<point x="176" y="-9"/>
		</contour>
		<contour>
			<point x="406" y="445" type="curve"/>
			<point x="417" y="400"/>
			<point x="430" y="351"/>
			<point x="440" y="310" type="curve" smooth="yes"/>
			<point x="448" y="280"/>
			<point x="445" y="267"/>
			<point x="423" y="238" type="curve"/>
			<point x="515" y="146" type="line"/>
			<point x="500" y="205" type="line"/>
			<point x="559" y="234"/>
			<point x="587" y="288"/>
			<point x="570" y="354" type="curve" smooth="yes"/>
			<point x="550" y="434" type="line" smooth="yes"/>
			<point x="548" y="441"/>
			<point x="544" y="445"/>
			<point x="536" y="445" type="curve" smooth="yes"/>
			<point x="493" y="445"/>
			<point x="449" y="445"/>
		</contour>
	</outline>
</glyph>
<glyph name="quotesingle" format="2">
	<unicode hex="0027"/>
	<advance width="600"/>
	<outline>
		<contour>
			<point x="405" y="437" type="curve"/>
			<point x="353" y="737" type="line" smooth="yes"/>
			<point x="352" y="746"/>
			<point x="346" y="750"/>
			<point x="340" y="750" type="curve" smooth="yes"/>
			<point x="289" y="750"/>
			<point x="233" y="750"/>
			<point x="171" y="750" type="curve"/>
			<point x="183" y="714"/>
			<point x="193" y="683"/>
			<point x="204" y="648" type="curve" smooth="yes"/>
			<point x="270" y="448" type="line" smooth="yes"/>
			<point x="272" y="441"/>
			<point x="278" y="437"/>
			<point x="284" y="437" type="curve" smooth="yes"/>
			<point x="325" y="437"/>
			<point x="364" y="437"/>
		</contour>
	</outline>
</glyph>
<glyph name="parenleft" format="2">
	<unicode hex="0028"/>
	<advance width="600"/>
	<outline>
		<contour>
			<point x="233" y="742" type="curve" smooth="yes"/>
			<point x="145" y="625"/>
			<point x="124" y="480"/>
			<point x="164" y="320" type="curve" smooth="yes"/>
			<point x="167" y="311" type="line" smooth="yes"/>
			<point x="206" y="153"/>
			<point x="299" y="12"/>
			<point x="445" y="-105" type="curve" smooth="yes"/>
			<point x="455" y="-113"/>
			<point x="460" y="-113"/>
			<point x="467" y="-113" type="curve"/>
			<point x="526" y="-113"/>
			<point x="579" y="-113"/>
			<point x="643" y="-113" type="curve"/>
			<point x="638" y="-93" type="line"/>
			<point x="475" y="32"/>
			<point x="376" y="155"/>
			<point x="337" y="311" type="curve" smooth="yes"/>
			<point x="334" y="320" type="line" smooth="yes"/>
			<point x="295" y="478"/>
			<point x="326" y="612"/>
			<point x="427" y="730" type="curve"/>
			<point x="422" y="750" type="line"/>
			<point x="360" y="750"/>
			<point x="308" y="750"/>
			<point x="251" y="750" type="curve" smooth="yes"/>
			<point x="244" y="750"/>
			<point x="239" y="750"/>
		</contour>
	</outline>
</glyph>
<glyph name="asterisk" format="2">
	<unicode hex="002A"/>
	<advance width="600"/>
	<outline>
		<contour>
			<point x="300" y="540" type="curve" smooth="yes"/>
			<point x="257" y="540"/>
			<point x="213" y="540"/>
			<point x="170" y="540" type="curve"/>
			<point x="187" y="501"/>
			<point x="201" y="474"/>
			<point x="216" y="443" type="curve" smooth="yes"/>
			<point x="230" y="416"/>
			<point x="240" y="393"/>
			<point x="254" y="371" type="curve"/>
			<point x="239" y="360" type="line"/>
			<point x="186" y="406"/>
			<point x="156" y="427"/>
			<point x="85" y="476" type="curve" smooth="yes"/>
			<point x="79" y="480"/>
			<point x="74" y="479"/>
			<point x="71" y="472" type="curve" smooth="yes"/>
			<point x="59" y="435"/>
			<point x="46" y="399"/>
			<point x="35" y="362" type="curve"/>
			<point x="113" y="335"/>
			<point x="158" y="324"/>
			<point x="226" y="311" type="curve"/>
			<point x="232" y="291" type="line"/>
			<point x="174" y="279"/>
			<point x="137" y="271"/>
			<point x="74" y="247" type="curve" smooth="yes"/>
			<point x="68" y="245"/>
			<point x="67" y="240"/>
			<point x="73" y="232" type="curve" smooth="yes"/>
			<point x="104" y="195"/>
			<point x="135" y="159"/>
			<point x="165" y="122" type="curve"/>
			<point x="212" y="168"/>
			<point x="236" y="195"/>
			<point x="269" y="244" type="curve"/>
			<point x="290" y="233" type="line"/>
			<point x="287" y="171"/>
			<point x="284" y="138"/>
			<point x="288" y="72" type="curve" smooth="yes"/>
			<point x="289" y="66"/>
			<point x="293" y="62"/>
			<point x="299" y="62" type="curve" smooth="yes"/>
			<point x="342" y="62"/>
			<point x="386" y="62"/>
			<point x="429" y="62" type="curve"/>
			<point x="412" y="101"/>
			<point x="402" y="120"/>
			<point x="384" y="159" type="curve" smooth="yes"/>
			<point x="371" y="185"/>
			<point x="361" y="206"/>
			<point x="343" y="233" type="curve"/>
			<point x="358" y="244" type="line"/>
			<point x="414" y="197"/>
			<point x="446" y="174"/>
			<point x="512" y="129" type="curve" smooth="yes"/>
			<point x="519" y="124"/>
			<point x="525" y="125"/>
			<point x="527" y="132" type="curve" smooth="yes"/>
			<point x="539" y="169"/>
			<point x="551" y="206"/>
			<point x="563" y="243" type="curve"/>
			<point x="479" y="269"/>
			<point x="442" y="277"/>
			<point x="375" y="291" type="curve"/>
			<point x="369" y="311" type="line"/>
			<point x="417" y="321"/>
			<point x="458" y="331"/>
			<point x="524" y="356" type="curve" smooth="yes"/>
			<point x="531" y="358"/>
			<point x="531" y="364"/>
			<point x="525" y="371" type="curve" smooth="yes"/>
			<point x="495" y="408"/>
			<point x="464" y="444"/>
			<point x="434" y="481" type="curve"/>
			<point x="377" y="425"/>
			<point x="358" y="405"/>
			<point x="329" y="360" type="curve"/>
			<point x="308" y="371" type="line"/>
			<point x="317" y="422"/>
			<point x="318" y="451"/>
			<point x="311" y="530" type="curve" smooth="yes"/>
			<point x="310" y="536"/>
			<point x="306" y="540"/>
		</contour>
	</outline>
</glyph>
<glyph name="plus" format="2">
	<unicode hex="002B"/>
	<advance width="600"/>
	<outline>
		<contour>
			<point x="165" y="538" type="curve"/>
			<point x="172" y="510"/>
			<point x="181" y="476"/>
			<point x="190" y="440" type="curve"/>
			<point x="220" y="318"/>
			<point x="251" y="195"/>
			<point x="282" y="73" type="curve"/>
			<point x="284" y="66"/>
			<point x="289" y="62"/>
			<point x="296" y="62" type="curve" smooth="yes"/>
			<point x="346" y="62"/>
			<point x="385" y="62"/>
			<point x="435" y="62" type="curve"/>
			<point x="396" y="217"/>
			<point x="357" y="372"/>
			<point x="318" y="527" type="curve" smooth="yes"/>
			<point x="316" y="534"/>
			<point x="311" y="538"/>
			<point x="304" y="538" type="curve" smooth="yes"/>
			<point x="259" y="538"/>
			<point x="220" y="538"/>
		</contour>
		<contour>
			<point x="41" y="374" type="line"/>
			<point x="53" y="328"/>
			<point x="64" y="283"/>
			<point x="76" y="237" type="curve" smooth="yes"/>
			<point x="78" y="230"/>
			<point x="83" y="226"/>
			<point x="90" y="226" type="curve" smooth="yes"/>
			<point x="559" y="226" type="line"/>
			<point x="547" y="272"/>
			<point x="536" y="317"/>
			<point x="524" y="363" type="curve" smooth="yes"/>
			<point x="522" y="370"/>
			<point x="517" y="374"/>
			<point x="510" y="374" type="curve" smooth="yes"/>
		</contour>
	</outline>
</glyph>
<glyph name="comma" format="2">
	<unicode hex="002C"/>
	<advance width="600"/>
	<outline>
		<contour>
			<point x="350" y="-200" type="curve" smooth="yes"/>
			<point x="355" y="-200"/>
			<point x="358" y="-199"/>
			<point x="358" y="-192" type="curve" smooth="yes"/>
			<point x="367" y="-65"/>
			<point x="378" y="84"/>
			<point x="386" y="185" type="curve" smooth="yes"/>
			<point x="386" y="194"/>
			<point x="382" y="200"/>
			<point x="374" y="200" type="curve" smooth="yes"/>
			<point x="303" y="200"/>
			<point x="261" y="200"/>
			<point x="178" y="200" type="curve"/>
			<point x="187" y="67"/>
			<point x="197" y="-67"/>
			<point x="206" y="-200" type="curve"/>
			<point x="244" y="-200"/>
			<point x="287" y="-200"/>
		</contour>
	</outline>
</glyph>
<glyph name="zero" format="2">
	<unicode hex="0030"/>
	<advance width="600"/>
	<outline>
		<contour>
			<point x="207" y="720" type="curve" smooth="yes"/>
			<point x="67" y="720"/>
			<point x="-7" y="618"/>
			<point x="36" y="445" type="curve" smooth="yes"/>
			<point x="84" y="255" type="line" smooth="yes"/>
			<point x="127" y="82"/>
			<point x="253" y="-20"/>
			<point x="393" y="-20" type="curve" smooth="yes"/>
			<point x="533" y="-20"/>
			<point x="607" y="82"/>
			<point x="564" y="255" type="curve" smooth="yes"/>
			<point x="516" y="445" type="line" smooth="yes"/>
			<point x="473" y="618"/>
			<point x="348" y="720"/>
		</contour>
		<contour>
			<point x="242" y="580" type="curve" smooth="yes"/>
			<point x="270" y="580"/>
			<point x="295" y="572"/>
			<point x="313" y="556" type="curve" smooth="yes"/>
			<point x="334" y="538"/>
			<point x="351" y="504"/>
			<point x="365" y="449" type="curve" smooth="yes"/>
			<point x="414" y="255" type="line" smooth="yes"/>
			<point x="438" y="157"/>
			<point x="414" y="120"/>
			<point x="352" y="120" type="curve" smooth="yes"/>
			<point x="323" y="120"/>
			<point x="302" y="130"/>
			<point x="283" y="145" type="curve" smooth="yes"/>
			<point x="265" y="160"/>
			<point x="247" y="203"/>
			<point x="234" y="255" type="curve" smooth="yes"/>
			<point x="186" y="445" type="line" smooth="yes"/>
			<point x="161" y="547"/>
			<point x="181" y="580"/>
		</contour>
		<contour>
			<point x="381" y="517" type="line"/>
			<point x="347" y="481"/>
			<point x="322" y="453"/>
			<point x="291" y="418" type="curve" smooth="yes"/>
			<point x="248" y="370"/>
			<point x="239" y="345"/>
			<point x="235" y="300" type="curve"/>
			<point x="254" y="320" type="line"/>
			<point x="177" y="320" type="line"/>
			<point x="212" y="177" type="line"/>
			<point x="253" y="218"/>
			<point x="281" y="249"/>
			<point x="318" y="294" type="curve" smooth="yes"/>
			<point x="350" y="332"/>
			<point x="359" y="356"/>
			<point x="363" y="398" type="curve"/>
			<point x="342" y="383" type="line"/>
			<point x="415" y="383" type="line"/>
		</contour>
	</outline>
</glyph>
<glyph name="one" format="2">
	<unicode hex="0031"/>
	<advance width="600"/>
	<outline>
		<contour>
			<point x="163" y="710" type="curve"/>
			<point x="157" y="704"/>
			<point x="121" y="675"/>
			<point x="100" y="658" type="curve" smooth="yes"/>
			<point x="79" y="641"/>
			<point x="58" y="623"/>
			<point x="37" y="606" type="curve"/>
			<point x="77" y="446" type="line" smooth="yes"/>
			<point x="79" y="439"/>
			<point x="83" y="436"/>
			<point x="88" y="436" type="curve" smooth="yes"/>
			<point x="94" y="436"/>
			<point x="105" y="445"/>
			<point x="131" y="468" type="curve" smooth="yes"/>
			<point x="160" y="495"/>
			<point x="179" y="520"/>
			<point x="192" y="579" type="curve"/>
			<point x="172" y="562" type="line"/>
			<point x="219" y="562" type="line"/>
			<point x="205" y="576" type="line"/>
			<point x="207" y="567"/>
			<point x="281" y="273"/>
			<point x="286" y="252" type="curve" smooth="yes"/>
			<point x="291" y="231"/>
			<point x="309" y="158"/>
			<point x="314" y="138" type="curve"/>
			<point x="315" y="112" type="line"/>
			<point x="471" y="112" type="line"/>
			<point x="468" y="122"/>
			<point x="326" y="689"/>
			<point x="324" y="699" type="curve" smooth="yes"/>
			<point x="322" y="706"/>
			<point x="317" y="710"/>
			<point x="310" y="710" type="curve" smooth="yes"/>
			<point x="304" y="710"/>
			<point x="175" y="710"/>
		</contour>
		<contour>
			<point x="133" y="142" type="curve"/>
			<point x="136" y="132"/>
			<point x="164" y="21"/>
			<point x="166" y="11" type="curve" smooth="yes"/>
			<point x="167" y="8"/>
			<point x="169" y="5"/>
			<point x="171" y="3" type="curve" smooth="yes"/>
			<point x="174" y="1"/>
			<point x="176" y="0"/>
			<point x="180" y="0" type="curve" smooth="yes"/>
			<point x="193" y="0"/>
			<point x="631" y="0"/>
			<point x="639" y="0" type="curve"/>
			<point x="636" y="10"/>
			<point x="609" y="121"/>
			<point x="606" y="131" type="curve" smooth="yes"/>
			<point x="604" y="138"/>
			<point x="599" y="142"/>
			<point x="592" y="142" type="curve" smooth="yes"/>
			<point x="582" y="142"/>
			<point x="143" y="142"/>
		</contour>
	</outline>
</glyph>
<glyph name="three" format="2">
	<unicode hex="0033"/>
	<advance width="600"/>
	<outline>
		<contour>
			<point x="188" y="720" type="curve" smooth="yes"/>
			<point x="89" y="720"/>
			<point x="18" y="701"/>
			<point x="-3" y="692" type="curve" smooth="yes"/>
			<point x="-10" y="689"/>
			<point x="-11" y="685"/>
			<point x="-9" y="676" type="curve" smooth="yes"/>
			<point x="-6" y="666"/>
			<point x="22" y="555"/>
			<point x="24" y="545" type="curve"/>
			<point x="44" y="545" type="line"/>
			<point x="98" y="562"/>
			<point x="139" y="570"/>
			<point x="220" y="570" type="curve" smooth="yes"/>
			<point x="310" y="570"/>
			<point x="342" y="541"/>
			<point x="351" y="507" type="curve" smooth="yes"/>
			<point x="351" y="505" type="line"/>
			<point x="363" y="459"/>
			<point x="349" y="428"/>
			<point x="130" y="428" type="curve"/>
			<point x="133" y="418"/>
			<point x="160" y="309"/>
			<point x="163" y="299" type="curve" smooth="yes"/>
			<point x="165" y="291"/>
			<point x="170" y="288"/>
			<point x="177" y="288" type="curve" smooth="yes"/>
			<point x="376" y="288"/>
			<point x="423" y="258"/>
			<point x="436" y="205" type="curve" smooth="yes"/>
			<point x="438" y="200" type="line" smooth="yes"/>
			<point x="447" y="162"/>
			<point x="427" y="130"/>
			<point x="330" y="130" type="curve" smooth="yes"/>
			<point x="240" y="130"/>
			<point x="191" y="136"/>
			<point x="121" y="160" type="curve"/>
			<point x="101" y="160" type="line"/>
			<point x="103" y="150"/>
			<point x="132" y="34"/>
			<point x="135" y="24" type="curve" smooth="yes"/>
			<point x="136" y="17"/>
			<point x="140" y="12"/>
			<point x="146" y="9" type="curve" smooth="yes"/>
			<point x="169" y="-1"/>
			<point x="268" y="-20"/>
			<point x="374" y="-20" type="curve" smooth="yes"/>
			<point x="537" y="-20"/>
			<point x="626" y="45"/>
			<point x="595" y="170" type="curve" smooth="yes"/>
			<point x="587" y="202" type="line" smooth="yes"/>
			<point x="568" y="277"/>
			<point x="498" y="334"/>
			<point x="349" y="356" type="curve"/>
			<point x="386" y="328" type="line"/>
			<point x="369" y="394" type="line"/>
			<point x="347" y="365" type="line"/>
			<point x="477" y="390"/>
			<point x="519" y="435"/>
			<point x="494" y="534" type="curve" smooth="yes"/>
			<point x="489" y="553" type="line" smooth="yes"/>
			<point x="463" y="659"/>
			<point x="341" y="720"/>
		</contour>
	</outline>
</glyph>
<glyph name="four" format="2">
	<unicode hex="0034"/>
	<advance width="600"/>
	<outline>
		<contour>
			<point x="207" y="700" type="curve" smooth="yes"/>
			<point x="197" y="700"/>
			<point x="193" y="698"/>
			<point x="190" y="690" type="curve" smooth="yes"/>
			<point x="187" y="681"/>
			<point x="54" y="293"/>
			<point x="55" y="292" type="curve" smooth="yes"/>
			<point x="86" y="168" type="line" smooth="yes"/>
			<point x="87" y="161"/>
			<point x="92" y="157"/>
			<point x="99" y="157" type="curve" smooth="yes"/>
			<point x="608" y="157" type="line"/>
			<point x="606" y="167"/>
			<point x="580" y="272"/>
			<point x="577" y="281" type="curve" smooth="yes"/>
			<point x="576" y="288"/>
			<point x="571" y="292"/>
			<point x="564" y="292" type="curve" smooth="yes"/>
			<point x="367" y="292" type="line" smooth="yes"/>
			<point x="286" y="292"/>
			<point x="238" y="286"/>
			<point x="191" y="255" type="curve"/>
			<point x="219" y="238" type="line"/>
			<point x="197" y="326" type="line"/>
			<point x="194" y="255" type="line"/>
			<point x="255" y="409"/>
			<point x="311" y="549"/>
			<point x="363" y="680" type="curve"/>
			<point x="358" y="700" type="line"/>
			<point x="348" y="700"/>
			<point x="219" y="700"/>
		</contour>
		<contour>
			<point x="367" y="410" type="curve"/>
			<point x="368" y="397"/>
			<point x="371" y="310"/>
			<point x="372" y="264" type="curve"/>
			<point x="374" y="254"/>
			<point x="432" y="21"/>
			<point x="435" y="11" type="curve" smooth="yes"/>
			<point x="437" y="4"/>
			<point x="442" y="0"/>
			<point x="449" y="0" type="curve" smooth="yes"/>
			<point x="459" y="0"/>
			<point x="578" y="0"/>
			<point x="588" y="0" type="curve"/>
			<point x="585" y="10"/>
			<point x="566" y="88"/>
			<point x="563" y="98" type="curve" smooth="yes"/>
			<point x="488" y="399" type="line" smooth="yes"/>
			<point x="486" y="406"/>
			<point x="481" y="410"/>
			<point x="474" y="410" type="curve" smooth="yes"/>
			<point x="464" y="410"/>
			<point x="377" y="410"/>
		</contour>
	</outline>
</glyph>
<glyph name="five" format="2">
	<unicode hex="0035"/>
	<advance width="600"/>
	<outline>
		<contour>
			<point x="29" y="700" type="curve"/>
			<point x="32" y="686"/>
			<point x="35" y="675"/>
			<point x="38" y="663" type="curve" smooth="yes"/>
			<point x="52" y="609"/>
			<point x="98" y="568"/>
			<point x="162" y="568" type="curve" smooth="yes"/>
			<point x="189" y="568"/>
			<point x="453" y="568"/>
			<point x="463" y="568" type="curve"/>
			<point x="460" y="578"/>
			<point x="435" y="679"/>
			<point x="433" y="689" type="curve" smooth="yes"/>
			<point x="431" y="696"/>
			<point x="426" y="700"/>
			<point x="419" y="700" type="curve" smooth="yes"/>
			<point x="409" y="700"/>
			<point x="40" y="700"/>
		</contour>
		<contour>
			<point x="29" y="700" type="line"/>
			<point x="49" y="569"/>
			<point x="85" y="337"/>
			<point x="89" y="306" type="curve" smooth="yes"/>
			<point x="90" y="297"/>
			<point x="95" y="293"/>
			<point x="104" y="293" type="curve" smooth="yes"/>
			<point x="237" y="293" type="line"/>
			<point x="257" y="308"/>
			<point x="287" y="317"/>
			<point x="321" y="317" type="curve" smooth="yes"/>
			<point x="384" y="317"/>
			<point x="414" y="285"/>
			<point x="425" y="241" type="curve" smooth="yes"/>
			<point x="434" y="203" type="line" smooth="yes"/>
			<point x="445" y="160"/>
			<point x="418" y="130"/>
			<point x="341" y="130" type="curve" smooth="yes"/>
			<point x="263" y="130"/>
			<point x="200" y="140"/>
			<point x="138" y="160" type="curve"/>
			<point x="118" y="160" type="line"/>
			<point x="121" y="150"/>
			<point x="150" y="34"/>
			<point x="152" y="24" type="curve" smooth="yes"/>
			<point x="154" y="17"/>
			<point x="154" y="14"/>
			<point x="163" y="10" type="curve" smooth="yes"/>
			<point x="187" y="-1"/>
			<point x="265" y="-20"/>
			<point x="377" y="-20" type="curve" smooth="yes"/>
			<point x="552" y="-20"/>
			<point x="620" y="62"/>
			<point x="586" y="197" type="curve" smooth="yes"/>
			<point x="573" y="247" type="line" smooth="yes"/>
			<point x="542" y="372"/>
			<point x="461" y="438"/>
			<point x="349" y="438" type="curve" smooth="yes"/>
			<point x="280" y="438"/>
			<point x="237" y="420"/>
			<point x="218" y="371" type="curve"/>
			<point x="264" y="405" type="line"/>
			<point x="194" y="405" type="line"/>
			<point x="223" y="381" type="line"/>
			<point x="217" y="425"/>
			<point x="207" y="491"/>
			<point x="199" y="550" type="curve" smooth="yes"/>
			<point x="193" y="595"/>
			<point x="188" y="626"/>
			<point x="185" y="650" type="curve"/>
			<point x="184" y="700" type="line"/>
		</contour>
	</outline>
</glyph>
<glyph name="six" format="2">
	<unicode hex="0036"/>
	<advance width="600"/>
	<outline>
		<contour>
			<point x="264" y="720" type="curve" smooth="yes"/>
			<point x="136" y="720"/>
			<point x="-30" y="670"/>
			<point x="37" y="401" type="curve" smooth="yes"/>
			<point x="73" y="258" type="line" smooth="yes"/>
			<point x="118" y="79"/>
			<point x="241" y="-20"/>
			<point x="401" y="-20" type="curve" smooth="yes"/>
			<point x="545" y="-20"/>
			<point x="623" y="73"/>
			<point x="593" y="195" type="curve" smooth="yes"/>
			<point x="578" y="255" type="line" smooth="yes"/>
			<point x="548" y="374"/>
			<point x="451" y="448"/>
			<point x="337" y="448" type="curve" smooth="yes"/>
			<point x="260" y="448"/>
			<point x="224" y="422"/>
			<point x="207" y="374" type="curve"/>
			<point x="231" y="391" type="line"/>
			<point x="177" y="391" type="line"/>
			<point x="207" y="269" type="line"/>
			<point x="238" y="300"/>
			<point x="276" y="314"/>
			<point x="323" y="314" type="curve" smooth="yes"/>
			<point x="362" y="314"/>
			<point x="387" y="302"/>
			<point x="402" y="290" type="curve" smooth="yes"/>
			<point x="417" y="278"/>
			<point x="432" y="253"/>
			<point x="440" y="221" type="curve" smooth="yes"/>
			<point x="443" y="211" type="line" smooth="yes"/>
			<point x="457" y="154"/>
			<point x="433" y="112"/>
			<point x="368" y="112" type="curve" smooth="yes"/>
			<point x="335" y="112"/>
			<point x="307" y="120"/>
			<point x="284" y="139" type="curve" smooth="yes"/>
			<point x="262" y="157"/>
			<point x="245" y="188"/>
			<point x="230" y="247" type="curve" smooth="yes"/>
			<point x="184" y="429" type="line" smooth="yes"/>
			<point x="171" y="481"/>
			<point x="166" y="519"/>
			<point x="184" y="543" type="curve" smooth="yes"/>
			<point x="202" y="567"/>
			<point x="229" y="580"/>
			<point x="277" y="580" type="curve" smooth="yes"/>
			<point x="335" y="580"/>
			<point x="389" y="568"/>
			<point x="447" y="548" type="curve"/>
			<point x="467" y="548" type="line"/>
			<point x="465" y="558"/>
			<point x="438" y="666"/>
			<point x="436" y="675" type="curve" smooth="yes"/>
			<point x="433" y="684"/>
			<point x="429" y="689"/>
			<point x="421" y="692" type="curve" smooth="yes"/>
			<point x="396" y="703"/>
			<point x="332" y="720"/>
		</contour>
	</outline>
</glyph>
<glyph name="seven" format="2">
	<unicode hex="0037"/>
	<advance width="600"/>
	<outline>
		<contour>
			<point x="-38" y="700" type="curve"/>
			<point x="-28" y="660"/>
			<point x="15" y="491"/>
			<point x="17" y="481" type="curve" smooth="yes"/>
			<point x="19" y="474"/>
			<point x="24" y="470"/>
			<point x="31" y="470" type="curve" smooth="yes"/>
			<point x="41" y="470"/>
			<point x="160" y="470"/>
			<point x="170" y="470" type="curve"/>
			<point x="167" y="480"/>
			<point x="138" y="599"/>
			<point x="135" y="609" type="curve" smooth="yes"/>
			<point x="120" y="669"/>
			<point x="11" y="700"/>
		</contour>
		<contour>
			<point x="412" y="0" type="curve"/>
			<point x="426" y="100"/>
			<point x="438" y="183"/>
			<point x="453" y="281" type="curve" smooth="yes"/>
			<point x="469" y="379"/>
			<point x="495" y="570"/>
			<point x="494" y="574" type="curve" smooth="yes"/>
			<point x="465" y="689" type="line" smooth="yes"/>
			<point x="463" y="696"/>
			<point x="458" y="700"/>
			<point x="451" y="700" type="curve" smooth="yes"/>
			<point x="-38" y="700" type="line"/>
			<point x="-19" y="624"/>
			<point x="64" y="558"/>
			<point x="119" y="558" type="curve" smooth="yes"/>
			<point x="161" y="558" type="line" smooth="yes"/>
			<point x="229" y="558"/>
			<point x="312" y="558"/>
			<point x="400" y="558" type="curve"/>
			<point x="345" y="589" type="line"/>
			<point x="363" y="518" type="line"/>
			<point x="387" y="572" type="line"/>
			<point x="342" y="528"/>
			<point x="325" y="490"/>
			<point x="310" y="400" type="curve" smooth="yes"/>
			<point x="273" y="167"/>
			<point x="246" y="21"/>
			<point x="249" y="11" type="curve" smooth="yes"/>
			<point x="251" y="4"/>
			<point x="256" y="0"/>
			<point x="263" y="0" type="curve"/>
			<point x="273" y="0"/>
			<point x="402" y="0"/>
		</contour>
	</outline>
</glyph>
<glyph name="eight" format="2">
	<unicode hex="0038"/>
	<advance width="600"/>
	<outline>
		<contour>
			<point x="207" y="720" type="curve" smooth="yes"/>
			<point x="62" y="720"/>
			<point x="-2" y="636"/>
			<point x="25" y="530" type="curve" smooth="yes"/>
			<point x="30" y="509" type="line" smooth="yes"/>
			<point x="56" y="405"/>
			<point x="99" y="365"/>
			<point x="198" y="332" type="curve" smooth="yes"/>
			<point x="369" y="274" type="line" smooth="yes"/>
			<point x="418" y="258"/>
			<point x="439" y="236"/>
			<point x="449" y="193" type="curve"/>
			<point x="462" y="142"/>
			<point x="434" y="120"/>
			<point x="357" y="120" type="curve" smooth="yes"/>
			<point x="283" y="120"/>
			<point x="243" y="140"/>
			<point x="230" y="192" type="curve"/>
			<point x="217" y="242"/>
			<point x="242" y="278"/>
			<point x="335" y="303" type="curve"/>
			<point x="161" y="368" type="line"/>
			<point x="175" y="315" type="line"/>
			<point x="201" y="328" type="line"/>
			<point x="99" y="311"/>
			<point x="74" y="253"/>
			<point x="95" y="172" type="curve" smooth="yes"/>
			<point x="98" y="160" type="line" smooth="yes"/>
			<point x="125" y="51"/>
			<point x="241" y="-20"/>
			<point x="392" y="-20" type="curve" smooth="yes"/>
			<point x="548" y="-20"/>
			<point x="622" y="64"/>
			<point x="595" y="170" type="curve" smooth="yes"/>
			<point x="590" y="191" type="line" smooth="yes"/>
			<point x="564" y="296"/>
			<point x="515" y="345"/>
			<point x="415" y="379" type="curve" smooth="yes"/>
			<point x="242" y="438" type="line" smooth="yes"/>
			<point x="197" y="453"/>
			<point x="181" y="465"/>
			<point x="170" y="511" type="curve" smooth="yes"/>
			<point x="159" y="554"/>
			<point x="180" y="580"/>
			<point x="244" y="580" type="curve" smooth="yes"/>
			<point x="280" y="580"/>
			<point x="307" y="571"/>
			<point x="320" y="560" type="curve" smooth="yes"/>
			<point x="335" y="548"/>
			<point x="343" y="533"/>
			<point x="348" y="513" type="curve" smooth="yes"/>
			<point x="352" y="498" type="line" smooth="yes"/>
			<point x="362" y="458"/>
			<point x="332" y="426"/>
			<point x="264" y="408" type="curve"/>
			<point x="443" y="342" type="line"/>
			<point x="428" y="403" type="line"/>
			<point x="403" y="385" type="line"/>
			<point x="477" y="397"/>
			<point x="506" y="442"/>
			<point x="486" y="520" type="curve" smooth="yes"/>
			<point x="484" y="530" type="line" smooth="yes"/>
			<point x="455" y="647"/>
			<point x="347" y="720"/>
		</contour>
	</outline>
</glyph>
<glyph name="nine" format="2">
	<unicode hex="0039"/>
	<advance width="600"/>
	<outline>
		<contour>
			<point x="197" y="720" type="curve" smooth="yes"/>
			<point x="57" y="720"/>
			<point x="-24" y="629"/>
			<point x="7" y="505" type="curve" smooth="yes"/>
			<point x="25" y="435" type="line" smooth="yes"/>
			<point x="54" y="318"/>
			<point x="149" y="242"/>
			<point x="265" y="242" type="curve" smooth="yes"/>
			<point x="336" y="242"/>
			<point x="381" y="266"/>
			<point x="392" y="321" type="curve"/>
			<point x="371" y="303" type="line"/>
			<point x="425" y="303" type="line"/>
			<point x="395" y="421" type="line"/>
			<point x="364" y="389"/>
			<point x="320" y="376"/>
			<point x="267" y="376" type="curve" smooth="yes"/>
			<point x="238" y="376"/>
			<point x="216" y="382"/>
			<point x="200" y="395" type="curve" smooth="yes"/>
			<point x="183" y="408"/>
			<point x="172" y="428"/>
			<point x="165" y="458" type="curve" smooth="yes"/>
			<point x="156" y="494" type="line" smooth="yes"/>
			<point x="143" y="545"/>
			<point x="170" y="580"/>
			<point x="231" y="580" type="curve" smooth="yes"/>
			<point x="270" y="580"/>
			<point x="294" y="572"/>
			<point x="316" y="555" type="curve" smooth="yes"/>
			<point x="338" y="537"/>
			<point x="359" y="499"/>
			<point x="371" y="448" type="curve" smooth="yes"/>
			<point x="417" y="265" type="line" smooth="yes"/>
			<point x="432" y="207"/>
			<point x="427" y="162"/>
			<point x="414" y="144" type="curve" smooth="yes"/>
			<point x="400" y="126"/>
			<point x="366" y="112"/>
			<point x="319" y="112" type="curve" smooth="yes"/>
			<point x="257" y="112"/>
			<point x="215" y="120"/>
			<point x="156" y="139" type="curve"/>
			<point x="136" y="139" type="line"/>
			<point x="138" y="129"/>
			<point x="161" y="37"/>
			<point x="164" y="27" type="curve" smooth="yes"/>
			<point x="167" y="16"/>
			<point x="170" y="13"/>
			<point x="180" y="8" type="curve" smooth="yes"/>
			<point x="206" y="-6"/>
			<point x="288" y="-20"/>
			<point x="350" y="-20" type="curve" smooth="yes"/>
			<point x="540" y="-20"/>
			<point x="616" y="88"/>
			<point x="566" y="286" type="curve" smooth="yes"/>
			<point x="527" y="442" type="line" smooth="yes"/>
			<point x="483" y="617"/>
			<point x="362" y="720"/>
		</contour>
	</outline>
</glyph>
<glyph name="equal" format="2">
	<unicode hex="003D"/>
	<advance width="600"/>
	<outline>
		<contour>
			<point x="10" y="500" type="line"/>
			<point x="21" y="454"/>
			<point x="31" y="415"/>
			<point x="42" y="369" type="curve" smooth="yes"/>
			<point x="44" y="362"/>
			<point x="49" y="358"/>
			<point x="56" y="358" type="curve" smooth="yes"/>
			<point x="525" y="358" type="line"/>
			<point x="514" y="404"/>
			<point x="504" y="443"/>
			<point x="492" y="489" type="curve" smooth="yes"/>
			<point x="491" y="496"/>
			<point x="486" y="500"/>
			<point x="479" y="500" type="curve" smooth="yes"/>
		</contour>
		<contour>
			<point x="75" y="240" type="line"/>
			<point x="86" y="194"/>
			<point x="96" y="155"/>
			<point x="108" y="109" type="curve" smooth="yes"/>
			<point x="109" y="102"/>
			<point x="114" y="98"/>
			<point x="121" y="98" type="curve" smooth="yes"/>
			<point x="590" y="98" type="line"/>
			<point x="579" y="144"/>
			<point x="569" y="183"/>
			<point x="558" y="229" type="curve" smooth="yes"/>
			<point x="556" y="236"/>
			<point x="551" y="240"/>
			<point x="544" y="240" type="curve" smooth="yes"/>
		</contour>
	</outline>
</glyph>
<glyph name="question" format="2">
	<unicode hex="003F"/>
	<advance width="600"/>
	<outline>
		<contour>
			<point x="471" y="-10" type="curve"/>
			<point x="427" y="169" type="line" smooth="yes"/>
			<point x="425" y="176"/>
			<point x="420" y="180"/>
			<point x="413" y="180" type="curve" smooth="yes"/>
			<point x="350" y="180"/>
			<point x="287" y="180"/>
			<point x="224" y="180" type="curve"/>
			<point x="269" y="1" type="line" smooth="yes"/>
			<point x="270" y="-6"/>
			<point x="275" y="-10"/>
			<point x="282" y="-10" type="curve" smooth="yes"/>
			<point x="345" y="-10"/>
			<point x="408" y="-10"/>
		</contour>
		<contour>
			<point x="203" y="720" type="curve" smooth="yes"/>
			<point x="100" y="720"/>
			<point x="18" y="697"/>
			<point x="3" y="677" type="curve" smooth="yes"/>
			<point x="1" y="674"/>
			<point x="1" y="671"/>
			<point x="2" y="666" type="curve" smooth="yes"/>
			<point x="14" y="619"/>
			<point x="25" y="573"/>
			<point x="37" y="526" type="curve"/>
			<point x="57" y="526" type="line"/>
			<point x="106" y="558"/>
			<point x="165" y="570"/>
			<point x="239" y="570" type="curve" smooth="yes"/>
			<point x="282" y="570"/>
			<point x="306" y="565"/>
			<point x="322" y="556" type="curve"/>
			<point x="332" y="549"/>
			<point x="338" y="539"/>
			<point x="341" y="527" type="curve" smooth="yes"/>
			<point x="350" y="492"/>
			<point x="346" y="484"/>
			<point x="300" y="446" type="curve" smooth="yes"/>
			<point x="281" y="430" type="line" smooth="yes"/>
			<point x="218" y="377"/>
			<point x="205" y="345"/>
			<point x="219" y="289" type="curve" smooth="yes"/>
			<point x="225" y="263" type="line" smooth="yes"/>
			<point x="227" y="254"/>
			<point x="231" y="252"/>
			<point x="239" y="252" type="curve" smooth="yes"/>
			<point x="380" y="252" type="line"/>
			<point x="378" y="258" type="line" smooth="yes"/>
			<point x="370" y="291"/>
			<point x="377" y="303"/>
			<point x="410" y="328" type="curve" smooth="yes"/>
			<point x="436" y="348" type="line" smooth="yes"/>
			<point x="503" y="401"/>
			<point x="511" y="446"/>
			<point x="492" y="522" type="curve" smooth="yes"/>
			<point x="484" y="553" type="line" smooth="yes"/>
			<point x="464" y="636"/>
			<point x="374" y="720"/>
		</contour>
	</outline>
</glyph>
<glyph name="at" format="2">
	<unicode hex="0040"/>
	<advance width="600"/>
	<outline>
		<contour>
			<point x="188" y="719" type="curve" smooth="yes"/>
			<point x="35" y="719"/>
			<point x="-51" y="655"/>
			<point x="-12" y="498" type="curve" smooth="yes"/>
			<point x="104" y="37" type="line" smooth="yes"/>
			<point x="141" y="-110"/>
			<point x="259" y="-174"/>
			<point x="412" y="-174" type="curve" smooth="yes"/>
			<point x="516" y="-174"/>
			<point x="572" y="-156"/>
			<point x="580" y="-145" type="curve" smooth="yes"/>
			<point x="584" y="-140"/>
			<point x="585" y="-138"/>
			<point x="583" y="-131" type="curve" smooth="yes"/>
			<point x="554" y="-16" type="line"/>
			<point x="534" y="-16" type="line"/>
			<point x="492" y="-32"/>
			<point x="436" y="-39"/>
			<point x="378" y="-39" type="curve" smooth="yes"/>
			<point x="313" y="-39"/>
			<point x="260" y="-29"/>
			<point x="225" y="-1" type="curve"/>
			<point x="203" y="17"/>
			<point x="188" y="42"/>
			<point x="179" y="76" type="curve" smooth="yes"/>
			<point x="81" y="469" type="line" smooth="yes"/>
			<point x="61" y="547"/>
			<point x="112" y="584"/>
			<point x="222" y="584" type="curve" smooth="yes"/>
			<point x="294" y="584"/>
			<point x="342" y="571"/>
			<point x="375" y="545" type="curve"/>
			<point x="398" y="526"/>
			<point x="413" y="500"/>
			<point x="421" y="469" type="curve" smooth="yes"/>
			<point x="502" y="143" type="line" smooth="yes"/>
			<point x="509" y="118"/>
			<point x="504" y="110"/>
			<point x="481" y="110" type="curve"/>
			<point x="470" y="110" type="line"/>
			<point x="447" y="110"/>
			<point x="439" y="118"/>
			<point x="432" y="143" type="curve" smooth="yes"/>
			<point x="410" y="232"/>
			<point x="367" y="402"/>
			<point x="346" y="489" type="curve" smooth="yes"/>
			<point x="344" y="496"/>
			<point x="339" y="500"/>
			<point x="332" y="500" type="curve" smooth="yes"/>
			<point x="268" y="500" type="line"/>
			<point x="266" y="466"/>
			<point x="264" y="416"/>
			<point x="264" y="415" type="curve" smooth="yes"/>
			<point x="286" y="327"/>
			<point x="308" y="240"/>
			<point x="330" y="151" type="curve" smooth="yes"/>
			<point x="349" y="75"/>
			<point x="404" y="35"/>
			<point x="471" y="35" type="curve" smooth="yes"/>
			<point x="495" y="35" type="line" smooth="yes"/>
			<point x="569" y="35"/>
			<point x="605" y="72"/>
			<point x="588" y="140" type="curve" smooth="yes"/>
			<point x="498" y="498" type="line" smooth="yes"/>
			<point x="459" y="655"/>
			<point x="342" y="719"/>
		</contour>
		<contour>
			<point x="308" y="35" type="curve" smooth="yes"/>
			<point x="330" y="35"/>
			<point x="348" y="46"/>
			<point x="345" y="85" type="curve"/>
			<point x="430" y="85" type="line"/>
			<point x="410" y="163" type="line"/>
			<point x="371" y="163"/>
			<point x="349" y="163"/>
			<point x="331" y="163" type="curve"/>
			<point x="330" y="163"/>
			<point x="329" y="164"/>
			<point x="329" y="165" type="curve" smooth="yes"/>
			<point x="276" y="375" type="line" smooth="yes"/>
			<point x="276" y="376"/>
			<point x="277" y="377"/>
			<point x="278" y="377" type="curve" smooth="yes"/>
			<point x="297" y="377"/>
			<point x="325" y="377"/>
			<point x="357" y="377" type="curve"/>
			<point x="337" y="457" type="line"/>
			<point x="252" y="457" type="line"/>
			<point x="238" y="485"/>
			<point x="213" y="505"/>
			<point x="191" y="505" type="curve" smooth="yes"/>
			<point x="166" y="505"/>
			<point x="146" y="488"/>
			<point x="157" y="442" type="curve" smooth="yes"/>
			<point x="243" y="100" type="line" smooth="yes"/>
			<point x="255" y="53"/>
			<point x="283" y="35"/>
		</contour>
	</outline>
</glyph>
<glyph name="A" format="2">
	<unicode hex="0041"/>
	<advance width="600"/>
	<outline>
		<contour>
			<point x="167" y="280" type="line"/>
			<point x="194" y="161" type="line" smooth="yes"/>
			<point x="196" y="154"/>
			<point x="201" y="150"/>
			<point x="208" y="150" type="curve"/>
			<point x="485" y="150" type="line"/>
			<point x="419" y="289" type="line"/>
			<point x="385" y="280" type="line"/>
			<point x="363" y="280"/>
			<point x="341" y="280"/>
			<point x="319" y="280" type="curve"/>
		</contour>
		<contour>
			<point x="262" y="0" type="curve"/>
			<point x="252" y="351"/>
			<point x="252" y="462"/>
			<point x="233" y="590" type="curve"/>
			<point x="207" y="565" type="line"/>
			<point x="287" y="565" type="line"/>
			<point x="249" y="590" type="line"/>
			<point x="293" y="462"/>
			<point x="346" y="350"/>
			<point x="495" y="35" type="curve" smooth="yes"/>
			<point x="510" y="2"/>
			<point x="517" y="0"/>
			<point x="529" y="0" type="curve" smooth="yes"/>
			<point x="571" y="0"/>
			<point x="618" y="0"/>
			<point x="666" y="0" type="curve"/>
			<point x="641" y="53"/>
			<point x="616" y="104"/>
			<point x="591" y="153" type="curve" smooth="yes"/>
			<point x="491" y="365"/>
			<point x="404" y="548"/>
			<point x="336" y="689" type="curve"/>
			<point x="333" y="696"/>
			<point x="328" y="700"/>
			<point x="321" y="700" type="curve"/>
			<point x="250" y="700"/>
			<point x="177" y="700"/>
			<point x="93" y="700" type="curve"/>
			<point x="96" y="596"/>
			<point x="106" y="98"/>
			<point x="109" y="13" type="curve" smooth="yes"/>
			<point x="110" y="3"/>
			<point x="117" y="0"/>
			<point x="121" y="0" type="curve"/>
			<point x="168" y="0"/>
			<point x="215" y="0"/>
		</contour>
	</outline>
	<anchor name="top" x="209.7248517523" y="711"/>
	<anchor name="ring" x="212.4756180424" y="700"/>
	<anchor name="ogonek" x="666.5243819576" y="0"/>
	<anchor name="bottom" x="387.7744516203" y="-1"/>
	<anchor name="hook" x="204.9735281604" y="730"/>
</glyph>
<glyph name="B" format="2">
	<unicode hex="0042"/>
	<advance width="600"/>
	<outline>
		<contour>
			<point x="418" y="0" type="curve" smooth="yes"/>
			<point x="545" y="0"/>
			<point x="616" y="48"/>
			<point x="585" y="169" type="curve" smooth="yes"/>
			<point x="578" y="197" type="line" smooth="yes"/>
			<point x="557" y="284"/>
			<point x="498" y="332"/>
			<point x="417" y="343" type="curve"/>
			<point x="407" y="383" type="line"/>
			<point x="148" y="383" type="line"/>
			<point x="165" y="290" type="line"/>
			<point x="329" y="290" type="line"/>
			<point x="378" y="290"/>
			<point x="405" y="271"/>
			<point x="416" y="226" type="curve" smooth="yes"/>
			<point x="424" y="194" type="line" smooth="yes"/>
			<point x="434" y="156"/>
			<point x="418" y="132"/>
			<point x="369" y="132" type="curve"/>
			<point x="341" y="132"/>
			<point x="313" y="132"/>
			<point x="285" y="132" type="curve"/>
			<point x="252" y="263"/>
			<point x="225" y="368"/>
			<point x="197" y="483" type="curve" smooth="yes"/>
			<point x="188" y="518"/>
			<point x="179" y="555"/>
			<point x="169" y="595" type="curve"/>
			<point x="170" y="616" type="line"/>
			<point x="8" y="616" type="line"/>
			<point x="62" y="400"/>
			<point x="106" y="227"/>
			<point x="160" y="11" type="curve"/>
			<point x="162" y="4"/>
			<point x="167" y="0"/>
			<point x="174" y="0" type="curve" smooth="yes"/>
			<point x="185" y="0"/>
			<point x="337" y="0"/>
		</contour>
		<contour>
			<point x="-58" y="700" type="curve"/>
			<point x="-47" y="656"/>
			<point x="-38" y="623"/>
			<point x="-27" y="579" type="curve" smooth="yes"/>
			<point x="-26" y="572"/>
			<point x="-21" y="568"/>
			<point x="-14" y="568" type="curve"/>
			<point x="77" y="568"/>
			<point x="169" y="568"/>
			<point x="260" y="568" type="curve" smooth="yes"/>
			<point x="285" y="568"/>
			<point x="305" y="563"/>
			<point x="320" y="551" type="curve" smooth="yes"/>
			<point x="332" y="541"/>
			<point x="341" y="527"/>
			<point x="345" y="508" type="curve" smooth="yes"/>
			<point x="351" y="484" type="line" smooth="yes"/>
			<point x="363" y="440"/>
			<point x="345" y="417"/>
			<point x="299" y="417" type="curve" smooth="yes"/>
			<point x="244" y="417"/>
			<point x="188" y="417"/>
			<point x="133" y="417" type="curve"/>
			<point x="156" y="350" type="line"/>
			<point x="170" y="364" type="line"/>
			<point x="214" y="364"/>
			<point x="266" y="364"/>
			<point x="349" y="364" type="curve"/>
			<point x="460" y="364"/>
			<point x="524" y="413"/>
			<point x="499" y="513" type="curve" smooth="yes"/>
			<point x="493" y="536" type="line" smooth="yes"/>
			<point x="473" y="617"/>
			<point x="398" y="700"/>
			<point x="225" y="700" type="curve" smooth="yes"/>
			<point x="131" y="700"/>
			<point x="36" y="700"/>
		</contour>
	</outline>
</glyph>
<glyph name="C" format="2">
	<unicode hex="0043"/>
	<advance width="600"/>
	<outline>
		<contour>
			<point x="437" y="-20" type="curve"/>
			<point x="532" y="-20"/>
			<point x="604" y="7"/>
			<point x="623" y="33" type="curve" smooth="yes"/>
			<point x="626" y="37"/>
			<point x="627" y="42"/>
			<point x="625" y="49" type="curve"/>
			<point x="614" y="94"/>
			<point x="605" y="129"/>
			<point x="595" y="172" type="curve"/>
			<point x="575" y="172" type="line"/>
			<point x="521" y="133"/>
			<point x="475" y="120"/>
			<point x="403" y="120" type="curve"/>
			<point x="360" y="120"/>
			<point x="322" y="127"/>
			<point x="293" y="150" type="curve"/>
			<point x="264" y="173"/>
			<point x="245" y="211"/>
			<point x="231" y="268" type="curve"/>
			<point x="184" y="452" type="line"/>
			<point x="162" y="540"/>
			<point x="199" y="577"/>
			<point x="271" y="577" type="curve"/>
			<point x="312" y="577"/>
			<point x="344" y="572"/>
			<point x="380" y="553" type="curve"/>
			<point x="342" y="594" type="line"/>
			<point x="357" y="532"/>
			<point x="365" y="501"/>
			<point x="373" y="469" type="curve"/>
			<point x="375" y="462"/>
			<point x="380" y="458"/>
			<point x="387" y="458" type="curve"/>
			<point x="430" y="458"/>
			<point x="473" y="458"/>
			<point x="516" y="458" type="curve"/>
			<point x="501" y="516"/>
			<point x="483" y="588"/>
			<point x="471" y="638" type="curve"/>
			<point x="469" y="646"/>
			<point x="467" y="651"/>
			<point x="460" y="656" type="curve" smooth="yes"/>
			<point x="422" y="687"/>
			<point x="340" y="720"/>
			<point x="238" y="720" type="curve"/>
			<point x="59" y="720"/>
			<point x="-16" y="612"/>
			<point x="24" y="455" type="curve"/>
			<point x="74" y="256" type="line"/>
			<point x="118" y="80"/>
			<point x="239" y="-20"/>
		</contour>
	</outline>
	<anchor name="bottom" x="407.5243819576" y="0"/>
	<anchor name="top" x="234.7248517523" y="711"/>
</glyph>
<glyph name="D" format="2">
	<unicode hex="0044"/>
	<advance width="600"/>
	<outline>
		<contour>
			<point x="568" y="238" type="curve" smooth="yes"/>
			<point x="512" y="463" type="line" smooth="yes"/>
			<point x="475" y="610"/>
			<point x="363" y="700"/>
			<point x="216" y="700" type="curve"/>
			<point x="119" y="700"/>
			<point x="25" y="700"/>
			<point x="-58" y="700" type="curve"/>
			<point x="-48" y="660"/>
			<point x="-37" y="619"/>
			<point x="-27" y="579" type="curve" smooth="yes"/>
			<point x="-26" y="572"/>
			<point x="-21" y="568"/>
			<point x="-14" y="568" type="curve" smooth="yes"/>
			<point x="68" y="568"/>
			<point x="159" y="568"/>
			<point x="241" y="568" type="curve"/>
			<point x="272" y="568"/>
			<point x="295" y="562"/>
			<point x="312" y="548" type="curve" smooth="yes"/>
			<point x="332" y="532"/>
			<point x="346" y="505"/>
			<point x="357" y="463" type="curve" smooth="yes"/>
			<point x="413" y="237" type="line" smooth="yes"/>
			<point x="432" y="163"/>
			<point x="418" y="132"/>
			<point x="351" y="132" type="curve"/>
			<point x="328" y="132"/>
			<point x="307" y="132"/>
			<point x="285" y="132" type="curve"/>
			<point x="255" y="252"/>
			<point x="225" y="371"/>
			<point x="195" y="491" type="curve" smooth="yes"/>
			<point x="186" y="526"/>
			<point x="177" y="562"/>
			<point x="168" y="597" type="curve" smooth="yes"/>
			<point x="172" y="622" type="line"/>
			<point x="7" y="622" type="line"/>
			<point x="58" y="419"/>
			<point x="109" y="214"/>
			<point x="160" y="11" type="curve" smooth="yes"/>
			<point x="162" y="4"/>
			<point x="167" y="0"/>
			<point x="174" y="0" type="curve" smooth="yes"/>
			<point x="192" y="0"/>
			<point x="319" y="0"/>
			<point x="392" y="0" type="curve" smooth="yes"/>
			<point x="539" y="0"/>
			<point x="605" y="90"/>
		</contour>
	</outline>
	<anchor name="top" x="199.7248517523" y="711"/>
	<anchor name="bottom" x="382.5243819576" y="0"/>
</glyph>
<glyph name="H" format="2">
	<unicode hex="0048"/>
	<advance width="600"/>
	<outline>
		<contour>
			<point x="-28" y="700" type="curve"/>
			<point x="-19" y="664"/>
			<point x="-10" y="629"/>
			<point x="-1" y="593" type="curve" smooth="yes"/>
			<point x="48" y="399"/>
			<point x="96" y="205"/>
			<point x="145" y="11" type="curve" smooth="yes"/>
			<point x="147" y="4"/>
			<point x="152" y="0"/>
			<point x="159" y="0" type="curve"/>
			<point x="209" y="0"/>
			<point x="253" y="0"/>
			<point x="303" y="0" type="curve"/>
			<point x="245" y="229"/>
			<point x="187" y="460"/>
			<point x="130" y="689" type="curve" smooth="yes"/>
			<point x="128" y="696"/>
			<point x="123" y="700"/>
			<point x="116" y="700" type="curve"/>
			<point x="66" y="700"/>
			<point x="22" y="700"/>
		</contour>
		<contour>
			<point x="109" y="416" type="line"/>
			<point x="141" y="292" type="line" smooth="yes"/>
			<point x="142" y="285"/>
			<point x="147" y="281"/>
			<point x="154" y="281" type="curve"/>
			<point x="475" y="281" type="line"/>
			<point x="406" y="425" type="line"/>
			<point x="371" y="416" type="line"/>
			<point x="349" y="416"/>
			<point x="327" y="416"/>
			<point x="305" y="416" type="curve"/>
		</contour>
		<contour>
			<point x="628" y="0" type="curve"/>
			<point x="620" y="32"/>
			<point x="610" y="70"/>
			<point x="600" y="110" type="curve"/>
			<point x="552" y="303"/>
			<point x="503" y="496"/>
			<point x="455" y="689" type="curve"/>
			<point x="453" y="696"/>
			<point x="448" y="700"/>
			<point x="441" y="700" type="curve"/>
			<point x="391" y="700"/>
			<point x="347" y="700"/>
			<point x="297" y="700" type="curve"/>
			<point x="355" y="471"/>
			<point x="413" y="240"/>
			<point x="470" y="11" type="curve" smooth="yes"/>
			<point x="472" y="4"/>
			<point x="477" y="0"/>
			<point x="484" y="0" type="curve"/>
			<point x="534" y="0"/>
			<point x="578" y="0"/>
		</contour>
	</outline>
	<anchor name="top" x="209.7248517523" y="711"/>
	<anchor name="bottom" x="388.5243819576" y="0"/>
</glyph>
<glyph name="I" format="2">
	<unicode hex="0049"/>
	<advance width="600"/>
	<outline>
		<contour>
			<point x="444" y="85" type="line"/>
			<point x="411" y="220"/>
			<point x="376" y="359"/>
			<point x="342" y="495" type="curve"/>
			<point x="336" y="517"/>
			<point x="329" y="547"/>
			<point x="323" y="569" type="curve"/>
			<point x="316" y="615" type="line"/>
			<point x="156" y="615" type="line"/>
			<point x="190" y="479"/>
			<point x="225" y="340"/>
			<point x="258" y="205" type="curve"/>
			<point x="264" y="184"/>
			<point x="272" y="152"/>
			<point x="277" y="131" type="curve"/>
			<point x="284" y="85" type="line"/>
		</contour>
		<contour>
			<point x="618" y="0" type="line"/>
			<point x="607" y="44"/>
			<point x="598" y="80"/>
			<point x="587" y="124" type="curve" smooth="yes"/>
			<point x="585" y="131"/>
			<point x="580" y="135"/>
			<point x="573" y="135" type="curve"/>
			<point x="124" y="135" type="line"/>
			<point x="135" y="91"/>
			<point x="144" y="55"/>
			<point x="155" y="11" type="curve" smooth="yes"/>
			<point x="157" y="4"/>
			<point x="162" y="0"/>
			<point x="169" y="0" type="curve"/>
		</contour>
		<contour>
			<point x="-18" y="700" type="line"/>
			<point x="-7" y="656"/>
			<point x="2" y="620"/>
			<point x="13" y="576" type="curve"/>
			<point x="15" y="569"/>
			<point x="20" y="565"/>
			<point x="27" y="565" type="curve"/>
			<point x="476" y="565" type="line"/>
			<point x="465" y="609"/>
			<point x="456" y="645"/>
			<point x="445" y="689" type="curve" smooth="yes"/>
			<point x="443" y="696"/>
			<point x="438" y="700"/>
			<point x="431" y="700" type="curve"/>
		</contour>
	</outline>
	<anchor name="top" x="209.7248517523" y="711"/>
	<anchor name="ogonek" x="618.5243819576" y="0"/>
	<anchor name="bottom" x="387.7744516203" y="-1"/>
	<anchor name="hook" x="204.9735281604" y="730"/>
</glyph>
<glyph name="J" format="2">
	<unicode hex="004A"/>
	<advance width="600"/>
	<outline>
		<contour>
			<point x="301" y="121" type="curve" smooth="yes"/>
			<point x="250" y="121"/>
			<point x="202" y="130"/>
			<point x="147" y="151" type="curve"/>
			<point x="127" y="151" type="line"/>
			<point x="139" y="106"/>
			<point x="148" y="68"/>
			<point x="158" y="27" type="curve"/>
			<point x="160" y="20"/>
			<point x="162" y="16"/>
			<point x="167" y="12" type="curve" smooth="yes"/>
			<point x="186" y="-3"/>
			<point x="260" y="-20"/>
			<point x="346" y="-20" type="curve" smooth="yes"/>
			<point x="516" y="-20"/>
			<point x="572" y="93"/>
			<point x="534" y="245" type="curve" smooth="yes"/>
			<point x="497" y="393"/>
			<point x="460" y="541"/>
			<point x="423" y="689" type="curve" smooth="yes"/>
			<point x="421" y="696"/>
			<point x="416" y="700"/>
			<point x="409" y="700" type="curve"/>
			<point x="283" y="700"/>
			<point x="157" y="700"/>
			<point x="31" y="700" type="curve"/>
			<point x="42" y="656"/>
			<point x="51" y="620"/>
			<point x="62" y="576" type="curve"/>
			<point x="64" y="569"/>
			<point x="69" y="565"/>
			<point x="76" y="565" type="curve"/>
			<point x="158" y="565"/>
			<point x="240" y="565"/>
			<point x="322" y="565" type="curve"/>
			<point x="268" y="590" type="line"/>
			<point x="321" y="544" type="line"/>
			<point x="287" y="592" type="line"/>
			<point x="321" y="456"/>
			<point x="351" y="338"/>
			<point x="377" y="232" type="curve" smooth="yes"/>
			<point x="388" y="190"/>
			<point x="387" y="162"/>
			<point x="374" y="145" type="curve" smooth="yes"/>
			<point x="361" y="128"/>
			<point x="337" y="121"/>
		</contour>
	</outline>
	<anchor name="top" x="222.224155125" y="711"/>
</glyph>
<glyph name="K" format="2">
	<unicode hex="004B"/>
	<advance width="600"/>
	<outline>
		<contour>
			<point x="317" y="421" type="curve"/>
			<point x="266" y="233" type="line"/>
			<point x="323" y="233" type="line"/>
			<point x="346" y="185"/>
			<point x="364" y="160"/>
			<point x="429" y="84" type="curve" smooth="yes"/>
			<point x="496" y="7"/>
			<point x="530" y="0"/>
			<point x="605" y="0" type="curve" smooth="yes"/>
			<point x="627" y="0"/>
			<point x="640" y="0"/>
			<point x="647" y="0" type="curve" smooth="yes"/>
			<point x="654" y="0"/>
			<point x="657" y="4"/>
			<point x="655" y="11" type="curve" smooth="yes"/>
			<point x="653" y="19"/>
			<point x="635" y="89"/>
			<point x="624" y="135" type="curve"/>
			<point x="619" y="135" type="line"/>
			<point x="609" y="135"/>
			<point x="605" y="135"/>
			<point x="595" y="135" type="curve"/>
			<point x="569" y="135"/>
			<point x="562" y="140"/>
			<point x="540" y="165" type="curve" smooth="yes"/>
			<point x="467" y="249"/>
			<point x="390" y="337"/>
		</contour>
		<contour>
			<point x="489" y="700" type="curve"/>
			<point x="319" y="700" type="line"/>
			<point x="300" y="645"/>
			<point x="272" y="562"/>
			<point x="254" y="507" type="curve" smooth="yes"/>
			<point x="237" y="460"/>
			<point x="230" y="423"/>
			<point x="229" y="373" type="curve"/>
			<point x="189" y="373" type="line"/>
			<point x="253" y="119" type="line"/>
			<point x="347" y="327"/>
			<point x="453" y="567"/>
			<point x="487" y="649" type="curve" smooth="yes"/>
			<point x="502" y="684"/>
			<point x="502" y="687"/>
			<point x="500" y="692" type="curve" smooth="yes"/>
			<point x="499" y="696"/>
			<point x="494" y="700"/>
		</contour>
		<contour>
			<point x="-28" y="700" type="curve"/>
			<point x="-19" y="664"/>
			<point x="-10" y="629"/>
			<point x="-1" y="593" type="curve" smooth="yes"/>
			<point x="48" y="399"/>
			<point x="96" y="205"/>
			<point x="145" y="11" type="curve" smooth="yes"/>
			<point x="147" y="4"/>
			<point x="152" y="0"/>
			<point x="159" y="0" type="curve"/>
			<point x="209" y="0"/>
			<point x="253" y="0"/>
			<point x="303" y="0" type="curve"/>
			<point x="245" y="229"/>
			<point x="187" y="460"/>
			<point x="130" y="689" type="curve" smooth="yes"/>
			<point x="128" y="696"/>
			<point x="123" y="700"/>
			<point x="116" y="700" type="curve"/>
			<point x="66" y="700"/>
			<point x="22" y="700"/>
		</contour>
	</outline>
	<anchor name="bottom" x="407.7744516203" y="-1"/>
</glyph>
<glyph name="L" format="2">
	<unicode hex="004C"/>
	<advance width="600"/>
	<outline>
		<contour>
			<point x="169" y="0" type="curve" smooth="yes"/>
			<point x="628" y="0" type="line"/>
			<point x="587" y="100"/>
			<point x="552" y="135"/>
			<point x="473" y="135" type="curve" smooth="yes"/>
			<point x="284" y="135" type="line"/>
			<point x="238" y="317"/>
			<point x="191" y="507"/>
			<point x="145" y="689" type="curve" smooth="yes"/>
			<point x="143" y="696"/>
			<point x="138" y="700"/>
			<point x="131" y="700" type="curve" smooth="yes"/>
			<point x="81" y="700"/>
			<point x="32" y="700"/>
			<point x="-18" y="700" type="curve"/>
			<point x="-11" y="673"/>
			<point x="-4" y="647"/>
			<point x="2" y="620" type="curve" smooth="yes"/>
			<point x="53" y="417"/>
			<point x="104" y="214"/>
			<point x="155" y="11" type="curve" smooth="yes"/>
			<point x="157" y="4"/>
			<point x="162" y="0"/>
		</contour>
		<contour>
			<point x="430" y="230" type="curve"/>
			<point x="436" y="207"/>
			<point x="451" y="146"/>
			<point x="457" y="121" type="curve" smooth="yes"/>
			<point x="474" y="55"/>
			<point x="518" y="10"/>
			<point x="628" y="0" type="curve"/>
			<point x="615" y="51"/>
			<point x="585" y="169"/>
			<point x="573" y="219" type="curve"/>
			<point x="571" y="226"/>
			<point x="566" y="230"/>
			<point x="559" y="230" type="curve" smooth="yes"/>
			<point x="513" y="230"/>
			<point x="476" y="230"/>
		</contour>
	</outline>
	<anchor name="top" x="59.7248517523" y="711"/>
	<anchor name="bottom" x="392.7744516203" y="-1"/>
	<anchor name="dot" x="393.741292158" y="475"/>
	<anchor name="caronslovak" x="382.482584316" y="600"/>
	<anchor name="slash" x="169.248676408" y="369"/>
</glyph>
<glyph name="M" format="2">
	<unicode hex="004D"/>
	<advance width="600"/>
	<outline>
		<contour>
			<point x="288" y="0" type="curve"/>
			<point x="277" y="44"/>
			<point x="265" y="89"/>
			<point x="254" y="133" type="curve"/>
			<point x="241" y="185"/>
			<point x="219" y="253"/>
			<point x="122" y="476" type="curve"/>
			<point x="112" y="446" type="line"/>
			<point x="184" y="446" type="line"/>
			<point x="136" y="474" type="line"/>
			<point x="203" y="360"/>
			<point x="269" y="247"/>
			<point x="337" y="133" type="curve" smooth="yes"/>
			<point x="341" y="126"/>
			<point x="345" y="125"/>
			<point x="351" y="125" type="curve" smooth="yes"/>
			<point x="355" y="125"/>
			<point x="358" y="125"/>
			<point x="362" y="125" type="curve"/>
			<point x="376" y="241"/>
			<point x="389" y="358"/>
			<point x="403" y="474" type="curve"/>
			<point x="368" y="446" type="line"/>
			<point x="441" y="446" type="line"/>
			<point x="414" y="476" type="line"/>
			<point x="431" y="251"/>
			<point x="442" y="183"/>
			<point x="454" y="133" type="curve"/>
			<point x="465" y="92"/>
			<point x="475" y="52"/>
			<point x="485" y="11" type="curve" smooth="yes"/>
			<point x="487" y="4"/>
			<point x="492" y="0"/>
			<point x="499" y="0" type="curve"/>
			<point x="545" y="0"/>
			<point x="592" y="0"/>
			<point x="638" y="0" type="curve"/>
			<point x="629" y="33"/>
			<point x="621" y="66"/>
			<point x="613" y="99" type="curve" smooth="yes"/>
			<point x="564" y="296"/>
			<point x="514" y="493"/>
			<point x="465" y="689" type="curve" smooth="yes"/>
			<point x="463" y="696"/>
			<point x="458" y="700"/>
			<point x="451" y="700" type="curve"/>
			<point x="405" y="700"/>
			<point x="360" y="700"/>
			<point x="314" y="700" type="curve"/>
			<point x="289" y="552"/>
			<point x="284" y="512"/>
			<point x="305" y="345" type="curve"/>
			<point x="327" y="388" type="line"/>
			<point x="254" y="388" type="line"/>
			<point x="298" y="345" type="line"/>
			<point x="235" y="512"/>
			<point x="207" y="553"/>
			<point x="134" y="665" type="curve" smooth="yes"/>
			<point x="114" y="696"/>
			<point x="108" y="700"/>
			<point x="101" y="700" type="curve" smooth="yes"/>
			<point x="55" y="700"/>
			<point x="8" y="700"/>
			<point x="-38" y="700" type="curve"/>
			<point x="-29" y="667"/>
			<point x="-21" y="633"/>
			<point x="-13" y="600" type="curve" smooth="yes"/>
			<point x="36" y="404"/>
			<point x="86" y="207"/>
			<point x="135" y="11" type="curve"/>
			<point x="137" y="4"/>
			<point x="142" y="0"/>
			<point x="149" y="0" type="curve"/>
			<point x="195" y="0"/>
			<point x="242" y="0"/>
		</contour>
	</outline>
	<anchor name="bottom" x="388.5243819576" y="0"/>
</glyph>
<glyph name="N" format="2">
	<unicode hex="004E"/>
	<advance width="600"/>
	<outline>
		<contour>
			<point x="298" y="0" type="curve"/>
			<point x="284" y="54"/>
			<point x="270" y="109"/>
			<point x="257" y="163" type="curve"/>
			<point x="240" y="231"/>
			<point x="219" y="290"/>
			<point x="130" y="500" type="curve"/>
			<point x="112" y="490" type="line"/>
			<point x="185" y="490" type="line"/>
			<point x="148" y="503" type="line"/>
			<point x="251" y="325"/>
			<point x="350" y="166"/>
			<point x="431" y="35" type="curve" smooth="yes"/>
			<point x="452" y="1"/>
			<point x="460" y="0"/>
			<point x="476" y="0" type="curve" smooth="yes"/>
			<point x="506" y="0"/>
			<point x="586" y="0"/>
			<point x="628" y="0" type="curve"/>
			<point x="619" y="33"/>
			<point x="611" y="67"/>
			<point x="603" y="100" type="curve" smooth="yes"/>
			<point x="554" y="296"/>
			<point x="504" y="493"/>
			<point x="455" y="689" type="curve" smooth="yes"/>
			<point x="453" y="696"/>
			<point x="448" y="700"/>
			<point x="441" y="700" type="curve"/>
			<point x="395" y="700"/>
			<point x="348" y="700"/>
			<point x="302" y="700" type="curve"/>
			<point x="315" y="651"/>
			<point x="327" y="603"/>
			<point x="339" y="554" type="curve"/>
			<point x="361" y="464"/>
			<point x="377" y="416"/>
			<point x="467" y="213" type="curve"/>
			<point x="485" y="223" type="line"/>
			<point x="415" y="223" type="line"/>
			<point x="452" y="208" type="line"/>
			<point x="326" y="427"/>
			<point x="246" y="561"/>
			<point x="188" y="658" type="curve" smooth="yes"/>
			<point x="164" y="699"/>
			<point x="160" y="700"/>
			<point x="148" y="700" type="curve" smooth="yes"/>
			<point x="103" y="700"/>
			<point x="17" y="700"/>
			<point x="-28" y="700" type="curve"/>
			<point x="-19" y="667"/>
			<point x="-11" y="633"/>
			<point x="-3" y="600" type="curve" smooth="yes"/>
			<point x="46" y="404"/>
			<point x="96" y="207"/>
			<point x="145" y="11" type="curve" smooth="yes"/>
			<point x="147" y="4"/>
			<point x="152" y="0"/>
			<point x="159" y="0" type="curve" smooth="yes"/>
			<point x="205" y="0"/>
			<point x="252" y="0"/>
		</contour>
	</outline>
	<anchor name="top" x="209.9749214151" y="710"/>
	<anchor name="bottom" x="387.7744516203" y="-1"/>
</glyph>
<glyph name="O" format="2">
	<unicode hex="004F"/>
	<advance width="600"/>
	<outline>
		<contour>
			<point x="207" y="720" type="curve"/>
			<point x="56" y="720"/>
			<point x="-16" y="633"/>
			<point x="23" y="477" type="curve" smooth="yes"/>
			<point x="87" y="223" type="line" smooth="yes"/>
			<point x="126" y="67"/>
			<point x="242" y="-20"/>
			<point x="393" y="-20" type="curve"/>
			<point x="544" y="-20"/>
			<point x="616" y="67"/>
			<point x="577" y="223" type="curve" smooth="yes"/>
			<point x="513" y="477" type="line" smooth="yes"/>
			<point x="474" y="633"/>
			<point x="358" y="720"/>
		</contour>
		<contour>
			<point x="237" y="223" type="curve" smooth="yes"/>
			<point x="173" y="477" type="line" smooth="yes"/>
			<point x="156" y="547"/>
			<point x="174" y="585"/>
			<point x="241" y="585" type="curve" smooth="yes"/>
			<point x="272" y="585"/>
			<point x="296" y="578"/>
			<point x="316" y="562" type="curve" smooth="yes"/>
			<point x="338" y="544"/>
			<point x="354" y="515"/>
			<point x="363" y="477" type="curve" smooth="yes"/>
			<point x="427" y="223" type="line" smooth="yes"/>
			<point x="444" y="153"/>
			<point x="426" y="115"/>
			<point x="359" y="115" type="curve" smooth="yes"/>
			<point x="328" y="115"/>
			<point x="303" y="123"/>
			<point x="284" y="138" type="curve" smooth="yes"/>
			<point x="260" y="157"/>
			<point x="246" y="185"/>
		</contour>
	</outline>
	<anchor name="top" x="209.7248517523" y="711"/>
	<anchor name="bottom" x="387.7744516203" y="-1"/>
	<anchor name="horn" x="371.2272202854" y="677"/>
	<anchor name="hook" x="204.9735281604" y="730"/>
	<anchor name="tildeviet" x="170.9746427641" y="714"/>
	<anchor name="ogonek" x="579.5182516368" y="88"/>
</glyph>
<glyph name="P" format="2">
	<unicode hex="0050"/>
	<advance width="600"/>
	<outline>
		<contour>
			<point x="323" y="0" type="curve"/>
			<point x="316" y="28"/>
			<point x="307" y="62"/>
			<point x="298" y="98" type="curve"/>
			<point x="263" y="237"/>
			<point x="233" y="356"/>
			<point x="202" y="483" type="curve" smooth="yes"/>
			<point x="193" y="518"/>
			<point x="186" y="547"/>
			<point x="176" y="586" type="curve"/>
			<point x="180" y="616" type="line"/>
			<point x="8" y="616" type="line"/>
			<point x="61" y="404"/>
			<point x="107" y="223"/>
			<point x="160" y="11" type="curve"/>
			<point x="162" y="4"/>
			<point x="167" y="0"/>
			<point x="174" y="0" type="curve" smooth="yes"/>
			<point x="224" y="0"/>
			<point x="273" y="0"/>
		</contour>
		<contour>
			<point x="-58" y="700" type="curve"/>
			<point x="-47" y="656"/>
			<point x="-38" y="621"/>
			<point x="-27" y="577" type="curve" smooth="yes"/>
			<point x="-25" y="570"/>
			<point x="-20" y="566"/>
			<point x="-13" y="566" type="curve"/>
			<point x="73" y="566"/>
			<point x="170" y="566"/>
			<point x="258" y="566" type="curve" smooth="yes"/>
			<point x="284" y="566"/>
			<point x="303" y="562"/>
			<point x="318" y="550" type="curve" smooth="yes"/>
			<point x="333" y="538"/>
			<point x="343" y="519"/>
			<point x="350" y="490" type="curve" smooth="yes"/>
			<point x="368" y="416" type="line" smooth="yes"/>
			<point x="383" y="358"/>
			<point x="365" y="340"/>
			<point x="314" y="340" type="curve" smooth="yes"/>
			<point x="288" y="340"/>
			<point x="248" y="340"/>
			<point x="208" y="340" type="curve"/>
			<point x="242" y="201" type="line" smooth="yes"/>
			<point x="252" y="205" type="line"/>
			<point x="284" y="205"/>
			<point x="316" y="205"/>
			<point x="347" y="205" type="curve" smooth="yes"/>
			<point x="518" y="205"/>
			<point x="561" y="287"/>
			<point x="527" y="423" type="curve" smooth="yes"/>
			<point x="512" y="483" type="line" smooth="yes"/>
			<point x="479" y="615"/>
			<point x="394" y="700"/>
			<point x="223" y="700" type="curve" smooth="yes"/>
			<point x="143" y="700"/>
			<point x="33" y="700"/>
		</contour>
	</outline>
</glyph>
<glyph name="Q" format="2">
	<unicode hex="0051"/>
	<advance width="600"/>
	<outline>
		<contour>
			<point x="490" y="116" type="curve"/>
			<point x="375" y="59" type="line"/>
			<point x="412" y="12"/>
			<point x="440" y="-26"/>
			<point x="476" y="-73" type="curve"/>
			<point x="520" y="-130"/>
			<point x="553" y="-145"/>
			<point x="625" y="-145" type="curve" smooth="yes"/>
			<point x="638" y="-145"/>
			<point x="658" y="-145"/>
			<point x="667" y="-145" type="curve" smooth="yes"/>
			<point x="674" y="-145"/>
			<point x="677" y="-141"/>
			<point x="676" y="-134" type="curve" smooth="yes"/>
			<point x="664" y="-88"/>
			<point x="656" y="-56"/>
			<point x="645" y="-10" type="curve"/>
			<point x="625" y="-10" type="line"/>
			<point x="620" y="-10"/>
			<point x="617" y="-10"/>
			<point x="612" y="-10" type="curve"/>
			<point x="598" y="-10"/>
			<point x="591" y="-8"/>
			<point x="577" y="9" type="curve" smooth="yes"/>
			<point x="545" y="48"/>
			<point x="522" y="77"/>
		</contour>
		<component base="O"/>
	</outline>
</glyph>
<glyph name="R" format="2">
	<unicode hex="0052"/>
	<advance width="600"/>
	<outline>
		<contour>
			<point x="414" y="318" type="curve"/>
			<point x="297" y="261" type="line"/>
			<point x="348" y="196"/>
			<point x="396" y="130"/>
			<point x="446" y="65" type="curve"/>
			<point x="488" y="10"/>
			<point x="523" y="0"/>
			<point x="595" y="0" type="curve" smooth="yes"/>
			<point x="608" y="0"/>
			<point x="628" y="0"/>
			<point x="637" y="0" type="curve" smooth="yes"/>
			<point x="644" y="0"/>
			<point x="647" y="4"/>
			<point x="645" y="11" type="curve" smooth="yes"/>
			<point x="634" y="56"/>
			<point x="625" y="90"/>
			<point x="614" y="135" type="curve"/>
			<point x="594" y="135" type="line"/>
			<point x="589" y="135"/>
			<point x="586" y="135"/>
			<point x="581" y="135" type="curve"/>
			<point x="567" y="135"/>
			<point x="559" y="140"/>
			<point x="544" y="158" type="curve" smooth="yes"/>
			<point x="498" y="216"/>
			<point x="462" y="259"/>
		</contour>
		<contour>
			<point x="-58" y="700" type="curve"/>
			<point x="-47" y="656"/>
			<point x="-38" y="620"/>
			<point x="-27" y="576" type="curve" smooth="yes"/>
			<point x="-25" y="569"/>
			<point x="-20" y="565"/>
			<point x="-13" y="565" type="curve" smooth="yes"/>
			<point x="76" y="565"/>
			<point x="167" y="565"/>
			<point x="256" y="565" type="curve" smooth="yes"/>
			<point x="281" y="565"/>
			<point x="301" y="559"/>
			<point x="314" y="548" type="curve" smooth="yes"/>
			<point x="328" y="537"/>
			<point x="337" y="521"/>
			<point x="343" y="499" type="curve" smooth="yes"/>
			<point x="360" y="429" type="line" smooth="yes"/>
			<point x="371" y="384"/>
			<point x="355" y="363"/>
			<point x="307" y="363" type="curve" smooth="yes"/>
			<point x="272" y="363"/>
			<point x="237" y="363"/>
			<point x="202" y="363" type="curve"/>
			<point x="236" y="228" type="line"/>
			<point x="245" y="233" type="line"/>
			<point x="282" y="233"/>
			<point x="321" y="233"/>
			<point x="358" y="233" type="curve" smooth="yes"/>
			<point x="486" y="233"/>
			<point x="546" y="307"/>
			<point x="515" y="431" type="curve" smooth="yes"/>
			<point x="500" y="490" type="line" smooth="yes"/>
			<point x="468" y="618"/>
			<point x="384" y="700"/>
			<point x="216" y="700" type="curve" smooth="yes"/>
			<point x="125" y="700"/>
			<point x="33" y="700"/>
		</contour>
		<contour>
			<point x="318" y="0" type="curve"/>
			<point x="311" y="28"/>
			<point x="302" y="62"/>
			<point x="293" y="98" type="curve"/>
			<point x="258" y="237"/>
			<point x="231" y="348"/>
			<point x="199" y="475" type="curve" smooth="yes"/>
			<point x="190" y="510"/>
			<point x="181" y="547"/>
			<point x="171" y="586" type="curve"/>
			<point x="175" y="616" type="line"/>
			<point x="8" y="616" type="line"/>
			<point x="61" y="404"/>
			<point x="107" y="223"/>
			<point x="160" y="11" type="curve"/>
			<point x="162" y="4"/>
			<point x="167" y="0"/>
			<point x="174" y="0" type="curve" smooth="yes"/>
			<point x="224" y="0"/>
			<point x="268" y="0"/>
		</contour>
	</outline>
	<anchor name="top" x="209.7248517523" y="711"/>
	<anchor name="bottom" x="387.7744516203" y="-1"/>
</glyph>
<glyph name="S" format="2">
	<unicode hex="0053"/>
	<advance width="600"/>
	<outline>
		<contour>
			<point x="229" y="720" type="curve" smooth="yes"/>
			<point x="72" y="720"/>
			<point x="-5" y="639"/>
			<point x="22" y="530" type="curve" smooth="yes"/>
			<point x="35" y="479" type="line" smooth="yes"/>
			<point x="53" y="407"/>
			<point x="98" y="342"/>
			<point x="242" y="301" type="curve" smooth="yes"/>
			<point x="344" y="272" type="line" smooth="yes"/>
			<point x="418" y="251"/>
			<point x="428" y="236"/>
			<point x="434" y="209" type="curve" smooth="yes"/>
			<point x="444" y="172" type="line" smooth="yes"/>
			<point x="451" y="144"/>
			<point x="428" y="116"/>
			<point x="349" y="116" type="curve" smooth="yes"/>
			<point x="259" y="116"/>
			<point x="194" y="135"/>
			<point x="124" y="174" type="curve"/>
			<point x="104" y="174" type="line"/>
			<point x="116" y="127"/>
			<point x="125" y="89"/>
			<point x="135" y="52" type="curve"/>
			<point x="138" y="39"/>
			<point x="141" y="36"/>
			<point x="146" y="32" type="curve"/>
			<point x="187" y="-1"/>
			<point x="275" y="-20"/>
			<point x="372" y="-20" type="curve" smooth="yes"/>
			<point x="540" y="-20"/>
			<point x="621" y="51"/>
			<point x="591" y="170" type="curve" smooth="yes"/>
			<point x="579" y="218" type="line" smooth="yes"/>
			<point x="556" y="311"/>
			<point x="508" y="361"/>
			<point x="374" y="399" type="curve" smooth="yes"/>
			<point x="271" y="428" type="line" smooth="yes"/>
			<point x="200" y="448"/>
			<point x="186" y="462"/>
			<point x="177" y="498" type="curve" smooth="yes"/>
			<point x="172" y="519" type="line" smooth="yes"/>
			<point x="160" y="567"/>
			<point x="191" y="585"/>
			<point x="254" y="585" type="curve" smooth="yes"/>
			<point x="284" y="585"/>
			<point x="318" y="580"/>
			<point x="352" y="571" type="curve"/>
			<point x="315" y="604" type="line"/>
			<point x="326" y="562"/>
			<point x="332" y="538"/>
			<point x="337" y="516" type="curve"/>
			<point x="339" y="509"/>
			<point x="344" y="505"/>
			<point x="351" y="505" type="curve"/>
			<point x="394" y="505"/>
			<point x="439" y="505"/>
			<point x="482" y="505" type="curve"/>
			<point x="471" y="550"/>
			<point x="457" y="606"/>
			<point x="447" y="645" type="curve"/>
			<point x="445" y="653"/>
			<point x="443" y="658"/>
			<point x="437" y="663" type="curve" smooth="yes"/>
			<point x="398" y="694"/>
			<point x="323" y="720"/>
		</contour>
	</outline>
	<anchor name="top" x="228.7248517523" y="711"/>
	<anchor name="bottom" x="390.7744516203" y="-1"/>
	<anchor name="dot" x="300.4756180424" y="700"/>
</glyph>
<glyph name="T" format="2">
	<unicode hex="0054"/>
	<advance width="600"/>
	<outline>
		<contour>
			<point x="-38" y="700" type="line"/>
			<point x="-26" y="654"/>
			<point x="-18" y="622"/>
			<point x="-7" y="576" type="curve" smooth="yes"/>
			<point x="-5" y="569"/>
			<point x="0" y="565"/>
			<point x="7" y="565" type="curve"/>
			<point x="496" y="565" type="line"/>
			<point x="485" y="611"/>
			<point x="477" y="643"/>
			<point x="465" y="689" type="curve"/>
			<point x="463" y="696"/>
			<point x="458" y="700"/>
			<point x="451" y="700" type="curve"/>
		</contour>
		<contour>
			<point x="468" y="0" type="curve"/>
			<point x="461" y="28"/>
			<point x="452" y="62"/>
			<point x="443" y="98" type="curve"/>
			<point x="408" y="237"/>
			<point x="381" y="348"/>
			<point x="349" y="475" type="curve" smooth="yes"/>
			<point x="340" y="510"/>
			<point x="329" y="554"/>
			<point x="319" y="593" type="curve"/>
			<point x="324" y="623" type="line"/>
			<point x="152" y="623" type="line"/>
			<point x="205" y="411"/>
			<point x="252" y="223"/>
			<point x="305" y="11" type="curve"/>
			<point x="307" y="4"/>
			<point x="312" y="0"/>
			<point x="319" y="0" type="curve" smooth="yes"/>
			<point x="369" y="0"/>
			<point x="418" y="0"/>
		</contour>
	</outline>
	<anchor name="top" x="209.7248517523" y="711"/>
	<anchor name="bottom" x="387.7744516203" y="-1"/>
</glyph>
<glyph name="U" format="2">
	<unicode hex="0055"/>
	<advance width="600"/>
	<outline>
		<contour>
			<point x="626" y="0" type="curve"/>
			<point x="618" y="32"/>
			<point x="609" y="70"/>
			<point x="599" y="110" type="curve"/>
			<point x="551" y="303"/>
			<point x="502" y="496"/>
			<point x="454" y="689" type="curve"/>
			<point x="452" y="696"/>
			<point x="447" y="700"/>
			<point x="440" y="700" type="curve"/>
			<point x="390" y="700"/>
			<point x="341" y="700"/>
			<point x="291" y="700" type="curve"/>
			<point x="348" y="471"/>
			<point x="406" y="240"/>
			<point x="464" y="11" type="curve" smooth="yes"/>
			<point x="465" y="4"/>
			<point x="470" y="0"/>
			<point x="477" y="0" type="curve" smooth="yes"/>
			<point x="527" y="0"/>
			<point x="576" y="0"/>
		</contour>
		<contour>
			<point x="294" y="-10" type="curve" smooth="yes"/>
			<point x="367" y="-10"/>
			<point x="404" y="21"/>
			<point x="425" y="86" type="curve"/>
			<point x="467" y="86" type="line"/>
			<point x="435" y="213" type="line"/>
			<point x="400" y="156"/>
			<point x="360" y="130"/>
			<point x="315" y="130" type="curve" smooth="yes"/>
			<point x="287" y="130"/>
			<point x="270" y="144"/>
			<point x="263" y="172" type="curve" smooth="yes"/>
			<point x="222" y="338"/>
			<point x="175" y="523"/>
			<point x="134" y="689" type="curve" smooth="yes"/>
			<point x="132" y="696"/>
			<point x="127" y="700"/>
			<point x="120" y="700" type="curve" smooth="yes"/>
			<point x="70" y="700"/>
			<point x="21" y="700"/>
			<point x="-29" y="700" type="curve"/>
			<point x="-21" y="667"/>
			<point x="-12" y="633"/>
			<point x="-4" y="600" type="curve" smooth="yes"/>
			<point x="33" y="453"/>
			<point x="70" y="305"/>
			<point x="107" y="158" type="curve" smooth="yes"/>
			<point x="133" y="55"/>
			<point x="197" y="-10"/>
		</contour>
	</outline>
	<anchor name="top" x="208.4745034387" y="711"/>
	<anchor name="ogonek" x="627.2740336439" y="0"/>
	<anchor name="bottom" x="386.5241033066" y="-1"/>
	<anchor name="ring" x="208.4745034387" y="711"/>
	<anchor name="horn" x="393.2252697288" y="700"/>
	<anchor name="hook" x="203.7231798467" y="730"/>
	<anchor name="tildeviet" x="169.7242944505" y="714"/>
</glyph>
<glyph name="V" format="2">
	<unicode hex="0056"/>
	<advance width="600"/>
	<outline>
		<contour>
			<point x="72" y="700" type="curve" smooth="yes"/>
			<point x="31" y="700"/>
			<point x="-16" y="700"/>
			<point x="-64" y="700" type="curve"/>
			<point x="-39" y="647"/>
			<point x="-14" y="596"/>
			<point x="11" y="547" type="curve" smooth="yes"/>
			<point x="111" y="335"/>
			<point x="198" y="152"/>
			<point x="258" y="27" type="curve" smooth="yes"/>
			<point x="269" y="4"/>
			<point x="274" y="0"/>
			<point x="293" y="0" type="curve" smooth="yes"/>
			<point x="352" y="0"/>
			<point x="425" y="0"/>
			<point x="509" y="0" type="curve"/>
			<point x="506" y="104"/>
			<point x="496" y="602"/>
			<point x="493" y="687" type="curve" smooth="yes"/>
			<point x="492" y="697"/>
			<point x="485" y="700"/>
			<point x="481" y="700" type="curve" smooth="yes"/>
			<point x="434" y="700"/>
			<point x="387" y="700"/>
			<point x="340" y="700" type="curve"/>
			<point x="347" y="476"/>
			<point x="347" y="288"/>
			<point x="369" y="110" type="curve"/>
			<point x="395" y="135" type="line"/>
			<point x="315" y="135" type="line"/>
			<point x="353" y="110" type="line"/>
			<point x="309" y="238"/>
			<point x="202" y="460"/>
			<point x="105" y="664" type="curve" smooth="yes"/>
			<point x="90" y="697"/>
			<point x="85" y="700"/>
		</contour>
	</outline>
</glyph>
<glyph name="W" format="2">
	<unicode hex="0057"/>
	<advance width="600"/>
	<outline>
		<contour>
			<point x="-72" y="700" type="curve"/>
			<point x="-61" y="670"/>
			<point x="-49" y="636"/>
			<point x="-37" y="600" type="curve" smooth="yes"/>
			<point x="49" y="360"/>
			<point x="147" y="85"/>
			<point x="175" y="10" type="curve" smooth="yes"/>
			<point x="178" y="4"/>
			<point x="183" y="0"/>
			<point x="189" y="0" type="curve" smooth="yes"/>
			<point x="240" y="0"/>
			<point x="292" y="0"/>
			<point x="346" y="0" type="curve"/>
			<point x="343" y="24"/>
			<point x="319" y="208"/>
			<point x="276" y="416" type="curve"/>
			<point x="257" y="391" type="line"/>
			<point x="326" y="391" type="line"/>
			<point x="293" y="416" type="line"/>
			<point x="355" y="209"/>
			<point x="402" y="87"/>
			<point x="430" y="11" type="curve" smooth="yes"/>
			<point x="433" y="4"/>
			<point x="438" y="0"/>
			<point x="444" y="0" type="curve" smooth="yes"/>
			<point x="493" y="0"/>
			<point x="544" y="0"/>
			<point x="596" y="0" type="curve"/>
			<point x="563" y="229"/>
			<point x="502" y="663"/>
			<point x="499" y="685" type="curve"/>
			<point x="498" y="695"/>
			<point x="492" y="700"/>
			<point x="484" y="700" type="curve"/>
			<point x="441" y="700"/>
			<point x="401" y="700"/>
			<point x="358" y="700" type="curve"/>
			<point x="395" y="522"/>
			<point x="411" y="443"/>
			<point x="481" y="127" type="curve"/>
			<point x="505" y="135" type="line"/>
			<point x="438" y="135" type="line"/>
			<point x="461" y="127" type="line"/>
			<point x="404" y="289"/>
			<point x="317" y="535"/>
			<point x="308" y="560" type="curve"/>
			<point x="306" y="567"/>
			<point x="300" y="571"/>
			<point x="294" y="571" type="curve"/>
			<point x="189" y="571" type="line"/>
			<point x="207" y="439"/>
			<point x="226" y="289"/>
			<point x="257" y="127" type="curve"/>
			<point x="275" y="135" type="line"/>
			<point x="208" y="135" type="line"/>
			<point x="237" y="127" type="line"/>
			<point x="150" y="432"/>
			<point x="80" y="661"/>
			<point x="72" y="686" type="curve"/>
			<point x="69" y="695"/>
			<point x="62" y="700"/>
			<point x="54" y="700" type="curve"/>
			<point x="11" y="700"/>
			<point x="-29" y="700"/>
		</contour>
	</outline>
	<anchor name="top" x="208.7248517523" y="711"/>
</glyph>
<glyph name="X" format="2">
	<unicode hex="0058"/>
	<advance width="600"/>
	<outline>
		<contour>
			<point x="513" y="0" type="curve" smooth="yes"/>
			<point x="564" y="0"/>
			<point x="619" y="0"/>
			<point x="671" y="0" type="curve"/>
			<point x="571" y="128"/>
			<point x="471" y="257"/>
			<point x="371" y="385" type="curve"/>
			<point x="291" y="437" type="line"/>
			<point x="228" y="524"/>
			<point x="168" y="607"/>
			<point x="110" y="689" type="curve"/>
			<point x="104" y="696"/>
			<point x="99" y="700"/>
			<point x="89" y="700" type="curve" smooth="yes"/>
			<point x="35" y="701"/>
			<point x="-13" y="700"/>
			<point x="-67" y="700" type="curve"/>
			<point x="32" y="573"/>
			<point x="131" y="446"/>
			<point x="230" y="319" type="curve"/>
			<point x="317" y="259" type="line"/>
			<point x="377" y="175"/>
			<point x="457" y="61"/>
			<point x="495" y="9" type="curve" smooth="yes"/>
			<point x="500" y="3"/>
			<point x="507" y="0"/>
		</contour>
		<contour>
			<point x="477" y="700" type="curve"/>
			<point x="427" y="700"/>
			<point x="376" y="700"/>
			<point x="326" y="700" type="curve"/>
			<point x="291" y="568"/>
			<point x="291" y="556"/>
			<point x="309" y="442" type="curve"/>
			<point x="249" y="442" type="line"/>
			<point x="378" y="318" type="line"/>
			<point x="416" y="440"/>
			<point x="481" y="651"/>
			<point x="491" y="681" type="curve" smooth="yes"/>
			<point x="495" y="691"/>
			<point x="487" y="700"/>
		</contour>
		<contour>
			<point x="122" y="0" type="curve" smooth="yes"/>
			<point x="172" y="0"/>
			<point x="225" y="0"/>
			<point x="275" y="0" type="curve"/>
			<point x="312" y="135"/>
			<point x="314" y="146"/>
			<point x="300" y="254" type="curve"/>
			<point x="360" y="254" type="line"/>
			<point x="223" y="382" type="line"/>
			<point x="185" y="260"/>
			<point x="119" y="49"/>
			<point x="109" y="19" type="curve" smooth="yes"/>
			<point x="105" y="9"/>
			<point x="114" y="0"/>
		</contour>
	</outline>
</glyph>
<glyph name="Y" format="2">
	<unicode hex="0059"/>
	<advance width="600"/>
	<outline>
		<contour>
			<point x="468" y="0" type="curve"/>
			<point x="459" y="33"/>
			<point x="451" y="67"/>
			<point x="443" y="100" type="curve"/>
			<point x="427" y="163"/>
			<point x="408" y="237"/>
			<point x="393" y="300" type="curve"/>
			<point x="233" y="300" type="line"/>
			<point x="256" y="207"/>
			<point x="282" y="104"/>
			<point x="305" y="11" type="curve"/>
			<point x="307" y="4"/>
			<point x="312" y="0"/>
			<point x="319" y="0" type="curve"/>
			<point x="369" y="0"/>
			<point x="418" y="0"/>
		</contour>
		<contour>
			<point x="-73" y="700" type="curve"/>
			<point x="36" y="547"/>
			<point x="241" y="260"/>
			<point x="256" y="239" type="curve"/>
			<point x="266" y="225"/>
			<point x="270" y="225"/>
			<point x="396" y="225" type="curve"/>
			<point x="430" y="379"/>
			<point x="461" y="532"/>
			<point x="489" y="668" type="curve" smooth="yes"/>
			<point x="495" y="693"/>
			<point x="488" y="700"/>
			<point x="479" y="700" type="curve" smooth="yes"/>
			<point x="429" y="700"/>
			<point x="381" y="700"/>
			<point x="329" y="700" type="curve"/>
			<point x="310" y="534"/>
			<point x="306" y="483"/>
			<point x="314" y="325" type="curve"/>
			<point x="344" y="358" type="line"/>
			<point x="261" y="358" type="line"/>
			<point x="308" y="325" type="line"/>
			<point x="236" y="475"/>
			<point x="164" y="593"/>
			<point x="112" y="673" type="curve" smooth="yes"/>
			<point x="97" y="696"/>
			<point x="91" y="700"/>
			<point x="75" y="700" type="curve" smooth="yes"/>
			<point x="31" y="700"/>
			<point x="-20" y="700"/>
		</contour>
	</outline>
	<anchor name="top" x="209.7248517523" y="711"/>
	<anchor name="hook" x="204.9735281604" y="730"/>
	<anchor name="bottom" x="387.7744516203" y="-1"/>
	<anchor name="dot" x="432.5363639481" y="-172"/>
</glyph>
<glyph name="Z" format="2">
	<unicode hex="005A"/>
	<advance width="600"/>
	<outline>
		<contour>
			<point x="643" y="0" type="line"/>
			<point x="632" y="44"/>
			<point x="621" y="87"/>
			<point x="610" y="131" type="curve"/>
			<point x="608" y="138"/>
			<point x="603" y="142"/>
			<point x="596" y="142" type="curve" smooth="yes"/>
			<point x="502" y="142" type="line" smooth="yes"/>
			<point x="435" y="142"/>
			<point x="343" y="142"/>
			<point x="237" y="142" type="curve"/>
			<point x="260" y="116" type="line"/>
			<point x="242" y="188" type="line"/>
			<point x="226" y="152" type="line"/>
			<point x="273" y="178"/>
			<point x="305" y="200"/>
			<point x="333" y="249" type="curve" smooth="yes"/>
			<point x="389" y="346"/>
			<point x="446" y="442"/>
			<point x="503" y="539" type="curve"/>
			<point x="465" y="689" type="line" smooth="yes"/>
			<point x="463" y="696"/>
			<point x="458" y="700"/>
			<point x="451" y="700" type="curve"/>
			<point x="-38" y="700" type="line"/>
			<point x="-15" y="610"/>
			<point x="42" y="558"/>
			<point x="129" y="558" type="curve" smooth="yes"/>
			<point x="165" y="558" type="line" smooth="yes"/>
			<point x="212" y="558"/>
			<point x="256" y="558"/>
			<point x="362" y="558" type="curve"/>
			<point x="340" y="584" type="line"/>
			<point x="358" y="512" type="line"/>
			<point x="374" y="548" type="line"/>
			<point x="327" y="522"/>
			<point x="295" y="499"/>
			<point x="267" y="451" type="curve" smooth="yes"/>
			<point x="210" y="354"/>
			<point x="154" y="257"/>
			<point x="97" y="161" type="curve"/>
			<point x="135" y="11" type="line" smooth="yes"/>
			<point x="137" y="4"/>
			<point x="142" y="0"/>
			<point x="149" y="0" type="curve" smooth="yes"/>
		</contour>
		<contour>
			<point x="150" y="510" type="curve"/>
			<point x="145" y="528"/>
			<point x="137" y="560"/>
			<point x="133" y="579" type="curve" smooth="yes"/>
			<point x="111" y="666"/>
			<point x="74" y="700"/>
			<point x="-38" y="700" type="curve"/>
			<point x="-26" y="655"/>
			<point x="-4" y="565"/>
			<point x="7" y="521" type="curve" smooth="yes"/>
			<point x="9" y="514"/>
			<point x="14" y="510"/>
			<point x="21" y="510" type="curve"/>
			<point x="67" y="510"/>
			<point x="104" y="510"/>
		</contour>
	</outline>
	<anchor name="top" x="209.7248517523" y="711"/>
	<anchor name="bottom" x="390.5243819576" y="0"/>
</glyph>
<glyph name="bracketleft" format="2">
	<unicode hex="005B"/>
	<advance width="600"/>
	<outline>
		<contour>
			<point x="630" y="-130" type="line"/>
			<point x="619" y="-86"/>
			<point x="608" y="-43"/>
			<point x="597" y="1" type="curve" smooth="yes"/>
			<point x="596" y="8"/>
			<point x="591" y="12"/>
			<point x="584" y="12" type="curve" smooth="yes"/>
			<point x="440" y="12" type="line"/>
			<point x="390" y="210"/>
			<point x="340" y="410"/>
			<point x="290" y="608" type="curve"/>
			<point x="445" y="608" type="line"/>
			<point x="434" y="653"/>
			<point x="425" y="691"/>
			<point x="413" y="739" type="curve" smooth="yes"/>
			<point x="411" y="746"/>
			<point x="406" y="750"/>
			<point x="399" y="750" type="curve" smooth="yes"/>
			<point x="154" y="750" type="line" smooth="yes"/>
			<point x="134" y="750"/>
			<point x="115" y="750"/>
			<point x="95" y="750" type="curve"/>
			<point x="104" y="713"/>
			<point x="114" y="675"/>
			<point x="123" y="638" type="curve" smooth="yes"/>
			<point x="186" y="386"/>
			<point x="249" y="133"/>
			<point x="312" y="-119" type="curve" smooth="yes"/>
			<point x="314" y="-126"/>
			<point x="319" y="-130"/>
			<point x="326" y="-130" type="curve" smooth="yes"/>
		</contour>
	</outline>
</glyph>
<glyph name="backslash" format="2">
	<unicode hex="005C"/>
	<advance width="600"/>
	<outline>
		<contour>
			<point x="-49" y="750" type="curve"/>
			<point x="134" y="461"/>
			<point x="317" y="170"/>
			<point x="500" y="-119" type="curve"/>
			<point x="505" y="-127"/>
			<point x="512" y="-130"/>
			<point x="518" y="-130" type="curve" smooth="yes"/>
			<point x="568" y="-130"/>
			<point x="613" y="-130"/>
			<point x="663" y="-130" type="curve"/>
			<point x="640" y="-94"/>
			<point x="617" y="-57"/>
			<point x="594" y="-21" type="curve" smooth="yes"/>
			<point x="433" y="233"/>
			<point x="271" y="489"/>
			<point x="111" y="743" type="curve" smooth="yes"/>
			<point x="107" y="748"/>
			<point x="103" y="750"/>
			<point x="97" y="750" type="curve" smooth="yes"/>
			<point x="47" y="750"/>
			<point x="1" y="750"/>
		</contour>
	</outline>
</glyph>
<glyph name="asciicircum" format="2">
	<unicode hex="005E"/>
	<advance width="600"/>
	<outline>
		<contour>
			<point x="145" y="750" type="curve"/>
			<point x="120" y="609"/>
			<point x="86" y="432"/>
			<point x="77" y="387" type="curve" smooth="yes"/>
			<point x="75" y="372"/>
			<point x="75" y="368"/>
			<point x="76" y="364" type="curve" smooth="yes"/>
			<point x="78" y="358"/>
			<point x="82" y="355"/>
			<point x="88" y="355" type="curve" smooth="yes"/>
			<point x="226" y="355" type="line"/>
			<point x="243" y="452"/>
			<point x="255" y="516"/>
			<point x="275" y="632" type="curve"/>
			<point x="240" y="604" type="line"/>
			<point x="326" y="604" type="line" smooth="yes"/>
			<point x="294" y="620" type="line"/>
			<point x="361" y="521"/>
			<point x="395" y="467"/>
			<point x="462" y="368" type="curve" smooth="yes"/>
			<point x="470" y="357"/>
			<point x="473" y="356"/>
			<point x="483" y="356" type="curve" smooth="yes"/>
			<point x="529" y="356"/>
			<point x="576" y="356"/>
			<point x="622" y="356" type="curve"/>
			<point x="527" y="498"/>
			<point x="463" y="593"/>
			<point x="368" y="735" type="curve" smooth="yes"/>
			<point x="362" y="745"/>
			<point x="353" y="750"/>
			<point x="343" y="750" type="curve" smooth="yes"/>
			<point x="277" y="750"/>
			<point x="211" y="750"/>
		</contour>
	</outline>
</glyph>
<glyph name="grave" format="2">
	<unicode hex="0060"/>
	<advance width="600"/>
	<outline>
		<contour>
			<point x="288" y="750" type="curve"/>
			<point x="214" y="750"/>
			<point x="177" y="750"/>
			<point x="105" y="750" type="curve" smooth="yes"/>
			<point x="97" y="750"/>
			<point x="96" y="741"/>
			<point x="102" y="734" type="curve" smooth="yes"/>
			<point x="148" y="673"/>
			<point x="242" y="549"/>
			<point x="308" y="469" type="curve" smooth="yes"/>
			<point x="313" y="464"/>
			<point x="320" y="462"/>
			<point x="331" y="462" type="curve" smooth="yes"/>
			<point x="382" y="462"/>
			<point x="420" y="462"/>
			<point x="467" y="462" type="curve"/>
			<point x="415" y="546"/>
			<point x="340" y="664"/>
		</contour>
	</outline>
</glyph>
<glyph name="b" format="2">
	<unicode hex="0062"/>
	<advance width="600"/>
	<outline>
		<contour>
			<point x="273" y="0" type="curve" smooth="yes"/>
			<point x="274" y="0"/>
			<point x="285" y="109"/>
			<point x="285" y="110" type="curve"/>
			<point x="232" y="324"/>
			<point x="181" y="525"/>
			<point x="128" y="739" type="curve"/>
			<point x="126" y="746"/>
			<point x="121" y="750"/>
			<point x="114" y="750" type="curve"/>
			<point x="66" y="750"/>
			<point x="23" y="750"/>
			<point x="-25" y="750" type="curve"/>
			<point x="-13" y="701"/>
			<point x="-1" y="652"/>
			<point x="12" y="603" type="curve"/>
			<point x="61" y="405"/>
			<point x="111" y="208"/>
			<point x="160" y="11" type="curve"/>
			<point x="162" y="4"/>
			<point x="167" y="0"/>
			<point x="174" y="0" type="curve"/>
			<point x="196" y="0"/>
			<point x="251" y="0"/>
		</contour>
		<contour>
			<point x="258" y="84" type="line"/>
			<point x="302" y="84" type="line"/>
			<point x="352" y="23"/>
			<point x="416" y="-10"/>
			<point x="477" y="-10" type="curve" smooth="yes"/>
			<point x="577" y="-10"/>
			<point x="622" y="61"/>
			<point x="592" y="184" type="curve" smooth="yes"/>
			<point x="548" y="358" type="line" smooth="yes"/>
			<point x="517" y="480"/>
			<point x="436" y="552"/>
			<point x="336" y="552" type="curve" smooth="yes"/>
			<point x="276" y="552"/>
			<point x="231" y="518"/>
			<point x="215" y="461" type="curve"/>
			<point x="186" y="461" type="line"/>
			<point x="219" y="331" type="line"/>
			<point x="241" y="377"/>
			<point x="284" y="407"/>
			<point x="322" y="407" type="curve" smooth="yes"/>
			<point x="342" y="407"/>
			<point x="359" y="402"/>
			<point x="373" y="391" type="curve" smooth="yes"/>
			<point x="386" y="380"/>
			<point x="397" y="361"/>
			<point x="404" y="333" type="curve" smooth="yes"/>
			<point x="435" y="209" type="line" smooth="yes"/>
			<point x="447" y="161"/>
			<point x="431" y="135"/>
			<point x="390" y="135" type="curve" smooth="yes"/>
			<point x="351" y="135"/>
			<point x="295" y="156"/>
			<point x="248" y="198" type="curve"/>
		</contour>
	</outline>
</glyph>
<glyph name="c" format="2">
	<unicode hex="0063"/>
	<advance width="600"/>
	<outline>
		<contour>
			<point x="261" y="552" type="curve"/>
			<point x="90" y="552"/>
			<point x="19" y="453"/>
			<point x="54" y="315" type="curve" smooth="yes"/>
			<point x="76" y="225" type="line" smooth="yes"/>
			<point x="111" y="86"/>
			<point x="234" y="-12"/>
			<point x="399" y="-12" type="curve"/>
			<point x="499" y="-12"/>
			<point x="566" y="14"/>
			<point x="577" y="29" type="curve" smooth="yes"/>
			<point x="579" y="31"/>
			<point x="579" y="34"/>
			<point x="578" y="37" type="curve"/>
			<point x="568" y="79"/>
			<point x="558" y="119"/>
			<point x="547" y="161" type="curve"/>
			<point x="527" y="161" type="line"/>
			<point x="480" y="140"/>
			<point x="435" y="128"/>
			<point x="379" y="128" type="curve" smooth="yes"/>
			<point x="331" y="128"/>
			<point x="298" y="138"/>
			<point x="274" y="157" type="curve" smooth="yes"/>
			<point x="251" y="175"/>
			<point x="238" y="200"/>
			<point x="229" y="233" type="curve" smooth="yes"/>
			<point x="211" y="305" type="line" smooth="yes"/>
			<point x="191" y="384"/>
			<point x="227" y="412"/>
			<point x="307" y="412" type="curve" smooth="yes"/>
			<point x="363" y="412"/>
			<point x="414" y="400"/>
			<point x="473" y="379" type="curve"/>
			<point x="493" y="379" type="line"/>
			<point x="482" y="421"/>
			<point x="472" y="461"/>
			<point x="462" y="503" type="curve"/>
			<point x="461" y="506"/>
			<point x="459" y="509"/>
			<point x="457" y="511" type="curve" smooth="yes"/>
			<point x="437" y="526"/>
			<point x="358" y="552"/>
		</contour>
	</outline>
	<anchor name="bottom" x="402.268739276" y="1"/>
	<anchor name="top" x="264.7304247712" y="551"/>
</glyph>
<glyph name="d" format="2">
	<unicode hex="0064"/>
	<advance width="600"/>
	<outline>
		<contour>
			<point x="172" y="552" type="curve" smooth="yes"/>
			<point x="72" y="552"/>
			<point x="27" y="481"/>
			<point x="58" y="358" type="curve" smooth="yes"/>
			<point x="102" y="184" type="line" smooth="yes"/>
			<point x="132" y="62"/>
			<point x="213" y="-10"/>
			<point x="313" y="-10" type="curve" smooth="yes"/>
			<point x="373" y="-10"/>
			<point x="417" y="22"/>
			<point x="433" y="77" type="curve"/>
			<point x="468" y="77" type="line"/>
			<point x="437" y="201" type="line"/>
			<point x="410" y="153"/>
			<point x="370" y="135"/>
			<point x="328" y="135" type="curve" smooth="yes"/>
			<point x="308" y="135"/>
			<point x="291" y="140"/>
			<point x="277" y="151" type="curve" smooth="yes"/>
			<point x="263" y="162"/>
			<point x="252" y="181"/>
			<point x="245" y="209" type="curve" smooth="yes"/>
			<point x="214" y="333" type="line" smooth="yes"/>
			<point x="202" y="381"/>
			<point x="219" y="407"/>
			<point x="260" y="407" type="curve" smooth="yes"/>
			<point x="302" y="407"/>
			<point x="355" y="386"/>
			<point x="401" y="345" type="curve"/>
			<point x="370" y="468" type="line"/>
			<point x="335" y="468" type="line"/>
			<point x="295" y="519"/>
			<point x="239" y="552"/>
		</contour>
		<contour>
			<point x="424" y="750" type="curve"/>
			<point x="378" y="750"/>
			<point x="331" y="750"/>
			<point x="285" y="750" type="curve"/>
			<point x="293" y="717"/>
			<point x="302" y="683"/>
			<point x="310" y="650" type="curve" smooth="yes"/>
			<point x="363" y="437"/>
			<point x="417" y="224"/>
			<point x="470" y="11" type="curve" smooth="yes"/>
			<point x="472" y="4"/>
			<point x="477" y="0"/>
			<point x="484" y="0" type="curve"/>
			<point x="530" y="0"/>
			<point x="577" y="0"/>
			<point x="623" y="0" type="curve"/>
			<point x="610" y="50"/>
			<point x="598" y="99"/>
			<point x="585" y="149" type="curve"/>
			<point x="536" y="345"/>
			<point x="487" y="543"/>
			<point x="438" y="739" type="curve"/>
			<point x="436" y="746"/>
			<point x="431" y="750"/>
		</contour>
	</outline>
	<anchor name="caronslovak" x="497.7262450071" y="711"/>
	<anchor name="bottom" x="364.5257752123" y="0"/>
</glyph>
<glyph name="f" format="2">
	<unicode hex="0066"/>
	<advance width="600"/>
	<outline>
		<contour>
			<point x="29" y="510" type="line"/>
			<point x="39" y="468"/>
			<point x="48" y="433"/>
			<point x="58" y="391" type="curve"/>
			<point x="60" y="384"/>
			<point x="65" y="380"/>
			<point x="72" y="380" type="curve"/>
			<point x="521" y="380" type="line"/>
			<point x="511" y="422"/>
			<point x="502" y="457"/>
			<point x="491" y="499" type="curve"/>
			<point x="490" y="506"/>
			<point x="485" y="510"/>
			<point x="478" y="510" type="curve"/>
		</contour>
		<contour>
			<point x="419" y="11" type="curve"/>
			<point x="385" y="147"/>
			<point x="316" y="420"/>
			<point x="282" y="556" type="curve" smooth="yes"/>
			<point x="273" y="591"/>
			<point x="272" y="613"/>
			<point x="281" y="625" type="curve" smooth="yes"/>
			<point x="290" y="636"/>
			<point x="307" y="640"/>
			<point x="339" y="640" type="curve" smooth="yes"/>
			<point x="390" y="640"/>
			<point x="427" y="634"/>
			<point x="470" y="625" type="curve"/>
			<point x="490" y="625" type="line"/>
			<point x="480" y="664"/>
			<point x="471" y="702"/>
			<point x="461" y="739" type="curve"/>
			<point x="461" y="742"/>
			<point x="459" y="745"/>
			<point x="456" y="747" type="curve" smooth="yes"/>
			<point x="444" y="757"/>
			<point x="389" y="770"/>
			<point x="310" y="770" type="curve" smooth="yes"/>
			<point x="163" y="770"/>
			<point x="98" y="692"/>
			<point x="132" y="558" type="curve" smooth="yes"/>
			<point x="174" y="389"/>
			<point x="204" y="269"/>
			<point x="246" y="100" type="curve"/>
			<point x="255" y="67"/>
			<point x="263" y="33"/>
			<point x="271" y="0" type="curve"/>
			<point x="319" y="0"/>
			<point x="362" y="0"/>
			<point x="410" y="0" type="curve"/>
			<point x="416" y="0"/>
			<point x="420" y="5"/>
		</contour>
	</outline>
</glyph>
<glyph name="g" format="2">
	<unicode hex="0067"/>
	<advance width="600"/>
	<outline>
		<contour>
			<point x="114" y="75" type="curve" smooth="yes"/>
			<point x="127" y="24"/>
			<point x="183" y="-20"/>
			<point x="227" y="-20" type="curve"/>
			<point x="410" y="-20" type="line" smooth="yes"/>
			<point x="443" y="-20"/>
			<point x="457" y="-30"/>
			<point x="466" y="-65" type="curve" smooth="yes"/>
			<point x="473" y="-94" type="line" smooth="yes"/>
			<point x="478" y="-112"/>
			<point x="478" y="-127"/>
			<point x="472" y="-135" type="curve" smooth="yes"/>
			<point x="467" y="-142"/>
			<point x="457" y="-145"/>
			<point x="441" y="-145" type="curve" smooth="yes"/>
			<point x="287" y="-145" type="line" smooth="yes"/>
			<point x="254" y="-145"/>
			<point x="239" y="-135"/>
			<point x="231" y="-101" type="curve" smooth="yes"/>
			<point x="223" y="-68" type="line" smooth="yes"/>
			<point x="216" y="-42"/>
			<point x="219" y="-27"/>
			<point x="241" y="-16" type="curve"/>
			<point x="153" y="30" type="line"/>
			<point x="163" y="-10" type="line"/>
			<point x="103" y="-19"/>
			<point x="72" y="-59"/>
			<point x="87" y="-118" type="curve" smooth="yes"/>
			<point x="92" y="-136" type="line" smooth="yes"/>
			<point x="111" y="-214"/>
			<point x="173" y="-250"/>
			<point x="276" y="-250" type="curve" smooth="yes"/>
			<point x="485" y="-250" type="line" smooth="yes"/>
			<point x="604" y="-250"/>
			<point x="645" y="-189"/>
			<point x="621" y="-95" type="curve" smooth="yes"/>
			<point x="611" y="-55" type="line" smooth="yes"/>
			<point x="588" y="39"/>
			<point x="515" y="105"/>
			<point x="396" y="105" type="curve" smooth="yes"/>
			<point x="273" y="105" type="line" smooth="yes"/>
			<point x="260" y="105"/>
			<point x="255" y="109"/>
			<point x="252" y="122" type="curve" smooth="yes"/>
			<point x="247" y="142"/>
			<point x="242" y="161"/>
			<point x="237" y="181" type="curve"/>
			<point x="165" y="206" type="line"/>
			<point x="173" y="172" type="line"/>
			<point x="119" y="155"/>
			<point x="102" y="121"/>
		</contour>
		<contour>
			<point x="268" y="430" type="line"/>
			<point x="289" y="412"/>
			<point x="298" y="397"/>
			<point x="304" y="373" type="curve" smooth="yes"/>
			<point x="309" y="352" type="line" smooth="yes"/>
			<point x="320" y="309"/>
			<point x="301" y="289"/>
			<point x="243" y="289" type="curve" smooth="yes"/>
			<point x="208" y="289"/>
			<point x="182" y="296"/>
			<point x="165" y="310" type="curve" smooth="yes"/>
			<point x="152" y="320"/>
			<point x="144" y="332"/>
			<point x="140" y="349" type="curve" smooth="yes"/>
			<point x="136" y="365" type="line" smooth="yes"/>
			<point x="126" y="406"/>
			<point x="151" y="425"/>
			<point x="209" y="425" type="curve" smooth="yes"/>
			<point x="311" y="425"/>
			<point x="384" y="425"/>
			<point x="471" y="425" type="curve" smooth="yes"/>
			<point x="477" y="425"/>
			<point x="481" y="430"/>
			<point x="479" y="436" type="curve" smooth="yes"/>
			<point x="470" y="474"/>
			<point x="460" y="512"/>
			<point x="451" y="550" type="curve"/>
			<point x="360" y="550"/>
			<point x="269" y="550"/>
			<point x="178" y="550" type="curve"/>
			<point x="26" y="550"/>
			<point x="-38" y="482"/>
			<point x="-10" y="371" type="curve" smooth="yes"/>
			<point x="-5" y="350" type="line" smooth="yes"/>
			<point x="23" y="239"/>
			<point x="119" y="176"/>
			<point x="271" y="176" type="curve"/>
			<point x="424" y="176"/>
			<point x="484" y="228"/>
			<point x="463" y="312" type="curve" smooth="yes"/>
			<point x="460" y="326" type="line" smooth="yes"/>
			<point x="449" y="371"/>
			<point x="421" y="396"/>
			<point x="370" y="409" type="curve"/>
			<point x="363" y="439" type="line"/>
		</contour>
	</outline>
	<anchor name="top" x="191.7220652429" y="551"/>
</glyph>
<glyph name="h" format="2">
	<unicode hex="0068"/>
	<advance width="600"/>
	<outline>
		<contour>
			<point x="175" y="0" type="curve"/>
			<point x="225" y="0"/>
			<point x="264" y="0"/>
			<point x="314" y="0" type="curve"/>
			<point x="252" y="246"/>
			<point x="190" y="493"/>
			<point x="129" y="739" type="curve" smooth="yes"/>
			<point x="127" y="746"/>
			<point x="122" y="750"/>
			<point x="115" y="750" type="curve"/>
			<point x="70" y="750"/>
			<point x="31" y="750"/>
			<point x="-24" y="750" type="curve"/>
			<point x="-17" y="722"/>
			<point x="-8" y="688"/>
			<point x="1" y="652" type="curve" smooth="yes"/>
			<point x="54" y="439"/>
			<point x="108" y="224"/>
			<point x="161" y="11" type="curve" smooth="yes"/>
			<point x="163" y="4"/>
			<point x="168" y="0"/>
		</contour>
		<contour>
			<point x="215" y="328" type="line"/>
			<point x="239" y="380"/>
			<point x="297" y="407"/>
			<point x="340" y="407" type="curve" smooth="yes"/>
			<point x="371" y="407"/>
			<point x="385" y="393"/>
			<point x="393" y="363" type="curve"/>
			<point x="422" y="246"/>
			<point x="452" y="128"/>
			<point x="481" y="11" type="curve" smooth="yes"/>
			<point x="483" y="4"/>
			<point x="488" y="0"/>
			<point x="495" y="0" type="curve"/>
			<point x="545" y="0"/>
			<point x="584" y="0"/>
			<point x="634" y="0" type="curve"/>
			<point x="626" y="33"/>
			<point x="617" y="66"/>
			<point x="609" y="99" type="curve" smooth="yes"/>
			<point x="584" y="199"/>
			<point x="560" y="297"/>
			<point x="535" y="394" type="curve" smooth="yes"/>
			<point x="510" y="493"/>
			<point x="440" y="552"/>
			<point x="354" y="552" type="curve" smooth="yes"/>
			<point x="288" y="552"/>
			<point x="243" y="512"/>
			<point x="220" y="454" type="curve"/>
			<point x="183" y="454" type="line"/>
		</contour>
	</outline>
	<anchor name="top" x="51.2252697288" y="730"/>
	<anchor name="bottom" x="397.776123526" y="0"/>
</glyph>
<glyph name="k" format="2">
	<unicode hex="006B"/>
	<advance width="600"/>
	<outline>
		<contour>
			<point x="314" y="0" type="curve"/>
			<point x="252" y="246"/>
			<point x="190" y="493"/>
			<point x="129" y="739" type="curve"/>
			<point x="127" y="746"/>
			<point x="122" y="750"/>
			<point x="115" y="750" type="curve"/>
			<point x="70" y="750"/>
			<point x="31" y="750"/>
			<point x="-24" y="750" type="curve"/>
			<point x="-17" y="722"/>
			<point x="-8" y="688"/>
			<point x="1" y="652" type="curve" smooth="yes"/>
			<point x="54" y="439"/>
			<point x="108" y="224"/>
			<point x="161" y="11" type="curve" smooth="yes"/>
			<point x="163" y="4"/>
			<point x="168" y="0"/>
			<point x="175" y="0" type="curve" smooth="yes"/>
			<point x="225" y="0"/>
			<point x="264" y="0"/>
		</contour>
		<contour>
			<point x="518" y="0" type="curve" smooth="yes"/>
			<point x="596" y="0"/>
			<point x="632" y="0"/>
			<point x="681" y="0" type="curve"/>
			<point x="570" y="110"/>
			<point x="466" y="216"/>
			<point x="354" y="329" type="curve"/>
			<point x="290" y="214" type="line"/>
			<point x="333" y="214" type="line"/>
			<point x="353" y="167"/>
			<point x="371" y="138"/>
			<point x="404" y="102" type="curve" smooth="yes"/>
			<point x="437" y="66"/>
			<point x="470" y="29"/>
			<point x="483" y="15" type="curve" smooth="yes"/>
			<point x="494" y="3"/>
			<point x="501" y="0"/>
		</contour>
		<contour>
			<point x="214" y="321" type="line"/>
			<point x="261" y="131" type="line"/>
			<point x="337" y="252"/>
			<point x="417" y="376"/>
			<point x="506" y="516" type="curve" smooth="yes"/>
			<point x="511" y="525"/>
			<point x="511" y="527"/>
			<point x="510" y="531" type="curve" smooth="yes"/>
			<point x="509" y="536"/>
			<point x="504" y="540"/>
			<point x="498" y="540" type="curve" smooth="yes"/>
			<point x="332" y="540" type="line"/>
			<point x="311" y="501"/>
			<point x="300" y="478"/>
			<point x="284" y="449" type="curve" smooth="yes"/>
			<point x="265" y="412"/>
			<point x="254" y="379"/>
			<point x="254" y="321" type="curve"/>
		</contour>
	</outline>
	<anchor name="bottom" x="422.0261931887" y="-1"/>
</glyph>
<glyph name="l" format="2">
	<unicode hex="006C"/>
	<advance width="600"/>
	<outline>
		<contour>
			<point x="-44" y="750" type="curve"/>
			<point x="-34" y="710"/>
			<point x="-24" y="671"/>
			<point x="-14" y="631" type="curve" smooth="yes"/>
			<point x="-12" y="624"/>
			<point x="-7" y="620"/>
			<point x="0" y="620" type="curve" smooth="yes"/>
			<point x="50" y="620"/>
			<point x="101" y="620"/>
			<point x="151" y="620" type="curve"/>
			<point x="169" y="620" type="line"/>
			<point x="207" y="465"/>
			<point x="247" y="309"/>
			<point x="285" y="154" type="curve" smooth="yes"/>
			<point x="311" y="50"/>
			<point x="373" y="0"/>
			<point x="489" y="0" type="curve" smooth="yes"/>
			<point x="537" y="0"/>
			<point x="585" y="0"/>
			<point x="633" y="0" type="curve"/>
			<point x="640" y="0"/>
			<point x="643" y="4"/>
			<point x="641" y="11" type="curve"/>
			<point x="631" y="51"/>
			<point x="621" y="90"/>
			<point x="611" y="130" type="curve"/>
			<point x="591" y="130" type="line"/>
			<point x="554" y="130"/>
			<point x="511" y="130"/>
			<point x="471" y="130" type="curve" smooth="yes"/>
			<point x="459" y="130"/>
			<point x="452" y="132"/>
			<point x="446" y="137" type="curve" smooth="yes"/>
			<point x="439" y="142"/>
			<point x="437" y="148"/>
			<point x="435" y="157" type="curve" smooth="yes"/>
			<point x="386" y="351"/>
			<point x="337" y="545"/>
			<point x="289" y="739" type="curve" smooth="yes"/>
			<point x="287" y="746"/>
			<point x="282" y="750"/>
			<point x="275" y="750" type="curve" smooth="yes"/>
			<point x="169" y="750"/>
			<point x="62" y="750"/>
		</contour>
	</outline>
	<anchor name="top" x="216.2252697288" y="730"/>
	<anchor name="bottom" x="453.2759842005" y="2"/>
	<anchor name="dot" x="513.7482584316" y="400"/>
	<anchor name="caronslovak" x="440.9793798302" y="671"/>
	<anchor name="slash" x="310.4993033726" y="385"/>
</glyph>
<glyph name="p" format="2">
	<unicode hex="0070"/>
	<advance width="600"/>
	<outline>
		<contour>
			<point x="70" y="540"/>
			<point x="27" y="540"/>
			<point x="-21" y="540" type="curve"/>
			<point x="-14" y="511"/>
			<point x="-6" y="478"/>
			<point x="4" y="439" type="curve" smooth="yes"/>
			<point x="56" y="230"/>
			<point x="109" y="20"/>
			<point x="161" y="-189" type="curve" smooth="yes"/>
			<point x="163" y="-196"/>
			<point x="168" y="-200"/>
			<point x="175" y="-200" type="curve"/>
			<point x="223" y="-200"/>
			<point x="266" y="-200"/>
			<point x="314" y="-200" type="curve"/>
			<point x="253" y="43"/>
			<point x="192" y="286"/>
			<point x="132" y="529" type="curve" smooth="yes"/>
			<point x="130" y="536"/>
			<point x="125" y="540"/>
			<point x="118" y="540" type="curve"/>
		</contour>
		<contour>
			<point x="288" y="552" type="curve" smooth="yes"/>
			<point x="228" y="552"/>
			<point x="182" y="518"/>
			<point x="167" y="461" type="curve"/>
			<point x="138" y="461" type="line"/>
			<point x="170" y="331" type="line"/>
			<point x="193" y="377"/>
			<point x="235" y="407"/>
			<point x="273" y="407" type="curve" smooth="yes"/>
			<point x="293" y="407"/>
			<point x="310" y="402"/>
			<point x="324" y="391" type="curve" smooth="yes"/>
			<point x="338" y="380"/>
			<point x="349" y="361"/>
			<point x="356" y="333" type="curve" smooth="yes"/>
			<point x="387" y="209" type="line" smooth="yes"/>
			<point x="399" y="161"/>
			<point x="382" y="135"/>
			<point x="341" y="135" type="curve" smooth="yes"/>
			<point x="301" y="135"/>
			<point x="249" y="153"/>
			<point x="206" y="184" type="curve"/>
			<point x="234" y="72" type="line"/>
			<point x="264" y="72" type="line"/>
			<point x="310" y="25"/>
			<point x="373" y="-10"/>
			<point x="429" y="-10" type="curve" smooth="yes"/>
			<point x="529" y="-10"/>
			<point x="574" y="61"/>
			<point x="543" y="184" type="curve" smooth="yes"/>
			<point x="499" y="358" type="line" smooth="yes"/>
			<point x="469" y="480"/>
			<point x="388" y="552"/>
		</contour>
	</outline>
</glyph>
<glyph name="q" format="2">
	<unicode hex="0071"/>
	<advance width="600"/>
	<outline>
		<contour>
			<point x="289" y="540" type="curve"/>
			<point x="297" y="507"/>
			<point x="306" y="473"/>
			<point x="314" y="440" type="curve"/>
			<point x="366" y="231"/>
			<point x="419" y="20"/>
			<point x="471" y="-189" type="curve"/>
			<point x="473" y="-196"/>
			<point x="478" y="-200"/>
			<point x="485" y="-200" type="curve"/>
			<point x="533" y="-200"/>
			<point x="576" y="-200"/>
			<point x="624" y="-200" type="curve"/>
			<point x="612" y="-150"/>
			<point x="599" y="-101"/>
			<point x="587" y="-51" type="curve" smooth="yes"/>
			<point x="539" y="142"/>
			<point x="490" y="336"/>
			<point x="442" y="529" type="curve"/>
			<point x="440" y="536"/>
			<point x="435" y="540"/>
			<point x="428" y="540" type="curve"/>
			<point x="380" y="540"/>
			<point x="337" y="540"/>
		</contour>
		<contour>
			<point x="415" y="85" type="line"/>
			<point x="383" y="211" type="line"/>
			<point x="361" y="165"/>
			<point x="318" y="135"/>
			<point x="279" y="135" type="curve" smooth="yes"/>
			<point x="259" y="135"/>
			<point x="242" y="140"/>
			<point x="228" y="151" type="curve" smooth="yes"/>
			<point x="215" y="162"/>
			<point x="204" y="181"/>
			<point x="197" y="209" type="curve" smooth="yes"/>
			<point x="166" y="333" type="line" smooth="yes"/>
			<point x="154" y="381"/>
			<point x="170" y="407"/>
			<point x="211" y="407" type="curve" smooth="yes"/>
			<point x="251" y="407"/>
			<point x="304" y="389"/>
			<point x="346" y="358" type="curve"/>
			<point x="318" y="470" type="line"/>
			<point x="288" y="470" type="line"/>
			<point x="243" y="517"/>
			<point x="180" y="552"/>
			<point x="124" y="552" type="curve" smooth="yes"/>
			<point x="24" y="552"/>
			<point x="-21" y="481"/>
			<point x="9" y="358" type="curve" smooth="yes"/>
			<point x="53" y="184" type="line" smooth="yes"/>
			<point x="84" y="62"/>
			<point x="165" y="-10"/>
			<point x="265" y="-10" type="curve" smooth="yes"/>
			<point x="326" y="-10"/>
			<point x="373" y="25"/>
			<point x="387" y="85" type="curve"/>
		</contour>
	</outline>
</glyph>
<glyph name="s" format="2">
	<unicode hex="0073"/>
	<advance width="600"/>
	<outline>
		<contour>
			<point x="330" y="131" type="curve" smooth="yes"/>
			<point x="247" y="131"/>
			<point x="190" y="142"/>
			<point x="119" y="168" type="curve"/>
			<point x="99" y="168" type="line"/>
			<point x="110" y="124"/>
			<point x="121" y="79"/>
			<point x="131" y="37" type="curve" smooth="yes"/>
			<point x="132" y="34"/>
			<point x="133" y="32"/>
			<point x="135" y="30" type="curve" smooth="yes"/>
			<point x="151" y="17"/>
			<point x="246" y="-9"/>
			<point x="364" y="-9" type="curve" smooth="yes"/>
			<point x="522" y="-9"/>
			<point x="591" y="50"/>
			<point x="562" y="166" type="curve" smooth="yes"/>
			<point x="541" y="250"/>
			<point x="477" y="298"/>
			<point x="368" y="311" type="curve" smooth="yes"/>
			<point x="270" y="323" type="line" smooth="yes"/>
			<point x="230" y="328"/>
			<point x="214" y="340"/>
			<point x="209" y="361" type="curve" smooth="yes"/>
			<point x="202" y="391"/>
			<point x="218" y="409"/>
			<point x="293" y="409" type="curve" smooth="yes"/>
			<point x="351" y="409"/>
			<point x="390" y="403"/>
			<point x="452" y="386" type="curve"/>
			<point x="472" y="386" type="line"/>
			<point x="462" y="426"/>
			<point x="451" y="468"/>
			<point x="441" y="508" type="curve"/>
			<point x="440" y="513"/>
			<point x="438" y="516"/>
			<point x="436" y="518" type="curve" smooth="yes"/>
			<point x="421" y="530"/>
			<point x="359" y="549"/>
			<point x="257" y="549" type="curve" smooth="yes"/>
			<point x="110" y="549"/>
			<point x="29" y="484"/>
			<point x="58" y="368" type="curve" smooth="yes"/>
			<point x="77" y="292"/>
			<point x="139" y="244"/>
			<point x="239" y="231" type="curve" smooth="yes"/>
			<point x="346" y="217" type="line" smooth="yes"/>
			<point x="393" y="211"/>
			<point x="407" y="198"/>
			<point x="412" y="177" type="curve" smooth="yes"/>
			<point x="419" y="149"/>
			<point x="405" y="131"/>
		</contour>
	</outline>
	<anchor name="top" x="229.7304247712" y="551"/>
	<anchor name="bottom" x="371.7688786014" y="-1"/>
	<anchor name="dot" x="305.4811910613" y="540"/>
</glyph>
<glyph name="t" format="2">
	<unicode hex="0074"/>
	<advance width="600"/>
	<outline>
		<contour>
			<point x="12" y="540" type="line"/>
			<point x="23" y="498"/>
			<point x="32" y="463"/>
			<point x="42" y="421" type="curve" smooth="yes"/>
			<point x="44" y="414"/>
			<point x="49" y="410"/>
			<point x="56" y="410" type="curve"/>
			<point x="485" y="410" type="line"/>
			<point x="474" y="452"/>
			<point x="466" y="487"/>
			<point x="455" y="529" type="curve" smooth="yes"/>
			<point x="453" y="536"/>
			<point x="448" y="540"/>
			<point x="441" y="540" type="curve"/>
		</contour>
		<contour>
			<point x="555" y="132" type="curve"/>
			<point x="535" y="132" type="line"/>
			<point x="511" y="132"/>
			<point x="487" y="132"/>
			<point x="464" y="132" type="curve" smooth="yes"/>
			<point x="434" y="132"/>
			<point x="410" y="137"/>
			<point x="394" y="150" type="curve" smooth="yes"/>
			<point x="377" y="164"/>
			<point x="366" y="186"/>
			<point x="357" y="221" type="curve" smooth="yes"/>
			<point x="318" y="376"/>
			<point x="279" y="533"/>
			<point x="240" y="689" type="curve" smooth="yes"/>
			<point x="238" y="696"/>
			<point x="233" y="700"/>
			<point x="226" y="700" type="curve"/>
			<point x="180" y="700"/>
			<point x="133" y="700"/>
			<point x="87" y="700" type="curve"/>
			<point x="96" y="667"/>
			<point x="104" y="633"/>
			<point x="112" y="600" type="curve" smooth="yes"/>
			<point x="144" y="473"/>
			<point x="176" y="347"/>
			<point x="208" y="220" type="curve" smooth="yes"/>
			<point x="246" y="65"/>
			<point x="346" y="0"/>
			<point x="492" y="0" type="curve" smooth="yes"/>
			<point x="520" y="0"/>
			<point x="570" y="0"/>
			<point x="577" y="0" type="curve" smooth="yes"/>
			<point x="583" y="0"/>
			<point x="586" y="5"/>
			<point x="585" y="11" type="curve" smooth="yes"/>
			<point x="575" y="52"/>
			<point x="565" y="91"/>
		</contour>
	</outline>
	<anchor name="bottom" x="458.7744516203" y="-1"/>
	<anchor name="caronslovak" x="367.4756180424" y="700"/>
	<anchor name="top" x="170.9777079245" y="670"/>
</glyph>
<glyph name="u" format="2">
	<unicode hex="0075"/>
	<advance width="600"/>
	<outline>
		<contour>
			<point x="140" y="540" type="curve"/>
			<point x="94" y="540"/>
			<point x="47" y="540"/>
			<point x="1" y="540" type="curve"/>
			<point x="12" y="497"/>
			<point x="23" y="453"/>
			<point x="33" y="410" type="curve" smooth="yes"/>
			<point x="56" y="320"/>
			<point x="79" y="230"/>
			<point x="101" y="140" type="curve" smooth="yes"/>
			<point x="125" y="46"/>
			<point x="199" y="-12"/>
			<point x="280" y="-12" type="curve" smooth="yes"/>
			<point x="354" y="-12"/>
			<point x="386" y="24"/>
			<point x="406" y="86" type="curve"/>
			<point x="442" y="86" type="line"/>
			<point x="410" y="212" type="line"/>
			<point x="387" y="162"/>
			<point x="345" y="141"/>
			<point x="285" y="141" type="curve" smooth="yes"/>
			<point x="264" y="141"/>
			<point x="247" y="155"/>
			<point x="242" y="177" type="curve"/>
			<point x="217" y="277"/>
			<point x="183" y="411"/>
			<point x="154" y="529" type="curve" smooth="yes"/>
			<point x="152" y="536"/>
			<point x="147" y="540"/>
		</contour>
		<contour>
			<point x="450" y="540" type="curve"/>
			<point x="404" y="540"/>
			<point x="358" y="540"/>
			<point x="311" y="540" type="curve"/>
			<point x="355" y="364"/>
			<point x="399" y="187"/>
			<point x="443" y="11" type="curve"/>
			<point x="445" y="4"/>
			<point x="450" y="0"/>
			<point x="457" y="0" type="curve"/>
			<point x="499" y="0"/>
			<point x="545" y="0"/>
			<point x="596" y="0" type="curve"/>
			<point x="589" y="28"/>
			<point x="581" y="62"/>
			<point x="572" y="98" type="curve"/>
			<point x="536" y="242"/>
			<point x="500" y="385"/>
			<point x="464" y="529" type="curve"/>
			<point x="462" y="536"/>
			<point x="457" y="540"/>
		</contour>
	</outline>
	<anchor name="top" x="228.2300067948" y="551"/>
	<anchor name="ogonek" x="597.0183909623" y="0"/>
	<anchor name="bottom" x="366.268460625" y="-1"/>
	<anchor name="horn" x="402.9807730849" y="540"/>
	<anchor name="hook" x="219.9777079245" y="584"/>
	<anchor name="tildeviet" x="183.2300067948" y="551"/>
</glyph>
<glyph name="v" format="2">
	<unicode hex="0076"/>
	<advance width="600"/>
	<outline>
		<contour>
			<point x="115" y="540" type="curve" smooth="yes"/>
			<point x="66" y="540"/>
			<point x="18" y="540"/>
			<point x="-31" y="540" type="curve"/>
			<point x="63" y="365"/>
			<point x="158" y="190"/>
			<point x="237" y="43" type="curve" smooth="yes"/>
			<point x="257" y="5"/>
			<point x="267" y="0"/>
			<point x="290" y="0" type="curve" smooth="yes"/>
			<point x="343" y="0"/>
			<point x="409" y="0"/>
			<point x="475" y="0" type="curve"/>
			<point x="481" y="174"/>
			<point x="489" y="347"/>
			<point x="495" y="521" type="curve" smooth="yes"/>
			<point x="496" y="531"/>
			<point x="488" y="540"/>
			<point x="477" y="540" type="curve" smooth="yes"/>
			<point x="430" y="540"/>
			<point x="384" y="540"/>
			<point x="337" y="540" type="curve"/>
			<point x="340" y="412"/>
			<point x="340" y="289"/>
			<point x="353" y="108" type="curve"/>
			<point x="333" y="108" type="line"/>
			<point x="254" y="290"/>
			<point x="196" y="405"/>
			<point x="137" y="523" type="curve" smooth="yes"/>
			<point x="131" y="534"/>
			<point x="124" y="540"/>
		</contour>
	</outline>
</glyph>
<glyph name="w" format="2">
	<unicode hex="0077"/>
	<advance width="600"/>
	<outline>
		<contour>
			<point x="199" y="451" type="line"/>
			<point x="203" y="354"/>
			<point x="212" y="254"/>
			<point x="238" y="117" type="curve"/>
			<point x="212" y="117" type="line"/>
			<point x="171" y="281"/>
			<point x="134" y="400"/>
			<point x="93" y="527" type="curve" smooth="yes"/>
			<point x="89" y="538"/>
			<point x="84" y="540"/>
			<point x="76" y="540" type="curve" smooth="yes"/>
			<point x="31" y="540"/>
			<point x="-18" y="540"/>
			<point x="-62" y="540" type="curve"/>
			<point x="6" y="365"/>
			<point x="78" y="183"/>
			<point x="134" y="39" type="curve" smooth="yes"/>
			<point x="147" y="5"/>
			<point x="154" y="0"/>
			<point x="171" y="0" type="curve" smooth="yes"/>
			<point x="209" y="0"/>
			<point x="268" y="0"/>
			<point x="321" y="0" type="curve"/>
			<point x="314" y="130"/>
			<point x="311" y="158"/>
			<point x="279" y="312" type="curve"/>
			<point x="300" y="312" type="line"/>
			<point x="347" y="158"/>
			<point x="360" y="130"/>
			<point x="401" y="40" type="curve" smooth="yes"/>
			<point x="416" y="5"/>
			<point x="422" y="0"/>
			<point x="440" y="0" type="curve" smooth="yes"/>
			<point x="483" y="0"/>
			<point x="535" y="0"/>
			<point x="586" y="0" type="curve"/>
			<point x="567" y="176"/>
			<point x="548" y="351"/>
			<point x="529" y="527" type="curve" smooth="yes"/>
			<point x="528" y="539"/>
			<point x="524" y="540"/>
			<point x="516" y="540" type="curve" smooth="yes"/>
			<point x="470" y="540"/>
			<point x="424" y="540"/>
			<point x="378" y="540" type="curve"/>
			<point x="401" y="411"/>
			<point x="426" y="282"/>
			<point x="467" y="117" type="curve"/>
			<point x="441" y="117" type="line"/>
			<point x="396" y="258"/>
			<point x="359" y="349"/>
			<point x="318" y="440" type="curve" smooth="yes"/>
			<point x="314" y="449"/>
			<point x="310" y="451"/>
			<point x="304" y="451" type="curve" smooth="yes"/>
		</contour>
	</outline>
	<anchor name="top" x="228.7304247712" y="551"/>
</glyph>
<glyph name="x" format="2">
	<unicode hex="0078"/>
	<advance width="600"/>
	<outline>
		<contour>
			<point x="-22" y="540" type="curve"/>
			<point x="64" y="440"/>
			<point x="149" y="340"/>
			<point x="236" y="240" type="curve"/>
			<point x="295" y="218" type="line"/>
			<point x="347" y="148"/>
			<point x="423" y="46"/>
			<point x="441" y="22" type="curve" smooth="yes"/>
			<point x="456" y="3"/>
			<point x="463" y="0"/>
			<point x="489" y="0" type="curve" smooth="yes"/>
			<point x="524" y="0"/>
			<point x="579" y="0"/>
			<point x="632" y="0" type="curve"/>
			<point x="542" y="104"/>
			<point x="451" y="207"/>
			<point x="361" y="311" type="curve"/>
			<point x="304" y="328" type="line"/>
			<point x="256" y="394"/>
			<point x="208" y="463"/>
			<point x="160" y="530" type="curve"/>
			<point x="153" y="537"/>
			<point x="147" y="540"/>
			<point x="138" y="540" type="curve"/>
			<point x="86" y="540"/>
			<point x="30" y="540"/>
		</contour>
		<contour>
			<point x="221" y="310" type="line"/>
			<point x="185" y="216"/>
			<point x="148" y="121"/>
			<point x="112" y="27" type="curve" smooth="yes"/>
			<point x="109" y="19"/>
			<point x="108" y="15"/>
			<point x="109" y="11" type="curve" smooth="yes"/>
			<point x="111" y="4"/>
			<point x="116" y="0"/>
			<point x="124" y="0" type="curve" smooth="yes"/>
			<point x="277" y="0" type="line"/>
			<point x="288" y="58"/>
			<point x="301" y="116"/>
			<point x="312" y="174" type="curve"/>
			<point x="370" y="174" type="line"/>
		</contour>
		<contour>
			<point x="476" y="540" type="curve" smooth="yes"/>
			<point x="321" y="540" type="line"/>
			<point x="311" y="480"/>
			<point x="304" y="421"/>
			<point x="294" y="361" type="curve"/>
			<point x="240" y="361" type="line"/>
			<point x="382" y="235" type="line"/>
			<point x="417" y="329"/>
			<point x="454" y="424"/>
			<point x="490" y="518" type="curve" smooth="yes"/>
			<point x="492" y="523"/>
			<point x="492" y="526"/>
			<point x="491" y="528" type="curve" smooth="yes"/>
			<point x="489" y="537"/>
			<point x="483" y="540"/>
		</contour>
	</outline>
</glyph>
<glyph name="y" format="2">
	<unicode hex="0079"/>
	<advance width="600"/>
	<outline>
		<contour>
			<point x="456" y="540" type="curve" smooth="yes"/>
			<point x="405" y="540"/>
			<point x="358" y="540"/>
			<point x="315" y="540" type="curve"/>
			<point x="323" y="342"/>
			<point x="334" y="84"/>
			<point x="336" y="0" type="curve" smooth="yes"/>
			<point x="337" y="-49"/>
			<point x="315" y="-70"/>
			<point x="270" y="-70" type="curve" smooth="yes"/>
			<point x="241" y="-70"/>
			<point x="213" y="-70"/>
			<point x="184" y="-70" type="curve"/>
			<point x="164" y="-70" type="line"/>
			<point x="194" y="-189" type="line" smooth="yes"/>
			<point x="196" y="-196"/>
			<point x="201" y="-200"/>
			<point x="208" y="-200" type="curve" smooth="yes"/>
			<point x="216" y="-200"/>
			<point x="284" y="-200"/>
			<point x="322" y="-200" type="curve" smooth="yes"/>
			<point x="435" y="-200"/>
			<point x="481" y="-148"/>
			<point x="478" y="-31" type="curve" smooth="yes"/>
			<point x="475" y="198"/>
			<point x="474" y="335"/>
			<point x="472" y="524" type="curve" smooth="yes"/>
			<point x="472" y="534"/>
			<point x="463" y="540"/>
		</contour>
		<contour>
			<point x="94" y="540" type="curve" smooth="yes"/>
			<point x="42" y="540"/>
			<point x="-5" y="540"/>
			<point x="-52" y="540" type="curve"/>
			<point x="42" y="364"/>
			<point x="192" y="104"/>
			<point x="213" y="65" type="curve" smooth="yes"/>
			<point x="226" y="44"/>
			<point x="235" y="40"/>
			<point x="254" y="40" type="curve" smooth="yes"/>
			<point x="376" y="40" type="line"/>
			<point x="377" y="132" type="line"/>
			<point x="312" y="132" type="line"/>
			<point x="246" y="269"/>
			<point x="241" y="280"/>
			<point x="118" y="526" type="curve" smooth="yes"/>
			<point x="112" y="537"/>
			<point x="107" y="540"/>
		</contour>
	</outline>
	<anchor name="top" x="214.7234584976" y="551"/>
	<anchor name="dot" x="637.7730583656" y="-161"/>
	<anchor name="hook" x="207.4711596273" y="584"/>
</glyph>
<glyph name="z" format="2">
	<unicode hex="007A"/>
	<advance width="600"/>
	<outline>
		<contour>
			<point x="2" y="540" type="line"/>
			<point x="13" y="496"/>
			<point x="24" y="453"/>
			<point x="35" y="409" type="curve" smooth="yes"/>
			<point x="37" y="402"/>
			<point x="42" y="398"/>
			<point x="49" y="398" type="curve" smooth="yes"/>
			<point x="230" y="398" type="line" smooth="yes"/>
			<point x="265" y="398"/>
			<point x="301" y="398"/>
			<point x="336" y="398" type="curve"/>
			<point x="341" y="378" type="line"/>
			<point x="310" y="361"/>
			<point x="289" y="349"/>
			<point x="268" y="331" type="curve" smooth="yes"/>
			<point x="231" y="302"/>
			<point x="190" y="257"/>
			<point x="99" y="155" type="curve"/>
			<point x="135" y="11" type="line" smooth="yes"/>
			<point x="137" y="4"/>
			<point x="142" y="0"/>
			<point x="149" y="0" type="curve" smooth="yes"/>
			<point x="598" y="0" type="line"/>
			<point x="587" y="44"/>
			<point x="576" y="87"/>
			<point x="565" y="131" type="curve"/>
			<point x="563" y="138"/>
			<point x="558" y="142"/>
			<point x="551" y="142" type="curve" smooth="yes"/>
			<point x="375" y="142" type="line" smooth="yes"/>
			<point x="338" y="142"/>
			<point x="301" y="142"/>
			<point x="264" y="142" type="curve"/>
			<point x="259" y="162" type="line"/>
			<point x="292" y="180"/>
			<point x="315" y="192"/>
			<point x="339" y="212" type="curve" smooth="yes"/>
			<point x="374" y="241"/>
			<point x="415" y="286"/>
			<point x="501" y="385" type="curve"/>
			<point x="465" y="529" type="line" smooth="yes"/>
			<point x="463" y="536"/>
			<point x="458" y="540"/>
			<point x="451" y="540" type="curve" smooth="yes"/>
		</contour>
	</outline>
	<anchor name="top" x="229.7304247712" y="551"/>
	<anchor name="bottom" x="363.5188089387" y="0"/>
</glyph>
<glyph name="braceleft" format="2">
	<unicode hex="007B"/>
	<advance width="600"/>
	<outline>
		<contour>
			<point x="456" y="157" type="curve" smooth="yes"/>
			<point x="439" y="223"/>
			<point x="396" y="271"/>
			<point x="313" y="290" type="curve"/>
			<point x="307" y="310" type="line"/>
			<point x="379" y="334"/>
			<point x="401" y="374"/>
			<point x="384" y="442" type="curve" smooth="yes"/>
			<point x="366" y="517"/>
			<point x="316" y="547"/>
			<point x="300" y="580" type="curve" smooth="yes"/>
			<point x="298" y="583"/>
			<point x="297" y="587"/>
			<point x="296" y="590" type="curve"/>
			<point x="291" y="613"/>
			<point x="297" y="618"/>
			<point x="321" y="618" type="curve" smooth="yes"/>
			<point x="354" y="618"/>
			<point x="386" y="618"/>
			<point x="419" y="618" type="curve"/>
			<point x="440" y="618" type="line"/>
			<point x="429" y="662"/>
			<point x="419" y="705"/>
			<point x="408" y="749" type="curve" smooth="yes"/>
			<point x="406" y="756"/>
			<point x="401" y="760"/>
			<point x="394" y="760" type="curve" smooth="yes"/>
			<point x="217" y="760" type="line" smooth="yes"/>
			<point x="133" y="760"/>
			<point x="120" y="696"/>
			<point x="130" y="657" type="curve" smooth="yes"/>
			<point x="140" y="616" type="line" smooth="yes"/>
			<point x="164" y="520"/>
			<point x="219" y="504"/>
			<point x="234" y="444" type="curve" smooth="yes"/>
			<point x="246" y="395"/>
			<point x="199" y="371"/>
			<point x="94" y="371" type="curve" smooth="yes"/>
			<point x="62" y="371" type="line"/>
			<point x="73" y="327"/>
			<point x="84" y="284"/>
			<point x="95" y="240" type="curve" smooth="yes"/>
			<point x="97" y="233"/>
			<point x="102" y="229"/>
			<point x="109" y="229" type="curve" smooth="yes"/>
			<point x="130" y="229" type="line" smooth="yes"/>
			<point x="235" y="229"/>
			<point x="295" y="201"/>
			<point x="306" y="155" type="curve" smooth="yes"/>
			<point x="321" y="95"/>
			<point x="274" y="79"/>
			<point x="298" y="-17" type="curve" smooth="yes"/>
			<point x="309" y="-58" type="line" smooth="yes"/>
			<point x="318" y="-97"/>
			<point x="363" y="-161"/>
			<point x="447" y="-161" type="curve" smooth="yes"/>
			<point x="624" y="-161" type="line" smooth="yes"/>
			<point x="631" y="-161"/>
			<point x="634" y="-157"/>
			<point x="633" y="-150" type="curve" smooth="yes"/>
			<point x="622" y="-106"/>
			<point x="611" y="-63"/>
			<point x="600" y="-19" type="curve"/>
			<point x="579" y="-19" type="line"/>
			<point x="546" y="-19"/>
			<point x="514" y="-19"/>
			<point x="481" y="-19" type="curve" smooth="yes"/>
			<point x="457" y="-19"/>
			<point x="448" y="-14"/>
			<point x="442" y="9" type="curve"/>
			<point x="440" y="15"/>
			<point x="440" y="20"/>
			<point x="441" y="26" type="curve" smooth="yes"/>
			<point x="445" y="56"/>
			<point x="473" y="87"/>
		</contour>
	</outline>
</glyph>
<glyph name="bar" format="2">
	<unicode hex="007C"/>
	<advance width="600"/>
	<outline>
		<contour>
			<point x="105" y="760" type="curve"/>
			<point x="114" y="724"/>
			<point x="123" y="689"/>
			<point x="132" y="653" type="curve" smooth="yes"/>
			<point x="198" y="386"/>
			<point x="266" y="118"/>
			<point x="332" y="-149" type="curve" smooth="yes"/>
			<point x="334" y="-156"/>
			<point x="339" y="-160"/>
			<point x="346" y="-160" type="curve"/>
			<point x="396" y="-160"/>
			<point x="445" y="-160"/>
			<point x="495" y="-160" type="curve"/>
			<point x="419" y="143"/>
			<point x="343" y="446"/>
			<point x="268" y="749" type="curve" smooth="yes"/>
			<point x="266" y="756"/>
			<point x="261" y="760"/>
			<point x="254" y="760" type="curve" smooth="yes"/>
			<point x="204" y="760"/>
			<point x="155" y="760"/>
		</contour>
	</outline>
</glyph>
<glyph name="asciitilde" format="2">
	<unicode hex="007E"/>
	<advance width="600"/>
	<outline>
		<contour>
			<point x="424" y="321" type="curve" smooth="yes"/>
			<point x="339" y="321"/>
			<point x="254" y="421"/>
			<point x="148" y="421" type="curve" smooth="yes"/>
			<point x="95" y="421"/>
			<point x="63" y="405"/>
			<point x="45" y="378" type="curve" smooth="yes"/>
			<point x="40" y="369"/>
			<point x="41" y="364"/>
			<point x="44" y="351" type="curve" smooth="yes"/>
			<point x="53" y="317"/>
			<point x="64" y="274"/>
			<point x="74" y="231" type="curve"/>
			<point x="94" y="231" type="line"/>
			<point x="112" y="264"/>
			<point x="140" y="278"/>
			<point x="177" y="278" type="curve" smooth="yes"/>
			<point x="262" y="278"/>
			<point x="347" y="178"/>
			<point x="453" y="178" type="curve" smooth="yes"/>
			<point x="506" y="178"/>
			<point x="538" y="194"/>
			<point x="555" y="221" type="curve" smooth="yes"/>
			<point x="561" y="230"/>
			<point x="559" y="235"/>
			<point x="556" y="248" type="curve" smooth="yes"/>
			<point x="548" y="282"/>
			<point x="537" y="325"/>
			<point x="526" y="368" type="curve"/>
			<point x="506" y="368" type="line"/>
			<point x="488" y="335"/>
			<point x="461" y="321"/>
		</contour>
	</outline>
</glyph>
<glyph name="dotlessi" format="2">
	<unicode hex="0131"/>
	<advance width="600"/>
	<outline>
		<contour>
			<point x="305" y="11" type="curve"/>
			<point x="307" y="4"/>
			<point x="312" y="0"/>
			<point x="319" y="0" type="curve"/>
			<point x="369" y="0"/>
			<point x="408" y="0"/>
			<point x="458" y="0" type="curve"/>
			<point x="449" y="33"/>
			<point x="441" y="66"/>
			<point x="433" y="99" type="curve"/>
			<point x="402" y="223"/>
			<point x="356" y="405"/>
			<point x="325" y="529" type="curve" smooth="yes"/>
			<point x="323" y="536"/>
			<point x="318" y="540"/>
			<point x="311" y="540" type="curve" smooth="yes"/>
			<point x="192" y="540"/>
			<point x="131" y="540"/>
			<point x="12" y="540" type="curve"/>
			<point x="22" y="500"/>
			<point x="32" y="461"/>
			<point x="42" y="421" type="curve" smooth="yes"/>
			<point x="44" y="414"/>
			<point x="49" y="410"/>
			<point x="56" y="410" type="curve" smooth="yes"/>
			<point x="122" y="410"/>
			<point x="119" y="410"/>
			<point x="185" y="410" type="curve"/>
			<point x="205" y="410" type="line"/>
			<point x="225" y="329"/>
			<point x="285" y="90"/>
		</contour>
	</outline>
	<anchor name="top" x="229.7304247712" y="551"/>
	<anchor name="bottom" x="374.5188089387" y="0"/>
	<anchor name="ogonek" x="458.5188089387" y="0"/>
	<anchor name="hook" x="220.4781259009" y="584"/>
</glyph>
<glyph name="dotlessj" format="2">
	<unicode hex="0237"/>
	<advance width="600"/>
	<outline>
		<contour>
			<point x="345" y="540" type="curve" smooth="yes"/>
			<point x="222" y="540"/>
			<point x="100" y="540"/>
			<point x="-23" y="540" type="curve"/>
			<point x="-12" y="496"/>
			<point x="-1" y="453"/>
			<point x="10" y="409" type="curve" smooth="yes"/>
			<point x="12" y="402"/>
			<point x="17" y="398"/>
			<point x="24" y="398" type="curve" smooth="yes"/>
			<point x="93" y="398"/>
			<point x="161" y="398"/>
			<point x="230" y="398" type="curve"/>
			<point x="242" y="398" type="line"/>
			<point x="273" y="272"/>
			<point x="293" y="195"/>
			<point x="324" y="69" type="curve" smooth="yes"/>
			<point x="335" y="28"/>
			<point x="335" y="-1"/>
			<point x="323" y="-21" type="curve" smooth="yes"/>
			<point x="312" y="-41"/>
			<point x="288" y="-50"/>
			<point x="250" y="-50" type="curve" smooth="yes"/>
			<point x="195" y="-50"/>
			<point x="144" y="-42"/>
			<point x="88" y="-20" type="curve"/>
			<point x="68" y="-20" type="line"/>
			<point x="79" y="-66"/>
			<point x="91" y="-113"/>
			<point x="102" y="-159" type="curve"/>
			<point x="103" y="-162"/>
			<point x="105" y="-165"/>
			<point x="107" y="-167" type="curve" smooth="yes"/>
			<point x="126" y="-182"/>
			<point x="204" y="-200"/>
			<point x="288" y="-200" type="curve" smooth="yes"/>
			<point x="457" y="-200"/>
			<point x="521" y="-116"/>
			<point x="481" y="44" type="curve" smooth="yes"/>
			<point x="436" y="222"/>
			<point x="404" y="351"/>
			<point x="359" y="529" type="curve" smooth="yes"/>
			<point x="358" y="535"/>
			<point x="351" y="540"/>
		</contour>
	</outline>
	<anchor name="top" x="276.7234584976" y="551"/>
</glyph>
<glyph name="dotaccentcomb" format="2">
	<unicode hex="0307"/>
	<outline>
		<contour>
			<point x="-114" y="800" type="curve"/>
			<point x="-79" y="661" type="line" smooth="yes"/>
			<point x="-77" y="654"/>
			<point x="-72" y="650"/>
			<point x="-65" y="650" type="curve" smooth="yes"/>
			<point x="-9" y="650"/>
			<point x="58" y="650"/>
			<point x="114" y="650" type="curve"/>
			<point x="79" y="789" type="line" smooth="yes"/>
			<point x="77" y="796"/>
			<point x="72" y="800"/>
			<point x="65" y="800" type="curve" smooth="yes"/>
			<point x="9" y="800"/>
			<point x="-58" y="800"/>
		</contour>
	</outline>
	<anchor name="_top" x="44.0122606415" y="549"/>
	<anchor name="_dot" x="-1.0002786509" y="729"/>
	<anchor name="bottom" x="180.8003661581" y="2"/>
	<anchor name="ogonek" x="272.3005054835" y="0"/>
	<anchor name="top" x="-7.0019505566" y="753"/>
</glyph>
<glyph name="fraction" format="2">
	<unicode hex="2044"/>
	<advance width="600"/>
	<outline>
		<contour>
			<point x="343" y="405" type="curve"/>
			<point x="354" y="405"/>
			<point x="447" y="405"/>
			<point x="457" y="405" type="curve" smooth="yes"/>
			<point x="462" y="405"/>
			<point x="465" y="406"/>
			<point x="465" y="412" type="curve" smooth="yes"/>
			<point x="467" y="427"/>
			<point x="495" y="682"/>
			<point x="496" y="697" type="curve" smooth="yes"/>
			<point x="497" y="705"/>
			<point x="493" y="710"/>
			<point x="485" y="710" type="curve" smooth="yes"/>
			<point x="475" y="710"/>
			<point x="359" y="710"/>
			<point x="349" y="710" type="curve"/>
			<point x="349" y="699"/>
			<point x="344" y="419"/>
		</contour>
		<contour>
			<point x="257" y="296" type="curve"/>
			<point x="246" y="296"/>
			<point x="153" y="296"/>
			<point x="143" y="296" type="curve" smooth="yes"/>
			<point x="138" y="296"/>
			<point x="135" y="295"/>
			<point x="134" y="289" type="curve" smooth="yes"/>
			<point x="133" y="274"/>
			<point x="105" y="19"/>
			<point x="104" y="4" type="curve" smooth="yes"/>
			<point x="103" y="-4"/>
			<point x="107" y="-9"/>
			<point x="115" y="-9" type="curve" smooth="yes"/>
			<point x="125" y="-9"/>
			<point x="241" y="-9"/>
			<point x="251" y="-9" type="curve"/>
			<point x="251" y="2"/>
			<point x="256" y="282"/>
		</contour>
	</outline>
</glyph>
<glyph name="arrowleft" format="2">
	<unicode hex="2190"/>
	<advance width="600"/>
	<outline>
		<contour>
			<point x="243" y="376" type="curve"/>
			<point x="245" y="369"/>
			<point x="249" y="352"/>
			<point x="254" y="335" type="curve" smooth="yes"/>
			<point x="256" y="327"/>
			<point x="259" y="322"/>
			<point x="269" y="320" type="curve" smooth="yes"/>
			<point x="298" y="314"/>
			<point x="508" y="274"/>
			<point x="509" y="274" type="curve"/>
			<point x="599" y="274" type="line"/>
			<point x="587" y="320"/>
			<point x="575" y="367"/>
			<point x="564" y="413" type="curve"/>
			<point x="562" y="419"/>
			<point x="557" y="424"/>
			<point x="550" y="424" type="curve" smooth="yes"/>
			<point x="471" y="424" type="line" smooth="yes"/>
			<point x="470" y="424"/>
			<point x="311" y="391"/>
		</contour>
		<contour>
			<point x="4" y="414" type="line"/>
			<point x="87" y="478"/>
			<point x="192" y="559"/>
			<point x="302" y="642" type="curve"/>
			<point x="313" y="596"/>
			<point x="325" y="549"/>
			<point x="336" y="503" type="curve" smooth="yes"/>
			<point x="340" y="490"/>
			<point x="339" y="488"/>
			<point x="331" y="482" type="curve" smooth="yes"/>
			<point x="309" y="467"/>
			<point x="218" y="400"/>
			<point x="80" y="336" type="curve"/>
			<point x="121" y="383" type="line"/>
			<point x="139" y="315" type="line"/>
			<point x="74" y="362" type="line"/>
			<point x="244" y="298"/>
			<point x="369" y="231"/>
			<point x="397" y="216" type="curve" smooth="yes"/>
			<point x="409" y="210"/>
			<point x="410" y="208"/>
			<point x="414" y="195" type="curve" smooth="yes"/>
			<point x="425" y="149"/>
			<point x="437" y="102"/>
			<point x="448" y="56" type="curve"/>
			<point x="305" y="135"/>
			<point x="74" y="263"/>
			<point x="50" y="276" type="curve" smooth="yes"/>
			<point x="36" y="284"/>
			<point x="36" y="286"/>
			<point x="33" y="299" type="curve" smooth="yes"/>
		</contour>
	</outline>
</glyph>
<glyph name="arrowup" format="2">
	<unicode hex="2191"/>
	<advance width="600"/>
	<outline>
		<contour>
			<point x="238" y="491" type="curve"/>
			<point x="241" y="419"/>
			<point x="250" y="252"/>
			<point x="250" y="251" type="curve" smooth="yes"/>
			<point x="270" y="171"/>
			<point x="290" y="91"/>
			<point x="310" y="11" type="curve" smooth="yes"/>
			<point x="312" y="4"/>
			<point x="318" y="0"/>
			<point x="324" y="0" type="curve"/>
			<point x="370" y="0"/>
			<point x="417" y="0"/>
			<point x="463" y="0" type="curve"/>
			<point x="454" y="34"/>
			<point x="446" y="67"/>
			<point x="438" y="100" type="curve" smooth="yes"/>
			<point x="425" y="151"/>
			<point x="412" y="201"/>
			<point x="400" y="251" type="curve"/>
			<point x="400" y="252"/>
			<point x="309" y="452"/>
			<point x="297" y="479" type="curve" smooth="yes"/>
			<point x="292" y="489"/>
			<point x="287" y="491"/>
			<point x="279" y="491" type="curve" smooth="yes"/>
			<point x="262" y="491"/>
			<point x="245" y="491"/>
		</contour>
		<contour>
			<point x="146" y="700" type="line"/>
			<point x="107" y="601"/>
			<point x="58" y="475"/>
			<point x="7" y="345" type="curve"/>
			<point x="53" y="345"/>
			<point x="100" y="345"/>
			<point x="146" y="345" type="curve" smooth="yes"/>
			<point x="159" y="345"/>
			<point x="161" y="346"/>
			<point x="164" y="356" type="curve" smooth="yes"/>
			<point x="173" y="381"/>
			<point x="213" y="489"/>
			<point x="239" y="643" type="curve"/>
			<point x="205" y="590" type="line"/>
			<point x="273" y="590" type="line"/>
			<point x="213" y="643" type="line"/>
			<point x="315" y="489"/>
			<point x="409" y="381"/>
			<point x="430" y="356" type="curve" smooth="yes"/>
			<point x="439" y="346"/>
			<point x="441" y="345"/>
			<point x="454" y="345" type="curve" smooth="yes"/>
			<point x="500" y="345"/>
			<point x="547" y="345"/>
			<point x="593" y="345" type="curve"/>
			<point x="483" y="469"/>
			<point x="305" y="668"/>
			<point x="287" y="688" type="curve" smooth="yes"/>
			<point x="276" y="700"/>
			<point x="274" y="700"/>
			<point x="261" y="700" type="curve" smooth="yes"/>
		</contour>
	</outline>
</glyph>
<glyph name=".notdef" format="2">
	<advance width="600"/>
	<outline>
		<contour>
			<point x="134" y="-250" type="line"/>
			<point x="-134" y="820" type="line"/>
			<point x="466" y="820" type="line"/>
			<point x="734" y="-250" type="line"/>
		</contour>
		<contour>
			<point x="435" y="699" type="line" smooth="yes"/>
			<point x="434" y="706"/>
			<point x="430" y="710"/>
			<point x="422" y="710" type="curve" smooth="yes"/>
			<point x="-45" y="710" type="line"/>
			<point x="132" y="1" type="line" smooth="yes"/>
			<point x="134" y="-6"/>
			<point x="138" y="-10"/>
			<point x="146" y="-10" type="curve" smooth="yes"/>
			<point x="613" y="-10" type="line"/>
		</contour>
		<contour>
			<point x="255" y="471" type="curve" smooth="yes"/>
			<point x="242" y="408"/>
			<point x="237" y="342"/>
			<point x="239" y="292" type="curve"/>
			<point x="219" y="292" type="line"/>
			<point x="148" y="578" type="line"/>
			<point x="251" y="578" type="line"/>
			<point x="277" y="578" type="line"/>
			<point x="269" y="544"/>
			<point x="262" y="508"/>
		</contour>
		<contour>
			<point x="324" y="238" type="curve" smooth="yes"/>
			<point x="333" y="296"/>
			<point x="336" y="351"/>
			<point x="333" y="387" type="curve"/>
			<point x="353" y="387" type="line"/>
			<point x="420" y="122" type="line"/>
			<point x="304" y="122" type="line"/>
			<point x="303" y="124" type="line"/>
			<point x="311" y="163"/>
			<point x="317" y="200"/>
		</contour>
	</outline>
</glyph>
<glyph name="b.italic" format="2">
	<advance width="600"/>
	<outline>
		<contour>
			<point x="300" y="50" type="line"/>
			<point x="247" y="264"/>
			<point x="181" y="525"/>
			<point x="128" y="739" type="curve"/>
			<point x="126" y="746"/>
			<point x="121" y="750"/>
			<point x="114" y="750" type="curve"/>
			<point x="66" y="750"/>
			<point x="23" y="750"/>
			<point x="-25" y="750" type="curve"/>
			<point x="-13" y="701"/>
			<point x="-1" y="652"/>
			<point x="12" y="603" type="curve"/>
			<point x="61" y="405"/>
			<point x="103" y="238"/>
			<point x="152" y="41" type="curve" smooth="yes"/>
			<point x="153" y="38"/>
			<point x="155" y="35"/>
			<point x="157" y="33" type="curve" smooth="yes"/>
			<point x="180" y="15"/>
			<point x="267" y="-10"/>
			<point x="363" y="-10" type="curve" smooth="yes"/>
			<point x="553" y="-10"/>
			<point x="614" y="93"/>
			<point x="574" y="254" type="curve" smooth="yes"/>
			<point x="548" y="358" type="line" smooth="yes"/>
			<point x="517" y="480"/>
			<point x="436" y="552"/>
			<point x="336" y="552" type="curve" smooth="yes"/>
			<point x="276" y="552"/>
			<point x="231" y="518"/>
			<point x="215" y="461" type="curve"/>
			<point x="186" y="461" type="line"/>
			<point x="219" y="331" type="line"/>
			<point x="241" y="377"/>
			<point x="284" y="407"/>
			<point x="322" y="407" type="curve" smooth="yes"/>
			<point x="342" y="407"/>
			<point x="359" y="402"/>
			<point x="373" y="391" type="curve" smooth="yes"/>
			<point x="386" y="380"/>
			<point x="397" y="361"/>
			<point x="404" y="333" type="curve" smooth="yes"/>
			<point x="421" y="267" type="line" smooth="yes"/>
			<point x="445" y="171"/>
			<point x="417" y="128"/>
			<point x="334" y="128" type="curve" smooth="yes"/>
			<point x="282" y="128"/>
			<point x="248" y="136"/>
			<point x="194" y="157" type="curve"/>
		</contour>
	</outline>
</glyph>
<glyph name="dotlessi.italic" format="2">
	<advance width="600"/>
	<outline>
		<contour>
			<point x="-18" y="540" type="curve"/>
			<point x="-8" y="500"/>
			<point x="2" y="461"/>
			<point x="12" y="421" type="curve" smooth="yes"/>
			<point x="14" y="414"/>
			<point x="19" y="410"/>
			<point x="26" y="410" type="curve" smooth="yes"/>
			<point x="74" y="410"/>
			<point x="124" y="410"/>
			<point x="172" y="410" type="curve"/>
			<point x="195" y="410" type="line"/>
			<point x="215" y="329"/>
			<point x="236" y="247"/>
			<point x="256" y="166" type="curve" smooth="yes"/>
			<point x="284" y="54"/>
			<point x="347" y="0"/>
			<point x="463" y="0" type="curve" smooth="yes"/>
			<point x="511" y="0"/>
			<point x="559" y="0"/>
			<point x="607" y="0" type="curve" smooth="yes"/>
			<point x="614" y="0"/>
			<point x="617" y="4"/>
			<point x="615" y="11" type="curve" smooth="yes"/>
			<point x="605" y="51"/>
			<point x="595" y="90"/>
			<point x="585" y="130" type="curve"/>
			<point x="565" y="130" type="line"/>
			<point x="528" y="130"/>
			<point x="485" y="130"/>
			<point x="445" y="130" type="curve" smooth="yes"/>
			<point x="433" y="130"/>
			<point x="426" y="132"/>
			<point x="419" y="137" type="curve" smooth="yes"/>
			<point x="413" y="142"/>
			<point x="411" y="148"/>
			<point x="408" y="157" type="curve" smooth="yes"/>
			<point x="377" y="281"/>
			<point x="346" y="405"/>
			<point x="315" y="529" type="curve" smooth="yes"/>
			<point x="313" y="536"/>
			<point x="308" y="540"/>
			<point x="301" y="540" type="curve" smooth="yes"/>
			<point x="195" y="540"/>
			<point x="88" y="540"/>
		</contour>
	</outline>
	<anchor name="bottom" x="443.0186696132" y="2"/>
	<anchor name="ogonek" x="607.0186696132" y="2"/>
	<anchor name="top" x="229.7304247712" y="551"/>
	<anchor name="hook" x="221.4781259009" y="584"/>
</glyph>
<glyph name="dotlessi.mono" format="2">
	<advance width="600"/>
	<outline>
		<contour>
			<point x="286" y="86" type="line"/>
			<point x="436" y="86" type="line"/>
			<point x="404" y="214"/>
			<point x="364" y="372"/>
			<point x="325" y="529" type="curve"/>
			<point x="323" y="536"/>
			<point x="318" y="540"/>
			<point x="311" y="540" type="curve"/>
			<point x="211" y="540"/>
			<point x="112" y="540"/>
			<point x="12" y="540" type="curve"/>
			<point x="22" y="500"/>
			<point x="32" y="461"/>
			<point x="42" y="421" type="curve" smooth="yes"/>
			<point x="44" y="414"/>
			<point x="49" y="410"/>
			<point x="56" y="410" type="curve"/>
			<point x="100" y="410"/>
			<point x="141" y="410"/>
			<point x="185" y="410" type="curve" smooth="yes"/>
			<point x="205" y="410" type="line"/>
			<point x="220" y="348"/>
			<point x="236" y="286"/>
			<point x="251" y="225" type="curve" smooth="yes"/>
			<point x="258" y="200"/>
			<point x="264" y="175"/>
			<point x="270" y="150" type="curve" smooth="yes"/>
		</contour>
		<contour>
			<point x="95" y="130" type="line"/>
			<point x="105" y="89"/>
			<point x="114" y="53"/>
			<point x="125" y="11" type="curve" smooth="yes"/>
			<point x="127" y="4"/>
			<point x="132" y="0"/>
			<point x="139" y="0" type="curve"/>
			<point x="608" y="0" type="line"/>
			<point x="597" y="42"/>
			<point x="588" y="78"/>
			<point x="578" y="119" type="curve" smooth="yes"/>
			<point x="576" y="126"/>
			<point x="571" y="130"/>
			<point x="564" y="130" type="curve"/>
		</contour>
	</outline>
	<anchor name="ogonek" x="608.5188089387" y="0"/>
	<anchor name="bottom" x="367.7688786014" y="-1"/>
	<anchor name="top" x="244.7304247712" y="551"/>
	<anchor name="hook" x="237.4781259009" y="584"/>
</glyph>
<glyph name="dotlessj.italic" format="2">
	<advance width="600"/>
	<outline>
		<contour>
			<point x="-3" y="540" type="curve"/>
			<point x="7" y="500"/>
			<point x="17" y="461"/>
			<point x="27" y="421" type="curve" smooth="yes"/>
			<point x="29" y="414"/>
			<point x="34" y="410"/>
			<point x="41" y="410" type="curve" smooth="yes"/>
			<point x="116" y="410"/>
			<point x="189" y="410"/>
			<point x="264" y="410" type="curve"/>
			<point x="289" y="410" type="line"/>
			<point x="322" y="277"/>
			<point x="354" y="152"/>
			<point x="387" y="19" type="curve" smooth="yes"/>
			<point x="402" y="-41"/>
			<point x="383" y="-70"/>
			<point x="325" y="-70" type="curve" smooth="yes"/>
			<point x="315" y="-70"/>
			<point x="303" y="-69"/>
			<point x="292" y="-67" type="curve"/>
			<point x="289" y="-52"/>
			<point x="279" y="-14"/>
			<point x="270" y="22" type="curve"/>
			<point x="265" y="42" type="line"/>
			<point x="222" y="42"/>
			<point x="176" y="42"/>
			<point x="133" y="42" type="curve" smooth="yes"/>
			<point x="126" y="42"/>
			<point x="123" y="38"/>
			<point x="125" y="31" type="curve" smooth="yes"/>
			<point x="126" y="26"/>
			<point x="156" y="-95"/>
			<point x="172" y="-159" type="curve" smooth="yes"/>
			<point x="173" y="-162"/>
			<point x="175" y="-165"/>
			<point x="177" y="-167" type="curve" smooth="yes"/>
			<point x="196" y="-182"/>
			<point x="274" y="-200"/>
			<point x="358" y="-200" type="curve" smooth="yes"/>
			<point x="512" y="-200"/>
			<point x="570" y="-112"/>
			<point x="532" y="38" type="curve" smooth="yes"/>
			<point x="489" y="209"/>
			<point x="450" y="364"/>
			<point x="409" y="529" type="curve" smooth="yes"/>
			<point x="407" y="536"/>
			<point x="402" y="540"/>
			<point x="395" y="540" type="curve" smooth="yes"/>
			<point x="262" y="540"/>
			<point x="130" y="540"/>
		</contour>
	</outline>
	<anchor name="top" x="329.7234584976" y="551"/>
</glyph>
<glyph name="f.italic" format="2">
	<advance width="600"/>
	<outline>
		<contour>
			<point x="149" y="-67" type="line"/>
			<point x="160" y="-108"/>
			<point x="169" y="-147"/>
			<point x="180" y="-188" type="curve" smooth="yes"/>
			<point x="181" y="-194"/>
			<point x="186" y="-199"/>
			<point x="192" y="-199" type="curve" smooth="yes"/>
			<point x="199" y="-199"/>
			<point x="233" y="-199"/>
			<point x="302" y="-199" type="curve" smooth="yes"/>
			<point x="406" y="-199"/>
			<point x="447" y="-144"/>
			<point x="421" y="-43" type="curve"/>
			<point x="371" y="158"/>
			<point x="322" y="354"/>
			<point x="273" y="551" type="curve" smooth="yes"/>
			<point x="263" y="588"/>
			<point x="264" y="612"/>
			<point x="276" y="627" type="curve" smooth="yes"/>
			<point x="285" y="639"/>
			<point x="299" y="645"/>
			<point x="321" y="645" type="curve" smooth="yes"/>
			<point x="330" y="645"/>
			<point x="340" y="644"/>
			<point x="350" y="642" type="curve"/>
			<point x="356" y="618"/>
			<point x="362" y="594"/>
			<point x="368" y="569" type="curve"/>
			<point x="370" y="560" type="line"/>
			<point x="411" y="560"/>
			<point x="453" y="560"/>
			<point x="494" y="560" type="curve" smooth="yes"/>
			<point x="501" y="560"/>
			<point x="504" y="564"/>
			<point x="503" y="571" type="curve" smooth="yes"/>
			<point x="463" y="730" type="line"/>
			<point x="462" y="733"/>
			<point x="460" y="736"/>
			<point x="458" y="738" type="curve" smooth="yes"/>
			<point x="443" y="750"/>
			<point x="386" y="770"/>
			<point x="299" y="770" type="curve" smooth="yes"/>
			<point x="155" y="770"/>
			<point x="81" y="698"/>
			<point x="116" y="558" type="curve" smooth="yes"/>
			<point x="166" y="356"/>
			<point x="216" y="158"/>
			<point x="267" y="-44" type="curve"/>
			<point x="269" y="-52"/>
			<point x="269" y="-57"/>
			<point x="266" y="-61" type="curve" smooth="yes"/>
			<point x="263" y="-65"/>
			<point x="257" y="-67"/>
			<point x="248" y="-67" type="curve"/>
			<point x="214" y="-67"/>
			<point x="193" y="-67"/>
			<point x="169" y="-67" type="curve"/>
		</contour>
		<contour>
			<point x="41" y="400" type="line"/>
			<point x="51" y="360"/>
			<point x="61" y="321"/>
			<point x="71" y="281" type="curve"/>
			<point x="73" y="274"/>
			<point x="78" y="270"/>
			<point x="85" y="270" type="curve" smooth="yes"/>
			<point x="534" y="270" type="line"/>
			<point x="523" y="312"/>
			<point x="515" y="347"/>
			<point x="504" y="389" type="curve"/>
			<point x="502" y="396"/>
			<point x="497" y="400"/>
			<point x="490" y="400" type="curve" smooth="yes"/>
		</contour>
	</outline>
</glyph>
<glyph name="g.italic" format="2">
	<advance width="600"/>
	<outline>
		<contour>
			<point x="123" y="552" type="curve" smooth="yes"/>
			<point x="23" y="552"/>
			<point x="-22" y="481"/>
			<point x="9" y="358" type="curve" smooth="yes"/>
			<point x="42" y="224" type="line" smooth="yes"/>
			<point x="73" y="102"/>
			<point x="154" y="30"/>
			<point x="254" y="30" type="curve" smooth="yes"/>
			<point x="316" y="30"/>
			<point x="359" y="66"/>
			<point x="372" y="127" type="curve"/>
			<point x="402" y="127" type="line"/>
			<point x="373" y="241" type="line"/>
			<point x="347" y="195"/>
			<point x="312" y="175"/>
			<point x="274" y="175" type="curve" smooth="yes"/>
			<point x="254" y="175"/>
			<point x="236" y="180"/>
			<point x="223" y="191" type="curve" smooth="yes"/>
			<point x="209" y="202"/>
			<point x="198" y="221"/>
			<point x="191" y="249" type="curve" smooth="yes"/>
			<point x="170" y="333" type="line" smooth="yes"/>
			<point x="158" y="381"/>
			<point x="175" y="407"/>
			<point x="216" y="407" type="curve" smooth="yes"/>
			<point x="254" y="407"/>
			<point x="302" y="385"/>
			<point x="347" y="345" type="curve"/>
			<point x="318" y="460" type="line"/>
			<point x="287" y="460" type="line"/>
			<point x="247" y="515"/>
			<point x="191" y="552"/>
		</contour>
		<contour>
			<point x="288" y="540" type="curve"/>
			<point x="298" y="502"/>
			<point x="307" y="465"/>
			<point x="317" y="427" type="curve" smooth="yes"/>
			<point x="352" y="287"/>
			<point x="375" y="193"/>
			<point x="410" y="54" type="curve" smooth="yes"/>
			<point x="421" y="12"/>
			<point x="420" y="-18"/>
			<point x="405" y="-37" type="curve" smooth="yes"/>
			<point x="391" y="-56"/>
			<point x="362" y="-65"/>
			<point x="316" y="-65" type="curve" smooth="yes"/>
			<point x="261" y="-65"/>
			<point x="213" y="-58"/>
			<point x="153" y="-35" type="curve"/>
			<point x="133" y="-35" type="line"/>
			<point x="144" y="-77"/>
			<point x="154" y="-118"/>
			<point x="165" y="-160" type="curve" smooth="yes"/>
			<point x="165" y="-163"/>
			<point x="167" y="-166"/>
			<point x="170" y="-168" type="curve" smooth="yes"/>
			<point x="188" y="-183"/>
			<point x="272" y="-205"/>
			<point x="357" y="-205" type="curve" smooth="yes"/>
			<point x="542" y="-205"/>
			<point x="600" y="-104"/>
			<point x="560" y="54" type="curve" smooth="yes"/>
			<point x="515" y="232"/>
			<point x="486" y="351"/>
			<point x="441" y="529" type="curve" smooth="yes"/>
			<point x="439" y="536"/>
			<point x="434" y="540"/>
			<point x="427" y="540" type="curve" smooth="yes"/>
			<point x="381" y="540"/>
			<point x="334" y="540"/>
		</contour>
	</outline>
	<anchor name="top" x="206.7237371486" y="551"/>
</glyph>
<glyph name="h.italic" format="2">
	<advance width="600"/>
	<outline>
		<contour>
			<point x="-24" y="750" type="curve"/>
			<point x="-17" y="722"/>
			<point x="-8" y="688"/>
			<point x="1" y="652" type="curve" smooth="yes"/>
			<point x="54" y="438"/>
			<point x="108" y="225"/>
			<point x="161" y="11" type="curve" smooth="yes"/>
			<point x="163" y="4"/>
			<point x="168" y="0"/>
			<point x="175" y="0" type="curve" smooth="yes"/>
			<point x="222" y="0"/>
			<point x="267" y="0"/>
			<point x="314" y="0" type="curve"/>
			<point x="252" y="246"/>
			<point x="190" y="493"/>
			<point x="129" y="739" type="curve" smooth="yes"/>
			<point x="127" y="746"/>
			<point x="122" y="750"/>
			<point x="115" y="750" type="curve" smooth="yes"/>
			<point x="73" y="750"/>
			<point x="27" y="750"/>
		</contour>
		<contour>
			<point x="351" y="552" type="curve" smooth="yes"/>
			<point x="293" y="552"/>
			<point x="245" y="522"/>
			<point x="220" y="454" type="curve"/>
			<point x="183" y="454" type="line"/>
			<point x="215" y="328" type="line"/>
			<point x="240" y="382"/>
			<point x="288" y="407"/>
			<point x="336" y="407" type="curve" smooth="yes"/>
			<point x="362" y="407"/>
			<point x="375" y="395"/>
			<point x="381" y="371" type="curve" smooth="yes"/>
			<point x="402" y="289"/>
			<point x="422" y="206"/>
			<point x="443" y="124" type="curve" smooth="yes"/>
			<point x="462" y="48"/>
			<point x="509" y="0"/>
			<point x="588" y="0" type="curve" smooth="yes"/>
			<point x="613" y="0"/>
			<point x="656" y="0"/>
			<point x="663" y="0" type="curve" smooth="yes"/>
			<point x="670" y="0"/>
			<point x="673" y="4"/>
			<point x="671" y="11" type="curve" smooth="yes"/>
			<point x="661" y="51"/>
			<point x="651" y="90"/>
			<point x="641" y="130" type="curve"/>
			<point x="621" y="130" type="line"/>
			<point x="614" y="130"/>
			<point x="609" y="130"/>
			<point x="602" y="130" type="curve" smooth="yes"/>
			<point x="598" y="130"/>
			<point x="596" y="131"/>
			<point x="594" y="133" type="curve" smooth="yes"/>
			<point x="591" y="135"/>
			<point x="589" y="138"/>
			<point x="589" y="141" type="curve" smooth="yes"/>
			<point x="567" y="227"/>
			<point x="545" y="314"/>
			<point x="524" y="400" type="curve" smooth="yes"/>
			<point x="500" y="496"/>
			<point x="428" y="552"/>
		</contour>
	</outline>
	<anchor name="top" x="54.2252697288" y="730"/>
	<anchor name="bottom" x="409.776123526" y="0"/>
</glyph>
<glyph name="k.italic" format="2">
	<advance width="600"/>
	<outline>
		<contour>
			<point x="-24" y="750" type="curve"/>
			<point x="-17" y="722"/>
			<point x="-8" y="688"/>
			<point x="1" y="652" type="curve" smooth="yes"/>
			<point x="54" y="439"/>
			<point x="108" y="224"/>
			<point x="161" y="11" type="curve" smooth="yes"/>
			<point x="163" y="4"/>
			<point x="168" y="0"/>
			<point x="175" y="0" type="curve" smooth="yes"/>
			<point x="225" y="0"/>
			<point x="274" y="0"/>
			<point x="324" y="0" type="curve"/>
			<point x="262" y="246"/>
			<point x="200" y="493"/>
			<point x="139" y="739" type="curve" smooth="yes"/>
			<point x="137" y="746"/>
			<point x="132" y="750"/>
			<point x="125" y="750" type="curve" smooth="yes"/>
			<point x="80" y="750"/>
			<point x="31" y="750"/>
		</contour>
		<contour>
			<point x="365" y="552" type="curve" smooth="yes"/>
			<point x="303" y="552"/>
			<point x="255" y="522"/>
			<point x="230" y="454" type="curve"/>
			<point x="193" y="454" type="line"/>
			<point x="225" y="328" type="line"/>
			<point x="251" y="384"/>
			<point x="284" y="417"/>
			<point x="327" y="417" type="curve" smooth="yes"/>
			<point x="344" y="417"/>
			<point x="356" y="413"/>
			<point x="366" y="405" type="curve" smooth="yes"/>
			<point x="376" y="397"/>
			<point x="382" y="388"/>
			<point x="385" y="375" type="curve" smooth="yes"/>
			<point x="392" y="347" type="line" smooth="yes"/>
			<point x="400" y="316"/>
			<point x="391" y="301"/>
			<point x="355" y="301" type="curve" smooth="yes"/>
			<point x="330" y="301"/>
			<point x="307" y="301"/>
			<point x="282" y="301" type="curve"/>
			<point x="293" y="256"/>
			<point x="299" y="232"/>
			<point x="310" y="187" type="curve" smooth="yes"/>
			<point x="313" y="176"/>
			<point x="314" y="173"/>
			<point x="325" y="163" type="curve" smooth="yes"/>
			<point x="349" y="142"/>
			<point x="417" y="84"/>
			<point x="450" y="54" type="curve" smooth="yes"/>
			<point x="499" y="11"/>
			<point x="529" y="0"/>
			<point x="581" y="0" type="curve" smooth="yes"/>
			<point x="610" y="0"/>
			<point x="629" y="0"/>
			<point x="642" y="0" type="curve" smooth="yes"/>
			<point x="653" y="0"/>
			<point x="655" y="2"/>
			<point x="653" y="13" type="curve" smooth="yes"/>
			<point x="643" y="52"/>
			<point x="633" y="91"/>
			<point x="623" y="130" type="curve"/>
			<point x="600" y="130" type="line"/>
			<point x="594" y="130"/>
			<point x="588" y="130"/>
			<point x="569" y="130" type="curve" smooth="yes"/>
			<point x="551" y="130"/>
			<point x="547" y="133"/>
			<point x="529" y="148" type="curve" smooth="yes"/>
			<point x="511" y="163"/>
			<point x="466" y="200"/>
			<point x="437" y="225" type="curve"/>
			<point x="432" y="245" type="line"/>
			<point x="436" y="245"/>
			<point x="441" y="245"/>
			<point x="447" y="245" type="curve" smooth="yes"/>
			<point x="536" y="245"/>
			<point x="567" y="288"/>
			<point x="546" y="370" type="curve" smooth="yes"/>
			<point x="537" y="408" type="line" smooth="yes"/>
			<point x="514" y="499"/>
			<point x="449" y="552"/>
		</contour>
	</outline>
	<anchor name="bottom" x="411.0261931887" y="-1"/>
</glyph>
<glyph name="l.italic" format="2">
	<advance width="600"/>
	<outline>
		<contour>
			<point x="-44" y="750" type="curve"/>
			<point x="-34" y="710"/>
			<point x="-24" y="671"/>
			<point x="-14" y="631" type="curve" smooth="yes"/>
			<point x="-12" y="624"/>
			<point x="-7" y="620"/>
			<point x="0" y="620" type="curve" smooth="yes"/>
			<point x="50" y="620"/>
			<point x="101" y="620"/>
			<point x="151" y="620" type="curve"/>
			<point x="169" y="620" type="line"/>
			<point x="207" y="465"/>
			<point x="247" y="309"/>
			<point x="285" y="154" type="curve" smooth="yes"/>
			<point x="311" y="50"/>
			<point x="373" y="0"/>
			<point x="489" y="0" type="curve" smooth="yes"/>
			<point x="537" y="0"/>
			<point x="585" y="0"/>
			<point x="633" y="0" type="curve"/>
			<point x="640" y="0"/>
			<point x="643" y="4"/>
			<point x="641" y="11" type="curve"/>
			<point x="631" y="51"/>
			<point x="621" y="90"/>
			<point x="611" y="130" type="curve"/>
			<point x="591" y="130" type="line"/>
			<point x="554" y="130"/>
			<point x="511" y="130"/>
			<point x="471" y="130" type="curve" smooth="yes"/>
			<point x="459" y="130"/>
			<point x="452" y="132"/>
			<point x="446" y="137" type="curve" smooth="yes"/>
			<point x="439" y="142"/>
			<point x="437" y="148"/>
			<point x="435" y="157" type="curve" smooth="yes"/>
			<point x="386" y="351"/>
			<point x="337" y="545"/>
			<point x="289" y="739" type="curve" smooth="yes"/>
			<point x="287" y="746"/>
			<point x="282" y="750"/>
			<point x="275" y="750" type="curve" smooth="yes"/>
			<point x="169" y="750"/>
			<point x="62" y="750"/>
		</contour>
	</outline>
	<anchor name="top" x="216.2252697288" y="730"/>
	<anchor name="bottom" x="453.2759842005" y="2"/>
	<anchor name="dot" x="513.7482584316" y="400"/>
	<anchor name="caronslovak" x="440.9793798302" y="671"/>
	<anchor name="slash" x="310.4993033726" y="385"/>
</glyph>
<glyph name="l.mono" format="2">
	<advance width="600"/>
	<outline>
		<contour>
			<point x="121" y="130" type="line"/>
			<point x="132" y="89"/>
			<point x="141" y="53"/>
			<point x="151" y="11" type="curve" smooth="yes"/>
			<point x="153" y="4"/>
			<point x="158" y="0"/>
			<point x="165" y="0" type="curve"/>
			<point x="634" y="0" type="line"/>
			<point x="623" y="42"/>
			<point x="614" y="78"/>
			<point x="604" y="119" type="curve" smooth="yes"/>
			<point x="602" y="126"/>
			<point x="597" y="130"/>
			<point x="590" y="130" type="curve"/>
		</contour>
		<contour>
			<point x="-14" y="750" type="curve"/>
			<point x="-4" y="710"/>
			<point x="6" y="671"/>
			<point x="16" y="631" type="curve" smooth="yes"/>
			<point x="18" y="624"/>
			<point x="23" y="620"/>
			<point x="30" y="620" type="curve" smooth="yes"/>
			<point x="73" y="620"/>
			<point x="125" y="620"/>
			<point x="173" y="620" type="curve"/>
			<point x="179" y="620" type="line"/>
			<point x="218" y="461"/>
			<point x="262" y="287"/>
			<point x="298" y="143" type="curve" smooth="yes"/>
			<point x="302" y="127"/>
			<point x="306" y="110"/>
			<point x="310" y="94" type="curve"/>
			<point x="304" y="65" type="line"/>
			<point x="468" y="65" type="line"/>
			<point x="412" y="289"/>
			<point x="355" y="515"/>
			<point x="299" y="739" type="curve"/>
			<point x="297" y="746"/>
			<point x="292" y="750"/>
			<point x="285" y="750" type="curve" smooth="yes"/>
			<point x="185" y="750"/>
			<point x="86" y="750"/>
		</contour>
	</outline>
	<anchor name="top" x="211.2252697288" y="730"/>
	<anchor name="bottom" x="393.2759842005" y="2"/>
	<anchor name="dot" x="523.7482584316" y="400"/>
	<anchor name="caronslovak" x="460.9793798302" y="671"/>
	<anchor name="slash" x="312.4990247217" y="389"/>
</glyph>
<glyph name="m.italic" format="2">
	<advance width="600"/>
	<outline>
		<contour>
			<point x="-36" y="540" type="curve"/>
			<point x="-28" y="507"/>
			<point x="-19" y="473"/>
			<point x="-11" y="440" type="curve" smooth="yes"/>
			<point x="25" y="297"/>
			<point x="61" y="154"/>
			<point x="96" y="11" type="curve" smooth="yes"/>
			<point x="98" y="4"/>
			<point x="103" y="0"/>
			<point x="110" y="0" type="curve" smooth="yes"/>
			<point x="151" y="0"/>
			<point x="193" y="0"/>
			<point x="234" y="0" type="curve"/>
			<point x="199" y="139"/>
			<point x="164" y="279"/>
			<point x="129" y="418" type="curve"/>
			<point x="129" y="419"/>
			<point x="60" y="540"/>
			<point x="59" y="540" type="curve"/>
			<point x="28" y="540"/>
			<point x="-5" y="540"/>
		</contour>
		<contour>
			<point x="206" y="552" type="curve" smooth="yes"/>
			<point x="155" y="552"/>
			<point x="129" y="521"/>
			<point x="122" y="464" type="curve"/>
			<point x="94" y="464" type="line"/>
			<point x="128" y="369" type="line"/>
			<point x="146" y="396"/>
			<point x="167" y="404"/>
			<point x="186" y="404" type="curve" smooth="yes"/>
			<point x="202" y="404"/>
			<point x="214" y="399"/>
			<point x="220" y="374" type="curve" smooth="yes"/>
			<point x="251" y="253"/>
			<point x="281" y="132"/>
			<point x="311" y="11" type="curve" smooth="yes"/>
			<point x="313" y="4"/>
			<point x="318" y="0"/>
			<point x="325" y="0" type="curve" smooth="yes"/>
			<point x="354" y="0"/>
			<point x="394" y="0"/>
			<point x="429" y="0" type="curve"/>
			<point x="369" y="241"/>
			<point x="335" y="377"/>
			<point x="315" y="455" type="curve" smooth="yes"/>
			<point x="300" y="515"/>
			<point x="255" y="552"/>
		</contour>
		<contour>
			<point x="415" y="552" type="curve" smooth="yes"/>
			<point x="365" y="552"/>
			<point x="343" y="517"/>
			<point x="334" y="464" type="curve"/>
			<point x="290" y="464" type="line"/>
			<point x="328" y="369" type="line"/>
			<point x="345" y="394"/>
			<point x="363" y="404"/>
			<point x="381" y="404" type="curve" smooth="yes"/>
			<point x="397" y="404"/>
			<point x="409" y="399"/>
			<point x="415" y="374" type="curve" smooth="yes"/>
			<point x="439" y="280"/>
			<point x="462" y="188"/>
			<point x="486" y="94" type="curve" smooth="yes"/>
			<point x="500" y="37"/>
			<point x="538" y="0"/>
			<point x="603" y="0" type="curve" smooth="yes"/>
			<point x="622" y="0"/>
			<point x="652" y="0"/>
			<point x="658" y="0" type="curve" smooth="yes"/>
			<point x="665" y="0"/>
			<point x="668" y="4"/>
			<point x="666" y="11" type="curve"/>
			<point x="656" y="51"/>
			<point x="647" y="90"/>
			<point x="637" y="130" type="curve"/>
			<point x="626" y="130" type="line"/>
			<point x="623" y="130"/>
			<point x="621" y="130"/>
			<point x="618" y="130" type="curve" smooth="yes"/>
			<point x="614" y="130"/>
			<point x="611" y="131"/>
			<point x="609" y="133" type="curve" smooth="yes"/>
			<point x="606" y="135"/>
			<point x="605" y="138"/>
			<point x="604" y="141" type="curve" smooth="yes"/>
			<point x="578" y="246"/>
			<point x="551" y="350"/>
			<point x="525" y="455" type="curve" smooth="yes"/>
			<point x="510" y="516"/>
			<point x="466" y="552"/>
		</contour>
	</outline>
	<anchor name="bottom" x="370.0192269151" y="0"/>
</glyph>
<glyph name="n.italic" format="2">
	<advance width="600"/>
	<outline>
		<contour>
			<point x="4" y="540" type="curve"/>
			<point x="11" y="512"/>
			<point x="19" y="478"/>
			<point x="28" y="442" type="curve" smooth="yes"/>
			<point x="64" y="298"/>
			<point x="100" y="155"/>
			<point x="136" y="11" type="curve" smooth="yes"/>
			<point x="138" y="4"/>
			<point x="143" y="0"/>
			<point x="150" y="0" type="curve" smooth="yes"/>
			<point x="200" y="0"/>
			<point x="239" y="0"/>
			<point x="289" y="0" type="curve"/>
			<point x="245" y="176"/>
			<point x="201" y="353"/>
			<point x="157" y="529" type="curve" smooth="yes"/>
			<point x="155" y="536"/>
			<point x="150" y="540"/>
			<point x="143" y="540" type="curve" smooth="yes"/>
			<point x="98" y="540"/>
			<point x="59" y="540"/>
		</contour>
		<contour>
			<point x="326" y="552" type="curve" smooth="yes"/>
			<point x="272" y="552"/>
			<point x="220" y="521"/>
			<point x="195" y="454" type="curve"/>
			<point x="158" y="454" type="line"/>
			<point x="190" y="328" type="line"/>
			<point x="214" y="379"/>
			<point x="269" y="407"/>
			<point x="311" y="407" type="curve" smooth="yes"/>
			<point x="337" y="407"/>
			<point x="350" y="395"/>
			<point x="356" y="371" type="curve" smooth="yes"/>
			<point x="377" y="289"/>
			<point x="398" y="206"/>
			<point x="418" y="124" type="curve" smooth="yes"/>
			<point x="437" y="48"/>
			<point x="477" y="0"/>
			<point x="563" y="0" type="curve" smooth="yes"/>
			<point x="588" y="0"/>
			<point x="631" y="0"/>
			<point x="638" y="0" type="curve" smooth="yes"/>
			<point x="645" y="0"/>
			<point x="648" y="4"/>
			<point x="646" y="11" type="curve" smooth="yes"/>
			<point x="635" y="55"/>
			<point x="628" y="86"/>
			<point x="617" y="130" type="curve"/>
			<point x="597" y="130" type="line"/>
			<point x="590" y="130"/>
			<point x="585" y="130"/>
			<point x="578" y="130" type="curve" smooth="yes"/>
			<point x="574" y="130"/>
			<point x="571" y="131"/>
			<point x="569" y="133" type="curve" smooth="yes"/>
			<point x="566" y="135"/>
			<point x="565" y="138"/>
			<point x="564" y="141" type="curve" smooth="yes"/>
			<point x="543" y="223"/>
			<point x="519" y="318"/>
			<point x="499" y="400" type="curve" smooth="yes"/>
			<point x="475" y="496"/>
			<point x="403" y="552"/>
		</contour>
	</outline>
	<anchor name="top" x="231.2308427476" y="551"/>
	<anchor name="bottom" x="387.2692965778" y="-1"/>
	<anchor name="caronslovak" x="5.2224832193" y="671"/>
</glyph>
<glyph name="r.italic" format="2">
	<advance width="600"/>
	<outline>
		<contour>
			<point x="-11" y="540" type="curve"/>
			<point x="-1" y="500"/>
			<point x="8" y="461"/>
			<point x="18" y="421" type="curve" smooth="yes"/>
			<point x="20" y="414"/>
			<point x="25" y="410"/>
			<point x="32" y="410" type="curve" smooth="yes"/>
			<point x="56" y="410"/>
			<point x="80" y="410"/>
			<point x="104" y="410" type="curve"/>
			<point x="121" y="410" type="line"/>
			<point x="148" y="301"/>
			<point x="194" y="120"/>
			<point x="221" y="11" type="curve" smooth="yes"/>
			<point x="223" y="4"/>
			<point x="228" y="0"/>
			<point x="235" y="0" type="curve" smooth="yes"/>
			<point x="281" y="0"/>
			<point x="328" y="0"/>
			<point x="374" y="0" type="curve"/>
			<point x="367" y="29"/>
			<point x="358" y="62"/>
			<point x="349" y="98" type="curve" smooth="yes"/>
			<point x="324" y="201"/>
			<point x="293" y="322"/>
			<point x="273" y="404" type="curve"/>
			<point x="272" y="405"/>
			<point x="194" y="540"/>
			<point x="193" y="540" type="curve"/>
			<point x="117" y="540"/>
			<point x="65" y="540"/>
		</contour>
		<contour>
			<point x="400" y="550" type="curve" smooth="yes"/>
			<point x="325" y="550"/>
			<point x="288" y="503"/>
			<point x="271" y="434" type="curve"/>
			<point x="238" y="434" type="line"/>
			<point x="277" y="316" type="line"/>
			<point x="297" y="373"/>
			<point x="345" y="401"/>
			<point x="381" y="401" type="curve" smooth="yes"/>
			<point x="383" y="401"/>
			<point x="384" y="401"/>
			<point x="385" y="401" type="curve"/>
			<point x="390" y="381"/>
			<point x="396" y="359"/>
			<point x="401" y="339" type="curve"/>
			<point x="406" y="319" type="line"/>
			<point x="447" y="319"/>
			<point x="489" y="319"/>
			<point x="530" y="319" type="curve" smooth="yes"/>
			<point x="537" y="319"/>
			<point x="540" y="323"/>
			<point x="538" y="330" type="curve" smooth="yes"/>
			<point x="490" y="522" type="line" smooth="yes"/>
			<point x="489" y="525"/>
			<point x="487" y="529"/>
			<point x="485" y="531" type="curve" smooth="yes"/>
			<point x="472" y="541"/>
			<point x="444" y="550"/>
		</contour>
	</outline>
	<anchor name="top" x="274.9807730849" y="551"/>
	<anchor name="bottom" x="299.0192269151" y="-1"/>
</glyph>
<glyph name="r.mono" format="2">
	<advance width="600"/>
	<outline>
		<contour>
			<point x="231" y="71" type="line"/>
			<point x="381" y="71" type="line"/>
			<point x="353" y="185"/>
			<point x="326" y="290"/>
			<point x="298" y="404" type="curve"/>
			<point x="297" y="405"/>
			<point x="219" y="540"/>
			<point x="218" y="540" type="curve"/>
			<point x="132" y="540"/>
			<point x="44" y="540"/>
			<point x="-1" y="540" type="curve"/>
			<point x="9" y="500"/>
			<point x="18" y="461"/>
			<point x="28" y="421" type="curve"/>
			<point x="30" y="414"/>
			<point x="35" y="410"/>
			<point x="42" y="410" type="curve"/>
			<point x="70" y="410"/>
			<point x="97" y="410"/>
			<point x="126" y="410" type="curve" smooth="yes"/>
			<point x="146" y="410" type="line"/>
			<point x="159" y="357"/>
			<point x="173" y="303"/>
			<point x="186" y="250" type="curve" smooth="yes"/>
			<point x="195" y="216"/>
			<point x="204" y="181"/>
			<point x="212" y="147" type="curve" smooth="yes"/>
		</contour>
		<contour>
			<point x="258" y="434" type="line"/>
			<point x="299" y="328" type="line"/>
			<point x="321" y="369"/>
			<point x="374" y="392"/>
			<point x="429" y="392" type="curve" smooth="yes"/>
			<point x="460" y="392"/>
			<point x="481" y="389"/>
			<point x="516" y="380" type="curve"/>
			<point x="536" y="380" type="line"/>
			<point x="523" y="429"/>
			<point x="511" y="477"/>
			<point x="499" y="526" type="curve"/>
			<point x="498" y="531"/>
			<point x="496" y="534"/>
			<point x="494" y="536" type="curve" smooth="yes"/>
			<point x="484" y="544"/>
			<point x="462" y="550"/>
			<point x="432" y="550" type="curve" smooth="yes"/>
			<point x="351" y="550"/>
			<point x="310" y="502"/>
			<point x="296" y="434" type="curve"/>
		</contour>
		<contour>
			<point x="96" y="130" type="line"/>
			<point x="107" y="89"/>
			<point x="116" y="53"/>
			<point x="126" y="11" type="curve" smooth="yes"/>
			<point x="128" y="4"/>
			<point x="133" y="0"/>
			<point x="140" y="0" type="curve"/>
			<point x="559" y="0" type="line"/>
			<point x="548" y="42"/>
			<point x="539" y="78"/>
			<point x="529" y="119" type="curve" smooth="yes"/>
			<point x="527" y="126"/>
			<point x="522" y="130"/>
			<point x="515" y="130" type="curve"/>
		</contour>
	</outline>
	<anchor name="top" x="241.9807730849" y="551"/>
	<anchor name="bottom" x="380.0192269151" y="-1"/>
</glyph>
<glyph name="u.italic" format="2">
	<advance width="600"/>
	<outline>
		<contour>
			<point x="1" y="540" type="curve"/>
			<point x="9" y="507"/>
			<point x="17" y="474"/>
			<point x="26" y="441" type="curve" smooth="yes"/>
			<point x="51" y="341"/>
			<point x="76" y="240"/>
			<point x="101" y="140" type="curve" smooth="yes"/>
			<point x="125" y="46"/>
			<point x="197" y="-12"/>
			<point x="275" y="-12" type="curve" smooth="yes"/>
			<point x="348" y="-12"/>
			<point x="383" y="23"/>
			<point x="398" y="94" type="curve"/>
			<point x="430" y="94" type="line"/>
			<point x="400" y="212" type="line"/>
			<point x="378" y="163"/>
			<point x="335" y="141"/>
			<point x="290" y="141" type="curve" smooth="yes"/>
			<point x="269" y="141"/>
			<point x="252" y="155"/>
			<point x="247" y="177" type="curve" smooth="yes"/>
			<point x="217" y="294"/>
			<point x="188" y="412"/>
			<point x="159" y="529" type="curve" smooth="yes"/>
			<point x="157" y="536"/>
			<point x="152" y="540"/>
			<point x="145" y="540" type="curve" smooth="yes"/>
			<point x="97" y="540"/>
			<point x="49" y="540"/>
		</contour>
		<contour>
			<point x="301" y="540" type="curve"/>
			<point x="335" y="404"/>
			<point x="369" y="267"/>
			<point x="403" y="131" type="curve" smooth="yes"/>
			<point x="420" y="63"/>
			<point x="480" y="0"/>
			<point x="581" y="0" type="curve" smooth="yes"/>
			<point x="597" y="0"/>
			<point x="623" y="0"/>
			<point x="630" y="0" type="curve" smooth="yes"/>
			<point x="637" y="0"/>
			<point x="640" y="4"/>
			<point x="638" y="11" type="curve" smooth="yes"/>
			<point x="628" y="51"/>
			<point x="619" y="90"/>
			<point x="609" y="130" type="curve"/>
			<point x="589" y="130" type="line"/>
			<point x="586" y="130"/>
			<point x="583" y="130"/>
			<point x="580" y="130" type="curve" smooth="yes"/>
			<point x="573" y="130"/>
			<point x="566" y="132"/>
			<point x="562" y="135" type="curve" smooth="yes"/>
			<point x="559" y="138"/>
			<point x="555" y="143"/>
			<point x="554" y="150" type="curve" smooth="yes"/>
			<point x="522" y="276"/>
			<point x="490" y="403"/>
			<point x="459" y="529" type="curve" smooth="yes"/>
			<point x="457" y="536"/>
			<point x="452" y="540"/>
			<point x="445" y="540" type="curve" smooth="yes"/>
			<point x="397" y="540"/>
			<point x="349" y="540"/>
		</contour>
	</outline>
	<anchor name="top" x="227.7309820731" y="537"/>
	<anchor name="bottom" x="368.268460625" y="-1"/>
	<anchor name="ogonek" x="631.268460625" y="-1"/>
	<anchor name="hook" x="216.9777079245" y="584"/>
	<anchor name="horn" x="394.9807730849" y="540"/>
	<anchor name="tildeviet" x="186.9810517358" y="536"/>
</glyph>
<glyph name="v.italic" format="2">
	<advance width="600"/>
	<outline>
		<contour>
			<point x="-23" y="540" type="curve"/>
			<point x="-13" y="500"/>
			<point x="-3" y="461"/>
			<point x="7" y="421" type="curve" smooth="yes"/>
			<point x="9" y="414"/>
			<point x="14" y="410"/>
			<point x="21" y="410" type="curve" smooth="yes"/>
			<point x="31" y="410"/>
			<point x="41" y="410"/>
			<point x="52" y="410" type="curve"/>
			<point x="69" y="410" type="line"/>
			<point x="96" y="301"/>
			<point x="128" y="172"/>
			<point x="162" y="39" type="curve"/>
			<point x="162" y="36"/>
			<point x="164" y="33"/>
			<point x="167" y="31" type="curve" smooth="yes"/>
			<point x="189" y="13"/>
			<point x="262" y="-10"/>
			<point x="350" y="-10" type="curve" smooth="yes"/>
			<point x="511" y="-10"/>
			<point x="591" y="101"/>
			<point x="549" y="270" type="curve" smooth="yes"/>
			<point x="537" y="318" type="line" smooth="yes"/>
			<point x="512" y="418"/>
			<point x="469" y="499"/>
			<point x="424" y="535" type="curve" smooth="yes"/>
			<point x="422" y="537"/>
			<point x="415" y="540"/>
			<point x="409" y="540" type="curve" smooth="yes"/>
			<point x="365" y="540"/>
			<point x="321" y="540"/>
			<point x="277" y="540" type="curve"/>
			<point x="282" y="520" type="line"/>
			<point x="336" y="462"/>
			<point x="362" y="407"/>
			<point x="385" y="318" type="curve" smooth="yes"/>
			<point x="397" y="270" type="line" smooth="yes"/>
			<point x="418" y="184"/>
			<point x="383" y="130"/>
			<point x="318" y="130" type="curve"/>
			<point x="308" y="130"/>
			<point x="297" y="131"/>
			<point x="288" y="133" type="curve"/>
			<point x="276" y="181"/>
			<point x="279" y="169"/>
			<point x="274" y="188" type="curve" smooth="yes"/>
			<point x="246" y="302"/>
			<point x="217" y="415"/>
			<point x="189" y="529" type="curve" smooth="yes"/>
			<point x="187" y="536"/>
			<point x="182" y="540"/>
			<point x="175" y="540" type="curve" smooth="yes"/>
			<point x="109" y="540"/>
			<point x="43" y="540"/>
		</contour>
	</outline>
</glyph>
<glyph name="w.italic" format="2">
	<advance width="600"/>
	<outline>
		<contour>
			<point x="206" y="425" type="curve"/>
			<point x="230" y="330"/>
			<point x="254" y="235"/>
			<point x="278" y="140" type="curve" smooth="yes"/>
			<point x="296" y="67"/>
			<point x="354" y="-5"/>
			<point x="451" y="-5" type="curve" smooth="yes"/>
			<point x="467" y="-5" type="line" smooth="yes"/>
			<point x="570" y="-5"/>
			<point x="626" y="70"/>
			<point x="599" y="180" type="curve" smooth="yes"/>
			<point x="557" y="348" type="line" smooth="yes"/>
			<point x="535" y="434"/>
			<point x="502" y="505"/>
			<point x="465" y="535" type="curve" smooth="yes"/>
			<point x="462" y="537"/>
			<point x="456" y="540"/>
			<point x="450" y="540" type="curve" smooth="yes"/>
			<point x="413" y="540"/>
			<point x="375" y="540"/>
			<point x="338" y="540" type="curve"/>
			<point x="343" y="520" type="line"/>
			<point x="388" y="471"/>
			<point x="409" y="424"/>
			<point x="428" y="348" type="curve" smooth="yes"/>
			<point x="470" y="180" type="line" smooth="yes"/>
			<point x="481" y="137"/>
			<point x="465" y="125"/>
			<point x="431" y="125" type="curve" smooth="yes"/>
			<point x="424" y="125" type="line" smooth="yes"/>
			<point x="408" y="125"/>
			<point x="394" y="134"/>
			<point x="390" y="152" type="curve" smooth="yes"/>
			<point x="368" y="240"/>
			<point x="346" y="326"/>
			<point x="324" y="414" type="curve" smooth="yes"/>
			<point x="322" y="421"/>
			<point x="317" y="425"/>
			<point x="310" y="425" type="curve" smooth="yes"/>
			<point x="275" y="425"/>
			<point x="241" y="425"/>
		</contour>
		<contour>
			<point x="-38" y="540" type="curve"/>
			<point x="-30" y="506"/>
			<point x="-22" y="473"/>
			<point x="-13" y="439" type="curve" smooth="yes"/>
			<point x="23" y="295"/>
			<point x="55" y="167"/>
			<point x="91" y="23" type="curve" smooth="yes"/>
			<point x="92" y="19"/>
			<point x="94" y="17"/>
			<point x="96" y="15" type="curve" smooth="yes"/>
			<point x="110" y="4"/>
			<point x="136" y="-6"/>
			<point x="170" y="-6" type="curve" smooth="yes"/>
			<point x="236" y="-6"/>
			<point x="271" y="22"/>
			<point x="288" y="72" type="curve"/>
			<point x="316" y="72" type="line"/>
			<point x="285" y="160" type="line"/>
			<point x="263" y="132"/>
			<point x="236" y="125"/>
			<point x="214" y="125" type="curve"/>
			<point x="210" y="125"/>
			<point x="205" y="125"/>
			<point x="200" y="126" type="curve"/>
			<point x="195" y="149"/>
			<point x="187" y="181"/>
			<point x="181" y="205" type="curve" smooth="yes"/>
			<point x="153" y="315"/>
			<point x="127" y="419"/>
			<point x="99" y="529" type="curve" smooth="yes"/>
			<point x="98" y="536"/>
			<point x="93" y="540"/>
			<point x="86" y="540" type="curve" smooth="yes"/>
			<point x="45" y="540"/>
			<point x="3" y="540"/>
		</contour>
	</outline>
	<anchor name="top" x="236.4811910613" y="537"/>
</glyph>
